%TF.GenerationSoftware,KiCad,Pcbnew,(5.1.6-0-10_14)*%
%TF.CreationDate,2021-01-11T17:17:34-08:00*%
%TF.ProjectId,AD7766_dev_board,41443737-3636-45f6-9465-765f626f6172,rev?*%
%TF.SameCoordinates,Original*%
%TF.FileFunction,Soldermask,Top*%
%TF.FilePolarity,Negative*%
%FSLAX46Y46*%
G04 Gerber Fmt 4.6, Leading zero omitted, Abs format (unit mm)*
G04 Created by KiCad (PCBNEW (5.1.6-0-10_14)) date 2021-01-11 17:17:34*
%MOMM*%
%LPD*%
G01*
G04 APERTURE LIST*
%ADD10R,0.950000X0.700000*%
%ADD11R,0.900000X0.900000*%
%ADD12R,0.700000X0.950000*%
%ADD13C,4.100000*%
%ADD14C,0.100000*%
%ADD15R,0.900000X1.900000*%
%ADD16C,2.100000*%
%ADD17O,1.800000X1.800000*%
%ADD18R,1.800000X1.800000*%
%ADD19C,1.400000*%
%ADD20C,1.700000*%
%ADD21R,1.400000X1.400000*%
%ADD22R,1.700000X1.700000*%
%ADD23R,3.100000X2.390000*%
%ADD24R,1.660000X0.750000*%
%ADD25R,0.750000X1.660000*%
%ADD26R,2.390000X3.100000*%
%ADD27C,10.260000*%
%ADD28O,3.600000X7.100000*%
%ADD29O,1.700000X2.600000*%
%ADD30R,5.180000X1.700000*%
G04 APERTURE END LIST*
D10*
%TO.C,FL2*%
X8927000Y11779000D03*
X10377000Y11779000D03*
D11*
X9652000Y10695000D03*
X9652000Y12895000D03*
%TD*%
D10*
%TO.C,FL3*%
X9869000Y-11049000D03*
X8419000Y-11049000D03*
D11*
X9144000Y-9965000D03*
X9144000Y-12165000D03*
%TD*%
D12*
%TO.C,FL1*%
X-8001000Y-12536000D03*
X-8001000Y-11086000D03*
D11*
X-6917000Y-11811000D03*
X-9117000Y-11811000D03*
%TD*%
D13*
%TO.C,H4*%
X59055000Y28575000D03*
%TD*%
%TO.C,H3*%
X59055000Y-28575000D03*
%TD*%
%TO.C,H2*%
X-17145000Y28575000D03*
%TD*%
%TO.C,H1*%
X-17399000Y-28829000D03*
%TD*%
D14*
%TO.C,D1*%
G36*
X-9474000Y13528023D02*
G01*
X-9474000Y11109977D01*
X-13174000Y11726643D01*
X-13174000Y12911357D01*
X-9474000Y13528023D01*
G37*
G36*
X-18974000Y11109977D02*
G01*
X-18974000Y13528023D01*
X-15274000Y12911357D01*
X-15274000Y11726643D01*
X-18974000Y11109977D01*
G37*
%TD*%
D15*
%TO.C,D2*%
X-13208000Y8890000D03*
X-12258000Y5590000D03*
X-14158000Y5590000D03*
%TD*%
D16*
%TO.C,TP19*%
X2286000Y-3048000D03*
%TD*%
%TO.C,TP18*%
X2286000Y4826000D03*
%TD*%
%TO.C,TP14*%
X-1651000Y-7112000D03*
%TD*%
%TO.C,TP12*%
X-1270000Y6096000D03*
%TD*%
%TO.C,TP8*%
X23749000Y14351000D03*
%TD*%
%TO.C,TP7*%
X13081000Y-11430000D03*
%TD*%
%TO.C,TP6*%
X4826000Y13335000D03*
%TD*%
%TO.C,TP5*%
X-8890000Y-4318000D03*
%TD*%
%TO.C,TP4*%
X-4191000Y-12827000D03*
%TD*%
%TO.C,TP3*%
X-9652000Y5461000D03*
%TD*%
%TO.C,TP2*%
X-381000Y15367000D03*
%TD*%
%TO.C,TP1*%
X-9525000Y16510000D03*
%TD*%
%TO.C,R10*%
G36*
G01*
X26233000Y17008738D02*
X26233000Y17965262D01*
G75*
G02*
X26504738Y18237000I271738J0D01*
G01*
X27211262Y18237000D01*
G75*
G02*
X27483000Y17965262I0J-271738D01*
G01*
X27483000Y17008738D01*
G75*
G02*
X27211262Y16737000I-271738J0D01*
G01*
X26504738Y16737000D01*
G75*
G02*
X26233000Y17008738I0J271738D01*
G01*
G37*
G36*
G01*
X24183000Y17008738D02*
X24183000Y17965262D01*
G75*
G02*
X24454738Y18237000I271738J0D01*
G01*
X25161262Y18237000D01*
G75*
G02*
X25433000Y17965262I0J-271738D01*
G01*
X25433000Y17008738D01*
G75*
G02*
X25161262Y16737000I-271738J0D01*
G01*
X24454738Y16737000D01*
G75*
G02*
X24183000Y17008738I0J271738D01*
G01*
G37*
%TD*%
%TO.C,R9*%
G36*
G01*
X22235000Y17047738D02*
X22235000Y18004262D01*
G75*
G02*
X22506738Y18276000I271738J0D01*
G01*
X23213262Y18276000D01*
G75*
G02*
X23485000Y18004262I0J-271738D01*
G01*
X23485000Y17047738D01*
G75*
G02*
X23213262Y16776000I-271738J0D01*
G01*
X22506738Y16776000D01*
G75*
G02*
X22235000Y17047738I0J271738D01*
G01*
G37*
G36*
G01*
X20185000Y17047738D02*
X20185000Y18004262D01*
G75*
G02*
X20456738Y18276000I271738J0D01*
G01*
X21163262Y18276000D01*
G75*
G02*
X21435000Y18004262I0J-271738D01*
G01*
X21435000Y17047738D01*
G75*
G02*
X21163262Y16776000I-271738J0D01*
G01*
X20456738Y16776000D01*
G75*
G02*
X20185000Y17047738I0J271738D01*
G01*
G37*
%TD*%
D17*
%TO.C,J4*%
X54102000Y-27559000D03*
X54102000Y-25019000D03*
X54102000Y-22479000D03*
X54102000Y-19939000D03*
X54102000Y-17399000D03*
X54102000Y-14859000D03*
X54102000Y-12319000D03*
X54102000Y-9779000D03*
X54102000Y-7239000D03*
D18*
X54102000Y-4699000D03*
%TD*%
D17*
%TO.C,J3*%
X54229000Y-127000D03*
X54229000Y2413000D03*
X54229000Y4953000D03*
X54229000Y7493000D03*
X54229000Y10033000D03*
D18*
X54229000Y12573000D03*
%TD*%
D19*
%TO.C,U9*%
X41402000Y28480000D03*
X38862000Y28480000D03*
D20*
X45212000Y-16510000D03*
X42672000Y-16510000D03*
X40132000Y-16510000D03*
X37592000Y-16510000D03*
X35052000Y-16510000D03*
D19*
X41313600Y16240000D03*
X41313600Y14240000D03*
X43313600Y14240000D03*
X43313600Y16240000D03*
X45313600Y14240000D03*
D21*
X45313600Y16240000D03*
D20*
X32512000Y-11430000D03*
X32512000Y-13970000D03*
X32512000Y-16510000D03*
X32512000Y-19050000D03*
X32512000Y-8890000D03*
X32512000Y-6350000D03*
X32512000Y-3810000D03*
X32512000Y-21590000D03*
X32512000Y-24130000D03*
X32512000Y-26670000D03*
X32512000Y-29210000D03*
X47752000Y-29210000D03*
X47752000Y-26670000D03*
X47752000Y-24130000D03*
X47752000Y-21590000D03*
X47752000Y-19050000D03*
X47752000Y-16510000D03*
X47752000Y-13970000D03*
X47752000Y-11430000D03*
X47752000Y-8890000D03*
X47752000Y-6350000D03*
X32512000Y-1270000D03*
X32512000Y1270000D03*
X32512000Y3810000D03*
X32512000Y6350000D03*
X32512000Y8890000D03*
X32512000Y11430000D03*
X32512000Y13970000D03*
X32512000Y16510000D03*
X32512000Y19050000D03*
X32512000Y21590000D03*
X32512000Y24130000D03*
X32512000Y26670000D03*
D22*
X32512000Y29210000D03*
D20*
X47752000Y-3810000D03*
X47752000Y-1270000D03*
X47752000Y1270000D03*
X47752000Y3810000D03*
X47752000Y6350000D03*
X47752000Y8890000D03*
X47752000Y11430000D03*
X47752000Y13970000D03*
X47752000Y16510000D03*
X47752000Y19050000D03*
X47752000Y21590000D03*
X47752000Y24130000D03*
X47752000Y26670000D03*
X47752000Y29210000D03*
D22*
X35562800Y22910800D03*
D20*
X35562800Y20370800D03*
X35562800Y17830800D03*
X35562800Y15290800D03*
X35562800Y12750800D03*
X45212000Y26670000D03*
%TD*%
%TO.C,U8*%
G36*
G01*
X14071500Y3080000D02*
X14071500Y3330000D01*
G75*
G02*
X14196500Y3455000I125000J0D01*
G01*
X15521500Y3455000D01*
G75*
G02*
X15646500Y3330000I0J-125000D01*
G01*
X15646500Y3080000D01*
G75*
G02*
X15521500Y2955000I-125000J0D01*
G01*
X14196500Y2955000D01*
G75*
G02*
X14071500Y3080000I0J125000D01*
G01*
G37*
G36*
G01*
X14071500Y2430000D02*
X14071500Y2680000D01*
G75*
G02*
X14196500Y2805000I125000J0D01*
G01*
X15521500Y2805000D01*
G75*
G02*
X15646500Y2680000I0J-125000D01*
G01*
X15646500Y2430000D01*
G75*
G02*
X15521500Y2305000I-125000J0D01*
G01*
X14196500Y2305000D01*
G75*
G02*
X14071500Y2430000I0J125000D01*
G01*
G37*
G36*
G01*
X14071500Y1780000D02*
X14071500Y2030000D01*
G75*
G02*
X14196500Y2155000I125000J0D01*
G01*
X15521500Y2155000D01*
G75*
G02*
X15646500Y2030000I0J-125000D01*
G01*
X15646500Y1780000D01*
G75*
G02*
X15521500Y1655000I-125000J0D01*
G01*
X14196500Y1655000D01*
G75*
G02*
X14071500Y1780000I0J125000D01*
G01*
G37*
G36*
G01*
X14071500Y1130000D02*
X14071500Y1380000D01*
G75*
G02*
X14196500Y1505000I125000J0D01*
G01*
X15521500Y1505000D01*
G75*
G02*
X15646500Y1380000I0J-125000D01*
G01*
X15646500Y1130000D01*
G75*
G02*
X15521500Y1005000I-125000J0D01*
G01*
X14196500Y1005000D01*
G75*
G02*
X14071500Y1130000I0J125000D01*
G01*
G37*
G36*
G01*
X14071500Y480000D02*
X14071500Y730000D01*
G75*
G02*
X14196500Y855000I125000J0D01*
G01*
X15521500Y855000D01*
G75*
G02*
X15646500Y730000I0J-125000D01*
G01*
X15646500Y480000D01*
G75*
G02*
X15521500Y355000I-125000J0D01*
G01*
X14196500Y355000D01*
G75*
G02*
X14071500Y480000I0J125000D01*
G01*
G37*
G36*
G01*
X14071500Y-170000D02*
X14071500Y80000D01*
G75*
G02*
X14196500Y205000I125000J0D01*
G01*
X15521500Y205000D01*
G75*
G02*
X15646500Y80000I0J-125000D01*
G01*
X15646500Y-170000D01*
G75*
G02*
X15521500Y-295000I-125000J0D01*
G01*
X14196500Y-295000D01*
G75*
G02*
X14071500Y-170000I0J125000D01*
G01*
G37*
G36*
G01*
X14071500Y-820000D02*
X14071500Y-570000D01*
G75*
G02*
X14196500Y-445000I125000J0D01*
G01*
X15521500Y-445000D01*
G75*
G02*
X15646500Y-570000I0J-125000D01*
G01*
X15646500Y-820000D01*
G75*
G02*
X15521500Y-945000I-125000J0D01*
G01*
X14196500Y-945000D01*
G75*
G02*
X14071500Y-820000I0J125000D01*
G01*
G37*
G36*
G01*
X14071500Y-1470000D02*
X14071500Y-1220000D01*
G75*
G02*
X14196500Y-1095000I125000J0D01*
G01*
X15521500Y-1095000D01*
G75*
G02*
X15646500Y-1220000I0J-125000D01*
G01*
X15646500Y-1470000D01*
G75*
G02*
X15521500Y-1595000I-125000J0D01*
G01*
X14196500Y-1595000D01*
G75*
G02*
X14071500Y-1470000I0J125000D01*
G01*
G37*
G36*
G01*
X8346500Y-1470000D02*
X8346500Y-1220000D01*
G75*
G02*
X8471500Y-1095000I125000J0D01*
G01*
X9796500Y-1095000D01*
G75*
G02*
X9921500Y-1220000I0J-125000D01*
G01*
X9921500Y-1470000D01*
G75*
G02*
X9796500Y-1595000I-125000J0D01*
G01*
X8471500Y-1595000D01*
G75*
G02*
X8346500Y-1470000I0J125000D01*
G01*
G37*
G36*
G01*
X8346500Y-820000D02*
X8346500Y-570000D01*
G75*
G02*
X8471500Y-445000I125000J0D01*
G01*
X9796500Y-445000D01*
G75*
G02*
X9921500Y-570000I0J-125000D01*
G01*
X9921500Y-820000D01*
G75*
G02*
X9796500Y-945000I-125000J0D01*
G01*
X8471500Y-945000D01*
G75*
G02*
X8346500Y-820000I0J125000D01*
G01*
G37*
G36*
G01*
X8346500Y-170000D02*
X8346500Y80000D01*
G75*
G02*
X8471500Y205000I125000J0D01*
G01*
X9796500Y205000D01*
G75*
G02*
X9921500Y80000I0J-125000D01*
G01*
X9921500Y-170000D01*
G75*
G02*
X9796500Y-295000I-125000J0D01*
G01*
X8471500Y-295000D01*
G75*
G02*
X8346500Y-170000I0J125000D01*
G01*
G37*
G36*
G01*
X8346500Y480000D02*
X8346500Y730000D01*
G75*
G02*
X8471500Y855000I125000J0D01*
G01*
X9796500Y855000D01*
G75*
G02*
X9921500Y730000I0J-125000D01*
G01*
X9921500Y480000D01*
G75*
G02*
X9796500Y355000I-125000J0D01*
G01*
X8471500Y355000D01*
G75*
G02*
X8346500Y480000I0J125000D01*
G01*
G37*
G36*
G01*
X8346500Y1130000D02*
X8346500Y1380000D01*
G75*
G02*
X8471500Y1505000I125000J0D01*
G01*
X9796500Y1505000D01*
G75*
G02*
X9921500Y1380000I0J-125000D01*
G01*
X9921500Y1130000D01*
G75*
G02*
X9796500Y1005000I-125000J0D01*
G01*
X8471500Y1005000D01*
G75*
G02*
X8346500Y1130000I0J125000D01*
G01*
G37*
G36*
G01*
X8346500Y1780000D02*
X8346500Y2030000D01*
G75*
G02*
X8471500Y2155000I125000J0D01*
G01*
X9796500Y2155000D01*
G75*
G02*
X9921500Y2030000I0J-125000D01*
G01*
X9921500Y1780000D01*
G75*
G02*
X9796500Y1655000I-125000J0D01*
G01*
X8471500Y1655000D01*
G75*
G02*
X8346500Y1780000I0J125000D01*
G01*
G37*
G36*
G01*
X8346500Y2430000D02*
X8346500Y2680000D01*
G75*
G02*
X8471500Y2805000I125000J0D01*
G01*
X9796500Y2805000D01*
G75*
G02*
X9921500Y2680000I0J-125000D01*
G01*
X9921500Y2430000D01*
G75*
G02*
X9796500Y2305000I-125000J0D01*
G01*
X8471500Y2305000D01*
G75*
G02*
X8346500Y2430000I0J125000D01*
G01*
G37*
G36*
G01*
X8346500Y3080000D02*
X8346500Y3330000D01*
G75*
G02*
X8471500Y3455000I125000J0D01*
G01*
X9796500Y3455000D01*
G75*
G02*
X9921500Y3330000I0J-125000D01*
G01*
X9921500Y3080000D01*
G75*
G02*
X9796500Y2955000I-125000J0D01*
G01*
X8471500Y2955000D01*
G75*
G02*
X8346500Y3080000I0J125000D01*
G01*
G37*
%TD*%
D23*
%TO.C,U7*%
X-5195000Y825500D03*
G36*
G01*
X-6925000Y2275500D02*
X-7275000Y2275500D01*
G75*
G02*
X-7450000Y2450500I0J175000D01*
G01*
X-7450000Y4150500D01*
G75*
G02*
X-7275000Y4325500I175000J0D01*
G01*
X-6925000Y4325500D01*
G75*
G02*
X-6750000Y4150500I0J-175000D01*
G01*
X-6750000Y2450500D01*
G75*
G02*
X-6925000Y2275500I-175000J0D01*
G01*
G37*
G36*
G01*
X-5655000Y2275500D02*
X-6005000Y2275500D01*
G75*
G02*
X-6180000Y2450500I0J175000D01*
G01*
X-6180000Y4150500D01*
G75*
G02*
X-6005000Y4325500I175000J0D01*
G01*
X-5655000Y4325500D01*
G75*
G02*
X-5480000Y4150500I0J-175000D01*
G01*
X-5480000Y2450500D01*
G75*
G02*
X-5655000Y2275500I-175000J0D01*
G01*
G37*
G36*
G01*
X-4385000Y2275500D02*
X-4735000Y2275500D01*
G75*
G02*
X-4910000Y2450500I0J175000D01*
G01*
X-4910000Y4150500D01*
G75*
G02*
X-4735000Y4325500I175000J0D01*
G01*
X-4385000Y4325500D01*
G75*
G02*
X-4210000Y4150500I0J-175000D01*
G01*
X-4210000Y2450500D01*
G75*
G02*
X-4385000Y2275500I-175000J0D01*
G01*
G37*
G36*
G01*
X-3115000Y2275500D02*
X-3465000Y2275500D01*
G75*
G02*
X-3640000Y2450500I0J175000D01*
G01*
X-3640000Y4150500D01*
G75*
G02*
X-3465000Y4325500I175000J0D01*
G01*
X-3115000Y4325500D01*
G75*
G02*
X-2940000Y4150500I0J-175000D01*
G01*
X-2940000Y2450500D01*
G75*
G02*
X-3115000Y2275500I-175000J0D01*
G01*
G37*
G36*
G01*
X-3115000Y-2674500D02*
X-3465000Y-2674500D01*
G75*
G02*
X-3640000Y-2499500I0J175000D01*
G01*
X-3640000Y-799500D01*
G75*
G02*
X-3465000Y-624500I175000J0D01*
G01*
X-3115000Y-624500D01*
G75*
G02*
X-2940000Y-799500I0J-175000D01*
G01*
X-2940000Y-2499500D01*
G75*
G02*
X-3115000Y-2674500I-175000J0D01*
G01*
G37*
G36*
G01*
X-4385000Y-2674500D02*
X-4735000Y-2674500D01*
G75*
G02*
X-4910000Y-2499500I0J175000D01*
G01*
X-4910000Y-799500D01*
G75*
G02*
X-4735000Y-624500I175000J0D01*
G01*
X-4385000Y-624500D01*
G75*
G02*
X-4210000Y-799500I0J-175000D01*
G01*
X-4210000Y-2499500D01*
G75*
G02*
X-4385000Y-2674500I-175000J0D01*
G01*
G37*
G36*
G01*
X-5655000Y-2674500D02*
X-6005000Y-2674500D01*
G75*
G02*
X-6180000Y-2499500I0J175000D01*
G01*
X-6180000Y-799500D01*
G75*
G02*
X-6005000Y-624500I175000J0D01*
G01*
X-5655000Y-624500D01*
G75*
G02*
X-5480000Y-799500I0J-175000D01*
G01*
X-5480000Y-2499500D01*
G75*
G02*
X-5655000Y-2674500I-175000J0D01*
G01*
G37*
G36*
G01*
X-6925000Y-2674500D02*
X-7275000Y-2674500D01*
G75*
G02*
X-7450000Y-2499500I0J175000D01*
G01*
X-7450000Y-799500D01*
G75*
G02*
X-7275000Y-624500I175000J0D01*
G01*
X-6925000Y-624500D01*
G75*
G02*
X-6750000Y-799500I0J-175000D01*
G01*
X-6750000Y-2499500D01*
G75*
G02*
X-6925000Y-2674500I-175000J0D01*
G01*
G37*
%TD*%
D24*
%TO.C,U6*%
X14224000Y-16063000D03*
X14224000Y-15113000D03*
X14224000Y-17013000D03*
X11524000Y-17013000D03*
X11524000Y-16063000D03*
X11524000Y-15113000D03*
%TD*%
%TO.C,U5*%
X8175000Y17827000D03*
X8175000Y16877000D03*
X8175000Y18777000D03*
X10875000Y18777000D03*
X10875000Y17827000D03*
X10875000Y16877000D03*
%TD*%
D25*
%TO.C,U4*%
X-14539000Y-14257000D03*
X-13589000Y-14257000D03*
X-15489000Y-14257000D03*
X-15489000Y-11557000D03*
X-14539000Y-11557000D03*
X-13589000Y-11557000D03*
%TD*%
D26*
%TO.C,U3*%
X-635000Y10668000D03*
G36*
G01*
X815000Y12398000D02*
X815000Y12748000D01*
G75*
G02*
X990000Y12923000I175000J0D01*
G01*
X2690000Y12923000D01*
G75*
G02*
X2865000Y12748000I0J-175000D01*
G01*
X2865000Y12398000D01*
G75*
G02*
X2690000Y12223000I-175000J0D01*
G01*
X990000Y12223000D01*
G75*
G02*
X815000Y12398000I0J175000D01*
G01*
G37*
G36*
G01*
X815000Y11128000D02*
X815000Y11478000D01*
G75*
G02*
X990000Y11653000I175000J0D01*
G01*
X2690000Y11653000D01*
G75*
G02*
X2865000Y11478000I0J-175000D01*
G01*
X2865000Y11128000D01*
G75*
G02*
X2690000Y10953000I-175000J0D01*
G01*
X990000Y10953000D01*
G75*
G02*
X815000Y11128000I0J175000D01*
G01*
G37*
G36*
G01*
X815000Y9858000D02*
X815000Y10208000D01*
G75*
G02*
X990000Y10383000I175000J0D01*
G01*
X2690000Y10383000D01*
G75*
G02*
X2865000Y10208000I0J-175000D01*
G01*
X2865000Y9858000D01*
G75*
G02*
X2690000Y9683000I-175000J0D01*
G01*
X990000Y9683000D01*
G75*
G02*
X815000Y9858000I0J175000D01*
G01*
G37*
G36*
G01*
X815000Y8588000D02*
X815000Y8938000D01*
G75*
G02*
X990000Y9113000I175000J0D01*
G01*
X2690000Y9113000D01*
G75*
G02*
X2865000Y8938000I0J-175000D01*
G01*
X2865000Y8588000D01*
G75*
G02*
X2690000Y8413000I-175000J0D01*
G01*
X990000Y8413000D01*
G75*
G02*
X815000Y8588000I0J175000D01*
G01*
G37*
G36*
G01*
X-4135000Y8588000D02*
X-4135000Y8938000D01*
G75*
G02*
X-3960000Y9113000I175000J0D01*
G01*
X-2260000Y9113000D01*
G75*
G02*
X-2085000Y8938000I0J-175000D01*
G01*
X-2085000Y8588000D01*
G75*
G02*
X-2260000Y8413000I-175000J0D01*
G01*
X-3960000Y8413000D01*
G75*
G02*
X-4135000Y8588000I0J175000D01*
G01*
G37*
G36*
G01*
X-4135000Y9858000D02*
X-4135000Y10208000D01*
G75*
G02*
X-3960000Y10383000I175000J0D01*
G01*
X-2260000Y10383000D01*
G75*
G02*
X-2085000Y10208000I0J-175000D01*
G01*
X-2085000Y9858000D01*
G75*
G02*
X-2260000Y9683000I-175000J0D01*
G01*
X-3960000Y9683000D01*
G75*
G02*
X-4135000Y9858000I0J175000D01*
G01*
G37*
G36*
G01*
X-4135000Y11128000D02*
X-4135000Y11478000D01*
G75*
G02*
X-3960000Y11653000I175000J0D01*
G01*
X-2260000Y11653000D01*
G75*
G02*
X-2085000Y11478000I0J-175000D01*
G01*
X-2085000Y11128000D01*
G75*
G02*
X-2260000Y10953000I-175000J0D01*
G01*
X-3960000Y10953000D01*
G75*
G02*
X-4135000Y11128000I0J175000D01*
G01*
G37*
G36*
G01*
X-4135000Y12398000D02*
X-4135000Y12748000D01*
G75*
G02*
X-3960000Y12923000I175000J0D01*
G01*
X-2260000Y12923000D01*
G75*
G02*
X-2085000Y12748000I0J-175000D01*
G01*
X-2085000Y12398000D01*
G75*
G02*
X-2260000Y12223000I-175000J0D01*
G01*
X-3960000Y12223000D01*
G75*
G02*
X-4135000Y12398000I0J175000D01*
G01*
G37*
%TD*%
D27*
%TO.C,U2*%
X3810000Y24892000D03*
%TD*%
%TO.C,U1*%
X-8382000Y24257000D03*
%TD*%
%TO.C,R8*%
G36*
G01*
X1369000Y224262D02*
X1369000Y-732262D01*
G75*
G02*
X1097262Y-1004000I-271738J0D01*
G01*
X390738Y-1004000D01*
G75*
G02*
X119000Y-732262I0J271738D01*
G01*
X119000Y224262D01*
G75*
G02*
X390738Y496000I271738J0D01*
G01*
X1097262Y496000D01*
G75*
G02*
X1369000Y224262I0J-271738D01*
G01*
G37*
G36*
G01*
X3419000Y224262D02*
X3419000Y-732262D01*
G75*
G02*
X3147262Y-1004000I-271738J0D01*
G01*
X2440738Y-1004000D01*
G75*
G02*
X2169000Y-732262I0J271738D01*
G01*
X2169000Y224262D01*
G75*
G02*
X2440738Y496000I271738J0D01*
G01*
X3147262Y496000D01*
G75*
G02*
X3419000Y224262I0J-271738D01*
G01*
G37*
%TD*%
%TO.C,R7*%
G36*
G01*
X1369000Y2573762D02*
X1369000Y1617238D01*
G75*
G02*
X1097262Y1345500I-271738J0D01*
G01*
X390738Y1345500D01*
G75*
G02*
X119000Y1617238I0J271738D01*
G01*
X119000Y2573762D01*
G75*
G02*
X390738Y2845500I271738J0D01*
G01*
X1097262Y2845500D01*
G75*
G02*
X1369000Y2573762I0J-271738D01*
G01*
G37*
G36*
G01*
X3419000Y2573762D02*
X3419000Y1617238D01*
G75*
G02*
X3147262Y1345500I-271738J0D01*
G01*
X2440738Y1345500D01*
G75*
G02*
X2169000Y1617238I0J271738D01*
G01*
X2169000Y2573762D01*
G75*
G02*
X2440738Y2845500I271738J0D01*
G01*
X3147262Y2845500D01*
G75*
G02*
X3419000Y2573762I0J-271738D01*
G01*
G37*
%TD*%
%TO.C,R6*%
G36*
G01*
X-5598000Y-4093738D02*
X-5598000Y-5050262D01*
G75*
G02*
X-5869738Y-5322000I-271738J0D01*
G01*
X-6576262Y-5322000D01*
G75*
G02*
X-6848000Y-5050262I0J271738D01*
G01*
X-6848000Y-4093738D01*
G75*
G02*
X-6576262Y-3822000I271738J0D01*
G01*
X-5869738Y-3822000D01*
G75*
G02*
X-5598000Y-4093738I0J-271738D01*
G01*
G37*
G36*
G01*
X-3548000Y-4093738D02*
X-3548000Y-5050262D01*
G75*
G02*
X-3819738Y-5322000I-271738J0D01*
G01*
X-4526262Y-5322000D01*
G75*
G02*
X-4798000Y-5050262I0J271738D01*
G01*
X-4798000Y-4093738D01*
G75*
G02*
X-4526262Y-3822000I271738J0D01*
G01*
X-3819738Y-3822000D01*
G75*
G02*
X-3548000Y-4093738I0J-271738D01*
G01*
G37*
%TD*%
%TO.C,R3*%
G36*
G01*
X-10569000Y-1172738D02*
X-10569000Y-2129262D01*
G75*
G02*
X-10840738Y-2401000I-271738J0D01*
G01*
X-11547262Y-2401000D01*
G75*
G02*
X-11819000Y-2129262I0J271738D01*
G01*
X-11819000Y-1172738D01*
G75*
G02*
X-11547262Y-901000I271738J0D01*
G01*
X-10840738Y-901000D01*
G75*
G02*
X-10569000Y-1172738I0J-271738D01*
G01*
G37*
G36*
G01*
X-8519000Y-1172738D02*
X-8519000Y-2129262D01*
G75*
G02*
X-8790738Y-2401000I-271738J0D01*
G01*
X-9497262Y-2401000D01*
G75*
G02*
X-9769000Y-2129262I0J271738D01*
G01*
X-9769000Y-1172738D01*
G75*
G02*
X-9497262Y-901000I271738J0D01*
G01*
X-8790738Y-901000D01*
G75*
G02*
X-8519000Y-1172738I0J-271738D01*
G01*
G37*
%TD*%
D28*
%TO.C,J2*%
X26289000Y27305000D03*
D29*
X21209000Y22225000D03*
D28*
X16129000Y27305000D03*
D29*
X18669000Y22225000D03*
%TD*%
D30*
%TO.C,J1*%
X-16706000Y-4421000D03*
X-16706000Y1119000D03*
X-16706000Y-1651000D03*
%TD*%
%TO.C,CD9*%
G36*
G01*
X16520000Y-3653262D02*
X16520000Y-2696738D01*
G75*
G02*
X16791738Y-2425000I271738J0D01*
G01*
X17498262Y-2425000D01*
G75*
G02*
X17770000Y-2696738I0J-271738D01*
G01*
X17770000Y-3653262D01*
G75*
G02*
X17498262Y-3925000I-271738J0D01*
G01*
X16791738Y-3925000D01*
G75*
G02*
X16520000Y-3653262I0J271738D01*
G01*
G37*
G36*
G01*
X14470000Y-3653262D02*
X14470000Y-2696738D01*
G75*
G02*
X14741738Y-2425000I271738J0D01*
G01*
X15448262Y-2425000D01*
G75*
G02*
X15720000Y-2696738I0J-271738D01*
G01*
X15720000Y-3653262D01*
G75*
G02*
X15448262Y-3925000I-271738J0D01*
G01*
X14741738Y-3925000D01*
G75*
G02*
X14470000Y-3653262I0J271738D01*
G01*
G37*
%TD*%
%TO.C,CD8*%
G36*
G01*
X16538000Y-5685262D02*
X16538000Y-4728738D01*
G75*
G02*
X16809738Y-4457000I271738J0D01*
G01*
X17516262Y-4457000D01*
G75*
G02*
X17788000Y-4728738I0J-271738D01*
G01*
X17788000Y-5685262D01*
G75*
G02*
X17516262Y-5957000I-271738J0D01*
G01*
X16809738Y-5957000D01*
G75*
G02*
X16538000Y-5685262I0J271738D01*
G01*
G37*
G36*
G01*
X14488000Y-5685262D02*
X14488000Y-4728738D01*
G75*
G02*
X14759738Y-4457000I271738J0D01*
G01*
X15466262Y-4457000D01*
G75*
G02*
X15738000Y-4728738I0J-271738D01*
G01*
X15738000Y-5685262D01*
G75*
G02*
X15466262Y-5957000I-271738J0D01*
G01*
X14759738Y-5957000D01*
G75*
G02*
X14488000Y-5685262I0J271738D01*
G01*
G37*
%TD*%
%TO.C,CD7*%
G36*
G01*
X10897000Y8538738D02*
X10897000Y9495262D01*
G75*
G02*
X11168738Y9767000I271738J0D01*
G01*
X11875262Y9767000D01*
G75*
G02*
X12147000Y9495262I0J-271738D01*
G01*
X12147000Y8538738D01*
G75*
G02*
X11875262Y8267000I-271738J0D01*
G01*
X11168738Y8267000D01*
G75*
G02*
X10897000Y8538738I0J271738D01*
G01*
G37*
G36*
G01*
X8847000Y8538738D02*
X8847000Y9495262D01*
G75*
G02*
X9118738Y9767000I271738J0D01*
G01*
X9825262Y9767000D01*
G75*
G02*
X10097000Y9495262I0J-271738D01*
G01*
X10097000Y8538738D01*
G75*
G02*
X9825262Y8267000I-271738J0D01*
G01*
X9118738Y8267000D01*
G75*
G02*
X8847000Y8538738I0J271738D01*
G01*
G37*
%TD*%
%TO.C,CD6*%
G36*
G01*
X16520000Y-7717262D02*
X16520000Y-6760738D01*
G75*
G02*
X16791738Y-6489000I271738J0D01*
G01*
X17498262Y-6489000D01*
G75*
G02*
X17770000Y-6760738I0J-271738D01*
G01*
X17770000Y-7717262D01*
G75*
G02*
X17498262Y-7989000I-271738J0D01*
G01*
X16791738Y-7989000D01*
G75*
G02*
X16520000Y-7717262I0J271738D01*
G01*
G37*
G36*
G01*
X14470000Y-7717262D02*
X14470000Y-6760738D01*
G75*
G02*
X14741738Y-6489000I271738J0D01*
G01*
X15448262Y-6489000D01*
G75*
G02*
X15720000Y-6760738I0J-271738D01*
G01*
X15720000Y-7717262D01*
G75*
G02*
X15448262Y-7989000I-271738J0D01*
G01*
X14741738Y-7989000D01*
G75*
G02*
X14470000Y-7717262I0J271738D01*
G01*
G37*
%TD*%
%TO.C,CD5*%
G36*
G01*
X10932000Y6506738D02*
X10932000Y7463262D01*
G75*
G02*
X11203738Y7735000I271738J0D01*
G01*
X11910262Y7735000D01*
G75*
G02*
X12182000Y7463262I0J-271738D01*
G01*
X12182000Y6506738D01*
G75*
G02*
X11910262Y6235000I-271738J0D01*
G01*
X11203738Y6235000D01*
G75*
G02*
X10932000Y6506738I0J271738D01*
G01*
G37*
G36*
G01*
X8882000Y6506738D02*
X8882000Y7463262D01*
G75*
G02*
X9153738Y7735000I271738J0D01*
G01*
X9860262Y7735000D01*
G75*
G02*
X10132000Y7463262I0J-271738D01*
G01*
X10132000Y6506738D01*
G75*
G02*
X9860262Y6235000I-271738J0D01*
G01*
X9153738Y6235000D01*
G75*
G02*
X8882000Y6506738I0J271738D01*
G01*
G37*
%TD*%
%TO.C,CD4*%
G36*
G01*
X10941000Y4474738D02*
X10941000Y5431262D01*
G75*
G02*
X11212738Y5703000I271738J0D01*
G01*
X11919262Y5703000D01*
G75*
G02*
X12191000Y5431262I0J-271738D01*
G01*
X12191000Y4474738D01*
G75*
G02*
X11919262Y4203000I-271738J0D01*
G01*
X11212738Y4203000D01*
G75*
G02*
X10941000Y4474738I0J271738D01*
G01*
G37*
G36*
G01*
X8891000Y4474738D02*
X8891000Y5431262D01*
G75*
G02*
X9162738Y5703000I271738J0D01*
G01*
X9869262Y5703000D01*
G75*
G02*
X10141000Y5431262I0J-271738D01*
G01*
X10141000Y4474738D01*
G75*
G02*
X9869262Y4203000I-271738J0D01*
G01*
X9162738Y4203000D01*
G75*
G02*
X8891000Y4474738I0J271738D01*
G01*
G37*
%TD*%
%TO.C,CD3*%
G36*
G01*
X10442000Y-3653262D02*
X10442000Y-2696738D01*
G75*
G02*
X10713738Y-2425000I271738J0D01*
G01*
X11420262Y-2425000D01*
G75*
G02*
X11692000Y-2696738I0J-271738D01*
G01*
X11692000Y-3653262D01*
G75*
G02*
X11420262Y-3925000I-271738J0D01*
G01*
X10713738Y-3925000D01*
G75*
G02*
X10442000Y-3653262I0J271738D01*
G01*
G37*
G36*
G01*
X8392000Y-3653262D02*
X8392000Y-2696738D01*
G75*
G02*
X8663738Y-2425000I271738J0D01*
G01*
X9370262Y-2425000D01*
G75*
G02*
X9642000Y-2696738I0J-271738D01*
G01*
X9642000Y-3653262D01*
G75*
G02*
X9370262Y-3925000I-271738J0D01*
G01*
X8663738Y-3925000D01*
G75*
G02*
X8392000Y-3653262I0J271738D01*
G01*
G37*
%TD*%
%TO.C,CD2*%
G36*
G01*
X10424000Y-5685262D02*
X10424000Y-4728738D01*
G75*
G02*
X10695738Y-4457000I271738J0D01*
G01*
X11402262Y-4457000D01*
G75*
G02*
X11674000Y-4728738I0J-271738D01*
G01*
X11674000Y-5685262D01*
G75*
G02*
X11402262Y-5957000I-271738J0D01*
G01*
X10695738Y-5957000D01*
G75*
G02*
X10424000Y-5685262I0J271738D01*
G01*
G37*
G36*
G01*
X8374000Y-5685262D02*
X8374000Y-4728738D01*
G75*
G02*
X8645738Y-4457000I271738J0D01*
G01*
X9352262Y-4457000D01*
G75*
G02*
X9624000Y-4728738I0J-271738D01*
G01*
X9624000Y-5685262D01*
G75*
G02*
X9352262Y-5957000I-271738J0D01*
G01*
X8645738Y-5957000D01*
G75*
G02*
X8374000Y-5685262I0J271738D01*
G01*
G37*
%TD*%
%TO.C,CD1*%
G36*
G01*
X10442000Y-7717262D02*
X10442000Y-6760738D01*
G75*
G02*
X10713738Y-6489000I271738J0D01*
G01*
X11420262Y-6489000D01*
G75*
G02*
X11692000Y-6760738I0J-271738D01*
G01*
X11692000Y-7717262D01*
G75*
G02*
X11420262Y-7989000I-271738J0D01*
G01*
X10713738Y-7989000D01*
G75*
G02*
X10442000Y-7717262I0J271738D01*
G01*
G37*
G36*
G01*
X8392000Y-7717262D02*
X8392000Y-6760738D01*
G75*
G02*
X8663738Y-6489000I271738J0D01*
G01*
X9370262Y-6489000D01*
G75*
G02*
X9642000Y-6760738I0J-271738D01*
G01*
X9642000Y-7717262D01*
G75*
G02*
X9370262Y-7989000I-271738J0D01*
G01*
X8663738Y-7989000D01*
G75*
G02*
X8392000Y-7717262I0J271738D01*
G01*
G37*
%TD*%
%TO.C,C12*%
G36*
G01*
X4521738Y-1552000D02*
X5478262Y-1552000D01*
G75*
G02*
X5750000Y-1823738I0J-271738D01*
G01*
X5750000Y-2530262D01*
G75*
G02*
X5478262Y-2802000I-271738J0D01*
G01*
X4521738Y-2802000D01*
G75*
G02*
X4250000Y-2530262I0J271738D01*
G01*
X4250000Y-1823738D01*
G75*
G02*
X4521738Y-1552000I271738J0D01*
G01*
G37*
G36*
G01*
X4521738Y498000D02*
X5478262Y498000D01*
G75*
G02*
X5750000Y226262I0J-271738D01*
G01*
X5750000Y-480262D01*
G75*
G02*
X5478262Y-752000I-271738J0D01*
G01*
X4521738Y-752000D01*
G75*
G02*
X4250000Y-480262I0J271738D01*
G01*
X4250000Y226262D01*
G75*
G02*
X4521738Y498000I271738J0D01*
G01*
G37*
%TD*%
%TO.C,C11*%
G36*
G01*
X4521738Y2600000D02*
X5478262Y2600000D01*
G75*
G02*
X5750000Y2328262I0J-271738D01*
G01*
X5750000Y1621738D01*
G75*
G02*
X5478262Y1350000I-271738J0D01*
G01*
X4521738Y1350000D01*
G75*
G02*
X4250000Y1621738I0J271738D01*
G01*
X4250000Y2328262D01*
G75*
G02*
X4521738Y2600000I271738J0D01*
G01*
G37*
G36*
G01*
X4521738Y4650000D02*
X5478262Y4650000D01*
G75*
G02*
X5750000Y4378262I0J-271738D01*
G01*
X5750000Y3671738D01*
G75*
G02*
X5478262Y3400000I-271738J0D01*
G01*
X4521738Y3400000D01*
G75*
G02*
X4250000Y3671738I0J271738D01*
G01*
X4250000Y4378262D01*
G75*
G02*
X4521738Y4650000I271738J0D01*
G01*
G37*
%TD*%
%TO.C,C9*%
G36*
G01*
X7864000Y-13237738D02*
X7864000Y-14194262D01*
G75*
G02*
X7592262Y-14466000I-271738J0D01*
G01*
X6885738Y-14466000D01*
G75*
G02*
X6614000Y-14194262I0J271738D01*
G01*
X6614000Y-13237738D01*
G75*
G02*
X6885738Y-12966000I271738J0D01*
G01*
X7592262Y-12966000D01*
G75*
G02*
X7864000Y-13237738I0J-271738D01*
G01*
G37*
G36*
G01*
X9914000Y-13237738D02*
X9914000Y-14194262D01*
G75*
G02*
X9642262Y-14466000I-271738J0D01*
G01*
X8935738Y-14466000D01*
G75*
G02*
X8664000Y-14194262I0J271738D01*
G01*
X8664000Y-13237738D01*
G75*
G02*
X8935738Y-12966000I271738J0D01*
G01*
X9642262Y-12966000D01*
G75*
G02*
X9914000Y-13237738I0J-271738D01*
G01*
G37*
%TD*%
%TO.C,C8*%
G36*
G01*
X8372000Y14956262D02*
X8372000Y13999738D01*
G75*
G02*
X8100262Y13728000I-271738J0D01*
G01*
X7393738Y13728000D01*
G75*
G02*
X7122000Y13999738I0J271738D01*
G01*
X7122000Y14956262D01*
G75*
G02*
X7393738Y15228000I271738J0D01*
G01*
X8100262Y15228000D01*
G75*
G02*
X8372000Y14956262I0J-271738D01*
G01*
G37*
G36*
G01*
X10422000Y14956262D02*
X10422000Y13999738D01*
G75*
G02*
X10150262Y13728000I-271738J0D01*
G01*
X9443738Y13728000D01*
G75*
G02*
X9172000Y13999738I0J271738D01*
G01*
X9172000Y14956262D01*
G75*
G02*
X9443738Y15228000I271738J0D01*
G01*
X10150262Y15228000D01*
G75*
G02*
X10422000Y14956262I0J-271738D01*
G01*
G37*
%TD*%
%TO.C,C7*%
G36*
G01*
X-11400262Y-13236000D02*
X-10443738Y-13236000D01*
G75*
G02*
X-10172000Y-13507738I0J-271738D01*
G01*
X-10172000Y-14214262D01*
G75*
G02*
X-10443738Y-14486000I-271738J0D01*
G01*
X-11400262Y-14486000D01*
G75*
G02*
X-11672000Y-14214262I0J271738D01*
G01*
X-11672000Y-13507738D01*
G75*
G02*
X-11400262Y-13236000I271738J0D01*
G01*
G37*
G36*
G01*
X-11400262Y-11186000D02*
X-10443738Y-11186000D01*
G75*
G02*
X-10172000Y-11457738I0J-271738D01*
G01*
X-10172000Y-12164262D01*
G75*
G02*
X-10443738Y-12436000I-271738J0D01*
G01*
X-11400262Y-12436000D01*
G75*
G02*
X-11672000Y-12164262I0J271738D01*
G01*
X-11672000Y-11457738D01*
G75*
G02*
X-11400262Y-11186000I271738J0D01*
G01*
G37*
%TD*%
%TO.C,C6*%
G36*
G01*
X5471000Y9808738D02*
X5471000Y10765262D01*
G75*
G02*
X5742738Y11037000I271738J0D01*
G01*
X6449262Y11037000D01*
G75*
G02*
X6721000Y10765262I0J-271738D01*
G01*
X6721000Y9808738D01*
G75*
G02*
X6449262Y9537000I-271738J0D01*
G01*
X5742738Y9537000D01*
G75*
G02*
X5471000Y9808738I0J271738D01*
G01*
G37*
G36*
G01*
X3421000Y9808738D02*
X3421000Y10765262D01*
G75*
G02*
X3692738Y11037000I271738J0D01*
G01*
X4399262Y11037000D01*
G75*
G02*
X4671000Y10765262I0J-271738D01*
G01*
X4671000Y9808738D01*
G75*
G02*
X4399262Y9537000I-271738J0D01*
G01*
X3692738Y9537000D01*
G75*
G02*
X3421000Y9808738I0J271738D01*
G01*
G37*
%TD*%
%TO.C,C5*%
G36*
G01*
X8157738Y-17427000D02*
X9114262Y-17427000D01*
G75*
G02*
X9386000Y-17698738I0J-271738D01*
G01*
X9386000Y-18405262D01*
G75*
G02*
X9114262Y-18677000I-271738J0D01*
G01*
X8157738Y-18677000D01*
G75*
G02*
X7886000Y-18405262I0J271738D01*
G01*
X7886000Y-17698738D01*
G75*
G02*
X8157738Y-17427000I271738J0D01*
G01*
G37*
G36*
G01*
X8157738Y-15377000D02*
X9114262Y-15377000D01*
G75*
G02*
X9386000Y-15648738I0J-271738D01*
G01*
X9386000Y-16355262D01*
G75*
G02*
X9114262Y-16627000I-271738J0D01*
G01*
X8157738Y-16627000D01*
G75*
G02*
X7886000Y-16355262I0J271738D01*
G01*
X7886000Y-15648738D01*
G75*
G02*
X8157738Y-15377000I271738J0D01*
G01*
G37*
%TD*%
%TO.C,C4*%
G36*
G01*
X12983738Y16228000D02*
X13940262Y16228000D01*
G75*
G02*
X14212000Y15956262I0J-271738D01*
G01*
X14212000Y15249738D01*
G75*
G02*
X13940262Y14978000I-271738J0D01*
G01*
X12983738Y14978000D01*
G75*
G02*
X12712000Y15249738I0J271738D01*
G01*
X12712000Y15956262D01*
G75*
G02*
X12983738Y16228000I271738J0D01*
G01*
G37*
G36*
G01*
X12983738Y18278000D02*
X13940262Y18278000D01*
G75*
G02*
X14212000Y18006262I0J-271738D01*
G01*
X14212000Y17299738D01*
G75*
G02*
X13940262Y17028000I-271738J0D01*
G01*
X12983738Y17028000D01*
G75*
G02*
X12712000Y17299738I0J271738D01*
G01*
X12712000Y18006262D01*
G75*
G02*
X12983738Y18278000I271738J0D01*
G01*
G37*
%TD*%
%TO.C,C3*%
G36*
G01*
X-6066262Y8862000D02*
X-5109738Y8862000D01*
G75*
G02*
X-4838000Y8590262I0J-271738D01*
G01*
X-4838000Y7883738D01*
G75*
G02*
X-5109738Y7612000I-271738J0D01*
G01*
X-6066262Y7612000D01*
G75*
G02*
X-6338000Y7883738I0J271738D01*
G01*
X-6338000Y8590262D01*
G75*
G02*
X-6066262Y8862000I271738J0D01*
G01*
G37*
G36*
G01*
X-6066262Y10912000D02*
X-5109738Y10912000D01*
G75*
G02*
X-4838000Y10640262I0J-271738D01*
G01*
X-4838000Y9933738D01*
G75*
G02*
X-5109738Y9662000I-271738J0D01*
G01*
X-6066262Y9662000D01*
G75*
G02*
X-6338000Y9933738I0J271738D01*
G01*
X-6338000Y10640262D01*
G75*
G02*
X-6066262Y10912000I271738J0D01*
G01*
G37*
%TD*%
%TO.C,C2*%
G36*
G01*
X-13833000Y-9749262D02*
X-13833000Y-8792738D01*
G75*
G02*
X-13561262Y-8521000I271738J0D01*
G01*
X-12854738Y-8521000D01*
G75*
G02*
X-12583000Y-8792738I0J-271738D01*
G01*
X-12583000Y-9749262D01*
G75*
G02*
X-12854738Y-10021000I-271738J0D01*
G01*
X-13561262Y-10021000D01*
G75*
G02*
X-13833000Y-9749262I0J271738D01*
G01*
G37*
G36*
G01*
X-15883000Y-9749262D02*
X-15883000Y-8792738D01*
G75*
G02*
X-15611262Y-8521000I271738J0D01*
G01*
X-14904738Y-8521000D01*
G75*
G02*
X-14633000Y-8792738I0J-271738D01*
G01*
X-14633000Y-9749262D01*
G75*
G02*
X-14904738Y-10021000I-271738J0D01*
G01*
X-15611262Y-10021000D01*
G75*
G02*
X-15883000Y-9749262I0J271738D01*
G01*
G37*
%TD*%
%TO.C,C1*%
G36*
G01*
X-8225262Y8862000D02*
X-7268738Y8862000D01*
G75*
G02*
X-6997000Y8590262I0J-271738D01*
G01*
X-6997000Y7883738D01*
G75*
G02*
X-7268738Y7612000I-271738J0D01*
G01*
X-8225262Y7612000D01*
G75*
G02*
X-8497000Y7883738I0J271738D01*
G01*
X-8497000Y8590262D01*
G75*
G02*
X-8225262Y8862000I271738J0D01*
G01*
G37*
G36*
G01*
X-8225262Y10912000D02*
X-7268738Y10912000D01*
G75*
G02*
X-6997000Y10640262I0J-271738D01*
G01*
X-6997000Y9933738D01*
G75*
G02*
X-7268738Y9662000I-271738J0D01*
G01*
X-8225262Y9662000D01*
G75*
G02*
X-8497000Y9933738I0J271738D01*
G01*
X-8497000Y10640262D01*
G75*
G02*
X-8225262Y10912000I271738J0D01*
G01*
G37*
%TD*%
M02*
