%TF.GenerationSoftware,KiCad,Pcbnew,(5.1.6-0-10_14)*%
%TF.CreationDate,2020-09-18T15:54:44-07:00*%
%TF.ProjectId,AD7766_dev_board,41443737-3636-45f6-9465-765f626f6172,rev?*%
%TF.SameCoordinates,Original*%
%TF.FileFunction,Copper,L2,Bot*%
%TF.FilePolarity,Positive*%
%FSLAX46Y46*%
G04 Gerber Fmt 4.6, Leading zero omitted, Abs format (unit mm)*
G04 Created by KiCad (PCBNEW (5.1.6-0-10_14)) date 2020-09-18 15:54:44*
%MOMM*%
%LPD*%
G01*
G04 APERTURE LIST*
%TA.AperFunction,ComponentPad*%
%ADD10C,2.000000*%
%TD*%
%TA.AperFunction,ComponentPad*%
%ADD11O,1.700000X1.700000*%
%TD*%
%TA.AperFunction,ComponentPad*%
%ADD12R,1.700000X1.700000*%
%TD*%
%TA.AperFunction,ComponentPad*%
%ADD13C,1.300000*%
%TD*%
%TA.AperFunction,ComponentPad*%
%ADD14C,1.600000*%
%TD*%
%TA.AperFunction,ComponentPad*%
%ADD15R,1.300000X1.300000*%
%TD*%
%TA.AperFunction,ComponentPad*%
%ADD16R,1.600000X1.600000*%
%TD*%
%TA.AperFunction,ComponentPad*%
%ADD17C,10.160000*%
%TD*%
%TA.AperFunction,ComponentPad*%
%ADD18O,3.500000X7.000000*%
%TD*%
%TA.AperFunction,ComponentPad*%
%ADD19O,1.600000X2.500000*%
%TD*%
%TA.AperFunction,Conductor*%
%ADD20R,0.950000X0.460000*%
%TD*%
%TA.AperFunction,SMDPad,CuDef*%
%ADD21R,5.080000X1.600000*%
%TD*%
%TA.AperFunction,ViaPad*%
%ADD22C,0.800000*%
%TD*%
%TA.AperFunction,Conductor*%
%ADD23C,0.250000*%
%TD*%
%TA.AperFunction,Conductor*%
%ADD24C,1.000000*%
%TD*%
%TA.AperFunction,Conductor*%
%ADD25C,0.254000*%
%TD*%
G04 APERTURE END LIST*
%TO.P,C13,2*%
%TO.N,GND*%
%TA.AperFunction,SMDPad,CuDef*%
G36*
G01*
X-9476000Y1720001D02*
X-9476000Y819999D01*
G75*
G02*
X-9725999Y570000I-249999J0D01*
G01*
X-10376001Y570000D01*
G75*
G02*
X-10626000Y819999I0J249999D01*
G01*
X-10626000Y1720001D01*
G75*
G02*
X-10376001Y1970000I249999J0D01*
G01*
X-9725999Y1970000D01*
G75*
G02*
X-9476000Y1720001I0J-249999D01*
G01*
G37*
%TD.AperFunction*%
%TO.P,C13,1*%
%TO.N,/VREF*%
%TA.AperFunction,SMDPad,CuDef*%
G36*
G01*
X-7426000Y1720001D02*
X-7426000Y819999D01*
G75*
G02*
X-7675999Y570000I-249999J0D01*
G01*
X-8326001Y570000D01*
G75*
G02*
X-8576000Y819999I0J249999D01*
G01*
X-8576000Y1720001D01*
G75*
G02*
X-8326001Y1970000I249999J0D01*
G01*
X-7675999Y1970000D01*
G75*
G02*
X-7426000Y1720001I0J-249999D01*
G01*
G37*
%TD.AperFunction*%
%TD*%
D10*
%TO.P,TP19,1*%
%TO.N,/VIN-*%
X2286000Y-3048000D03*
%TD*%
%TO.P,TP18,1*%
%TO.N,/VIN+*%
X2286000Y4826000D03*
%TD*%
%TO.P,TP14,1*%
%TO.N,/VO+*%
X-1651000Y-7112000D03*
%TD*%
%TO.P,TP12,1*%
%TO.N,/VO-*%
X-1270000Y6096000D03*
%TD*%
%TO.P,TP8,1*%
%TO.N,/EXTSYNC*%
X23749000Y14351000D03*
%TD*%
%TO.P,TP7,1*%
%TO.N,/DVDD*%
X13081000Y-11430000D03*
%TD*%
%TO.P,TP6,1*%
%TO.N,/AVDD*%
X4826000Y13335000D03*
%TD*%
%TO.P,TP5,1*%
%TO.N,/VOS2*%
X-8890000Y-4318000D03*
%TD*%
%TO.P,TP4,1*%
%TO.N,+5V*%
X-4191000Y-12827000D03*
%TD*%
%TO.P,TP3,1*%
%TO.N,/VOS1*%
X-9652000Y5461000D03*
%TD*%
%TO.P,TP2,1*%
%TO.N,/VREF*%
X-381000Y15367000D03*
%TD*%
%TO.P,TP1,1*%
%TO.N,+7.5V*%
X-10160000Y15367000D03*
%TD*%
D11*
%TO.P,J4,10*%
%TO.N,/MC8*%
X54102000Y-27559000D03*
%TO.P,J4,9*%
%TO.N,/MC7*%
X54102000Y-25019000D03*
%TO.P,J4,8*%
%TO.N,/MC6*%
X54102000Y-22479000D03*
%TO.P,J4,7*%
%TO.N,/MC5*%
X54102000Y-19939000D03*
%TO.P,J4,6*%
%TO.N,/MC4*%
X54102000Y-17399000D03*
%TO.P,J4,5*%
%TO.N,/MC3*%
X54102000Y-14859000D03*
%TO.P,J4,4*%
%TO.N,/MC2*%
X54102000Y-12319000D03*
%TO.P,J4,3*%
%TO.N,/MC1*%
X54102000Y-9779000D03*
%TO.P,J4,2*%
%TO.N,Net-(J4-Pad2)*%
X54102000Y-7239000D03*
D12*
%TO.P,J4,1*%
%TO.N,/VDRIVE*%
X54102000Y-4699000D03*
%TD*%
D11*
%TO.P,J3,6*%
%TO.N,/EXT6*%
X54229000Y-127000D03*
%TO.P,J3,5*%
%TO.N,/EXT5*%
X54229000Y2413000D03*
%TO.P,J3,4*%
%TO.N,/EXT4*%
X54229000Y4953000D03*
%TO.P,J3,3*%
%TO.N,/EXT3*%
X54229000Y7493000D03*
%TO.P,J3,2*%
%TO.N,/EXT2*%
X54229000Y10033000D03*
D12*
%TO.P,J3,1*%
%TO.N,/EXT1*%
X54229000Y12573000D03*
%TD*%
D13*
%TO.P,U9,67*%
%TO.N,Net-(U9-Pad67)*%
X41402000Y28480000D03*
%TO.P,U9,66*%
%TO.N,Net-(U9-Pad66)*%
X38862000Y28480000D03*
D14*
%TO.P,U9,54*%
%TO.N,Net-(U9-Pad54)*%
X45212000Y-16510000D03*
%TO.P,U9,53*%
%TO.N,Net-(U9-Pad53)*%
X42672000Y-16510000D03*
%TO.P,U9,52*%
%TO.N,Net-(U9-Pad52)*%
X40132000Y-16510000D03*
%TO.P,U9,51*%
%TO.N,Net-(U9-Pad51)*%
X37592000Y-16510000D03*
%TO.P,U9,50*%
%TO.N,Net-(U9-Pad50)*%
X35052000Y-16510000D03*
D13*
%TO.P,U9,62*%
%TO.N,Net-(U9-Pad62)*%
X41313600Y16240000D03*
%TO.P,U9,63*%
%TO.N,Net-(U9-Pad63)*%
X41313600Y14240000D03*
%TO.P,U9,64*%
%TO.N,Net-(U9-Pad64)*%
X43313600Y14240000D03*
%TO.P,U9,61*%
%TO.N,Net-(U9-Pad61)*%
X43313600Y16240000D03*
%TO.P,U9,65*%
%TO.N,Net-(U9-Pad65)*%
X45313600Y14240000D03*
D15*
%TO.P,U9,60*%
%TO.N,Net-(U9-Pad60)*%
X45313600Y16240000D03*
D14*
%TO.P,U9,17*%
%TO.N,Net-(U9-Pad17)*%
X32512000Y-11430000D03*
%TO.P,U9,18*%
%TO.N,Net-(U9-Pad18)*%
X32512000Y-13970000D03*
%TO.P,U9,19*%
%TO.N,Net-(U9-Pad19)*%
X32512000Y-16510000D03*
%TO.P,U9,20*%
%TO.N,Net-(U9-Pad20)*%
X32512000Y-19050000D03*
%TO.P,U9,16*%
%TO.N,Net-(U9-Pad16)*%
X32512000Y-8890000D03*
%TO.P,U9,15*%
%TO.N,/VDRIVE*%
X32512000Y-6350000D03*
%TO.P,U9,14*%
%TO.N,/MISO*%
X32512000Y-3810000D03*
%TO.P,U9,21*%
%TO.N,Net-(U9-Pad21)*%
X32512000Y-21590000D03*
%TO.P,U9,22*%
%TO.N,Net-(U9-Pad22)*%
X32512000Y-24130000D03*
%TO.P,U9,23*%
%TO.N,Net-(U9-Pad23)*%
X32512000Y-26670000D03*
%TO.P,U9,24*%
%TO.N,Net-(U9-Pad24)*%
X32512000Y-29210000D03*
%TO.P,U9,25*%
%TO.N,Net-(U9-Pad25)*%
X47752000Y-29210000D03*
%TO.P,U9,26*%
%TO.N,/MC8*%
X47752000Y-26670000D03*
%TO.P,U9,27*%
%TO.N,/MC7*%
X47752000Y-24130000D03*
%TO.P,U9,28*%
%TO.N,/MC6*%
X47752000Y-21590000D03*
%TO.P,U9,29*%
%TO.N,/MC5*%
X47752000Y-19050000D03*
%TO.P,U9,30*%
%TO.N,/MC4*%
X47752000Y-16510000D03*
%TO.P,U9,31*%
%TO.N,/MC3*%
X47752000Y-13970000D03*
%TO.P,U9,32*%
%TO.N,/MC2*%
X47752000Y-11430000D03*
%TO.P,U9,33*%
%TO.N,/MC1*%
X47752000Y-8890000D03*
%TO.P,U9,34*%
%TO.N,Net-(J4-Pad2)*%
X47752000Y-6350000D03*
%TO.P,U9,13*%
%TO.N,/MOSI*%
X32512000Y-1270000D03*
%TO.P,U9,12*%
%TO.N,Net-(U9-Pad12)*%
X32512000Y1270000D03*
%TO.P,U9,11*%
%TO.N,/CS*%
X32512000Y3810000D03*
%TO.P,U9,10*%
%TO.N,/DRDY*%
X32512000Y6350000D03*
%TO.P,U9,9*%
%TO.N,/MCLK*%
X32512000Y8890000D03*
%TO.P,U9,8*%
%TO.N,/SYNCPD*%
X32512000Y11430000D03*
%TO.P,U9,7*%
%TO.N,/EXTSYNC*%
X32512000Y13970000D03*
%TO.P,U9,6*%
%TO.N,Net-(U9-Pad6)*%
X32512000Y16510000D03*
%TO.P,U9,5*%
%TO.N,Net-(U9-Pad5)*%
X32512000Y19050000D03*
%TO.P,U9,4*%
%TO.N,Net-(U9-Pad4)*%
X32512000Y21590000D03*
%TO.P,U9,3*%
%TO.N,Net-(U9-Pad3)*%
X32512000Y24130000D03*
%TO.P,U9,2*%
%TO.N,Net-(U9-Pad2)*%
X32512000Y26670000D03*
D16*
%TO.P,U9,1*%
%TO.N,GND*%
X32512000Y29210000D03*
D14*
%TO.P,U9,35*%
%TO.N,/SCK*%
X47752000Y-3810000D03*
%TO.P,U9,36*%
%TO.N,/EXT6*%
X47752000Y-1270000D03*
%TO.P,U9,37*%
%TO.N,/EXT5*%
X47752000Y1270000D03*
%TO.P,U9,38*%
%TO.N,/EXT4*%
X47752000Y3810000D03*
%TO.P,U9,39*%
%TO.N,/EXT3*%
X47752000Y6350000D03*
%TO.P,U9,40*%
%TO.N,/EXT2*%
X47752000Y8890000D03*
%TO.P,U9,41*%
%TO.N,/EXT1*%
X47752000Y11430000D03*
%TO.P,U9,42*%
%TO.N,Net-(U9-Pad42)*%
X47752000Y13970000D03*
%TO.P,U9,43*%
%TO.N,Net-(U9-Pad43)*%
X47752000Y16510000D03*
%TO.P,U9,44*%
%TO.N,Net-(U9-Pad44)*%
X47752000Y19050000D03*
%TO.P,U9,45*%
%TO.N,Net-(U9-Pad45)*%
X47752000Y21590000D03*
%TO.P,U9,46*%
%TO.N,Net-(U9-Pad46)*%
X47752000Y24130000D03*
%TO.P,U9,47*%
%TO.N,Net-(U9-Pad47)*%
X47752000Y26670000D03*
%TO.P,U9,48*%
%TO.N,Net-(U9-Pad48)*%
X47752000Y29210000D03*
D16*
%TO.P,U9,55*%
%TO.N,Net-(U9-Pad55)*%
X35562800Y22910800D03*
D14*
%TO.P,U9,56*%
%TO.N,Net-(U9-Pad56)*%
X35562800Y20370800D03*
%TO.P,U9,57*%
%TO.N,Net-(U9-Pad57)*%
X35562800Y17830800D03*
%TO.P,U9,58*%
%TO.N,Net-(U9-Pad58)*%
X35562800Y15290800D03*
%TO.P,U9,59*%
%TO.N,Net-(U9-Pad59)*%
X35562800Y12750800D03*
%TO.P,U9,49*%
%TO.N,Net-(U9-Pad49)*%
X45212000Y26670000D03*
%TD*%
D17*
%TO.P,U2,1*%
%TO.N,GND*%
X-1270000Y24130000D03*
%TD*%
%TO.P,U1,1*%
%TO.N,Net-(D1-Pad1)*%
X-13716000Y23876000D03*
%TD*%
%TO.P,R5,2*%
%TO.N,GND*%
%TA.AperFunction,SMDPad,CuDef*%
G36*
G01*
X-3486999Y-321000D02*
X-4387001Y-321000D01*
G75*
G02*
X-4637000Y-71001I0J249999D01*
G01*
X-4637000Y579001D01*
G75*
G02*
X-4387001Y829000I249999J0D01*
G01*
X-3486999Y829000D01*
G75*
G02*
X-3237000Y579001I0J-249999D01*
G01*
X-3237000Y-71001D01*
G75*
G02*
X-3486999Y-321000I-249999J0D01*
G01*
G37*
%TD.AperFunction*%
%TO.P,R5,1*%
%TO.N,/VOS2*%
%TA.AperFunction,SMDPad,CuDef*%
G36*
G01*
X-3486999Y-2371000D02*
X-4387001Y-2371000D01*
G75*
G02*
X-4637000Y-2121001I0J249999D01*
G01*
X-4637000Y-1470999D01*
G75*
G02*
X-4387001Y-1221000I249999J0D01*
G01*
X-3486999Y-1221000D01*
G75*
G02*
X-3237000Y-1470999I0J-249999D01*
G01*
X-3237000Y-2121001D01*
G75*
G02*
X-3486999Y-2371000I-249999J0D01*
G01*
G37*
%TD.AperFunction*%
%TD*%
%TO.P,R4,2*%
%TO.N,/VOS2*%
%TA.AperFunction,SMDPad,CuDef*%
G36*
G01*
X-6537001Y-1212000D02*
X-5636999Y-1212000D01*
G75*
G02*
X-5387000Y-1461999I0J-249999D01*
G01*
X-5387000Y-2112001D01*
G75*
G02*
X-5636999Y-2362000I-249999J0D01*
G01*
X-6537001Y-2362000D01*
G75*
G02*
X-6787000Y-2112001I0J249999D01*
G01*
X-6787000Y-1461999D01*
G75*
G02*
X-6537001Y-1212000I249999J0D01*
G01*
G37*
%TD.AperFunction*%
%TO.P,R4,1*%
%TO.N,/VREF*%
%TA.AperFunction,SMDPad,CuDef*%
G36*
G01*
X-6537001Y838000D02*
X-5636999Y838000D01*
G75*
G02*
X-5387000Y588001I0J-249999D01*
G01*
X-5387000Y-62001D01*
G75*
G02*
X-5636999Y-312000I-249999J0D01*
G01*
X-6537001Y-312000D01*
G75*
G02*
X-6787000Y-62001I0J249999D01*
G01*
X-6787000Y588001D01*
G75*
G02*
X-6537001Y838000I249999J0D01*
G01*
G37*
%TD.AperFunction*%
%TD*%
%TO.P,R2,2*%
%TO.N,GND*%
%TA.AperFunction,SMDPad,CuDef*%
G36*
G01*
X-4387001Y2734000D02*
X-3486999Y2734000D01*
G75*
G02*
X-3237000Y2484001I0J-249999D01*
G01*
X-3237000Y1833999D01*
G75*
G02*
X-3486999Y1584000I-249999J0D01*
G01*
X-4387001Y1584000D01*
G75*
G02*
X-4637000Y1833999I0J249999D01*
G01*
X-4637000Y2484001D01*
G75*
G02*
X-4387001Y2734000I249999J0D01*
G01*
G37*
%TD.AperFunction*%
%TO.P,R2,1*%
%TO.N,/VOS1*%
%TA.AperFunction,SMDPad,CuDef*%
G36*
G01*
X-4387001Y4784000D02*
X-3486999Y4784000D01*
G75*
G02*
X-3237000Y4534001I0J-249999D01*
G01*
X-3237000Y3883999D01*
G75*
G02*
X-3486999Y3634000I-249999J0D01*
G01*
X-4387001Y3634000D01*
G75*
G02*
X-4637000Y3883999I0J249999D01*
G01*
X-4637000Y4534001D01*
G75*
G02*
X-4387001Y4784000I249999J0D01*
G01*
G37*
%TD.AperFunction*%
%TD*%
%TO.P,R1,2*%
%TO.N,/VOS1*%
%TA.AperFunction,SMDPad,CuDef*%
G36*
G01*
X-5645999Y3634000D02*
X-6546001Y3634000D01*
G75*
G02*
X-6796000Y3883999I0J249999D01*
G01*
X-6796000Y4534001D01*
G75*
G02*
X-6546001Y4784000I249999J0D01*
G01*
X-5645999Y4784000D01*
G75*
G02*
X-5396000Y4534001I0J-249999D01*
G01*
X-5396000Y3883999D01*
G75*
G02*
X-5645999Y3634000I-249999J0D01*
G01*
G37*
%TD.AperFunction*%
%TO.P,R1,1*%
%TO.N,/VREF*%
%TA.AperFunction,SMDPad,CuDef*%
G36*
G01*
X-5645999Y1584000D02*
X-6546001Y1584000D01*
G75*
G02*
X-6796000Y1833999I0J249999D01*
G01*
X-6796000Y2484001D01*
G75*
G02*
X-6546001Y2734000I249999J0D01*
G01*
X-5645999Y2734000D01*
G75*
G02*
X-5396000Y2484001I0J-249999D01*
G01*
X-5396000Y1833999D01*
G75*
G02*
X-5645999Y1584000I-249999J0D01*
G01*
G37*
%TD.AperFunction*%
%TD*%
D18*
%TO.P,J2,2*%
%TO.N,GND*%
X26289000Y27305000D03*
D19*
%TO.P,J2,1*%
%TO.N,Net-(J2-Pad1)*%
X21209000Y22225000D03*
D18*
%TO.P,J2,2*%
%TO.N,GND*%
X16129000Y27305000D03*
D19*
X18669000Y22225000D03*
%TD*%
D20*
%TO.N,GND*%
%TO.C,J1*%
X-13716000Y-4507000D03*
X-13716000Y1205000D03*
D21*
%TD*%
%TO.P,J1,2*%
%TO.N,GND*%
X-16706000Y-4421000D03*
%TO.P,J1,2*%
%TO.N,GND*%
X-16706000Y1119000D03*
%TD*%
%TO.P,C10,2*%
%TO.N,GND*%
%TA.AperFunction,SMDPad,CuDef*%
G36*
G01*
X-2716000Y-5022001D02*
X-2716000Y-4121999D01*
G75*
G02*
X-2466001Y-3872000I249999J0D01*
G01*
X-1815999Y-3872000D01*
G75*
G02*
X-1566000Y-4121999I0J-249999D01*
G01*
X-1566000Y-5022001D01*
G75*
G02*
X-1815999Y-5272000I-249999J0D01*
G01*
X-2466001Y-5272000D01*
G75*
G02*
X-2716000Y-5022001I0J249999D01*
G01*
G37*
%TD.AperFunction*%
%TO.P,C10,1*%
%TO.N,+5V*%
%TA.AperFunction,SMDPad,CuDef*%
G36*
G01*
X-4766000Y-5022001D02*
X-4766000Y-4121999D01*
G75*
G02*
X-4516001Y-3872000I249999J0D01*
G01*
X-3865999Y-3872000D01*
G75*
G02*
X-3616000Y-4121999I0J-249999D01*
G01*
X-3616000Y-5022001D01*
G75*
G02*
X-3865999Y-5272000I-249999J0D01*
G01*
X-4516001Y-5272000D01*
G75*
G02*
X-4766000Y-5022001I0J249999D01*
G01*
G37*
%TD.AperFunction*%
%TD*%
D22*
%TO.N,GND*%
X-5846710Y5783993D03*
X-4572000Y5715000D03*
X-10922000Y-14859000D03*
X-15494000Y-15621000D03*
X-8001000Y-13335000D03*
X-8001000Y-10414000D03*
X-5588000Y7112000D03*
X7112000Y10287000D03*
X-13208000Y1143000D03*
X-13208000Y-4572000D03*
X-11811000Y-9271000D03*
X13462000Y14478000D03*
X6731000Y18796000D03*
X6604000Y14478000D03*
X8255000Y11811000D03*
X11049000Y11811000D03*
X-7620000Y7112000D03*
X7747000Y-120000D03*
X4953000Y-3429000D03*
X4924068Y5051068D03*
X16309743Y-41885D03*
X12192000Y-3175000D03*
X12192000Y-5207000D03*
X12192000Y-7239000D03*
X18288000Y-7239000D03*
X18288000Y-5207000D03*
X18288000Y-3175000D03*
%TO.N,/VREF*%
X-2159000Y3810000D03*
%TO.N,+5V*%
X-4572000Y-3175000D03*
%TO.N,GND*%
X7620000Y-11049000D03*
X10668000Y-11049000D03*
X15494000Y-17018000D03*
X27940000Y17399000D03*
X11684000Y10668000D03*
X11684000Y3556000D03*
X7620000Y2032000D03*
X-4064000Y7874000D03*
X2413000Y8001000D03*
X7239000Y-14859000D03*
X7239000Y-18034000D03*
X-12319000Y8763000D03*
%TO.N,+7.5V*%
X19812000Y5588000D03*
X18796000Y-10160000D03*
%TO.N,/VOS1*%
X-7239000Y4953000D03*
%TO.N,/VOS2*%
X-5842000Y-3175000D03*
%TO.N,/MCLK*%
X25654000Y1830000D03*
%TO.N,/DRDY*%
X22860000Y508000D03*
%TD*%
D23*
%TO.N,GND*%
X-3937000Y2159000D02*
X-3937000Y254000D01*
X-16682000Y1143000D02*
X-16706000Y1119000D01*
X-13208000Y1143000D02*
X-16682000Y1143000D01*
X-16555000Y-4572000D02*
X-16706000Y-4421000D01*
X-13208000Y-4572000D02*
X-16555000Y-4572000D01*
%TO.N,/VREF*%
X-6096000Y272000D02*
X-6087000Y263000D01*
X-7493000Y1270000D02*
X-6096000Y1270000D01*
X-6096000Y1270000D02*
X-6096000Y272000D01*
X-6096000Y2159000D02*
X-6096000Y1270000D01*
X-2909990Y3059010D02*
X-2159000Y3810000D01*
X-5195990Y3059010D02*
X-2909990Y3059010D01*
X-6096000Y2159000D02*
X-5195990Y3059010D01*
%TO.N,+5V*%
X-4191000Y-3556000D02*
X-4572000Y-3175000D01*
X-4191000Y-4572000D02*
X-4191000Y-3556000D01*
%TO.N,GND*%
X12954000Y24130000D02*
X16129000Y27305000D01*
X-1270000Y24130000D02*
X12954000Y24130000D01*
D24*
%TO.N,+7.5V*%
X19812000Y5588000D02*
X19812000Y-9144000D01*
X19812000Y-9144000D02*
X18796000Y-10160000D01*
D23*
%TO.N,/VOS1*%
X-6840000Y4953000D02*
X-6096000Y4209000D01*
X-7239000Y4953000D02*
X-6840000Y4953000D01*
X-6096000Y4209000D02*
X-3937000Y4209000D01*
%TO.N,/VOS2*%
X-6087000Y-2930000D02*
X-5842000Y-3175000D01*
X-6087000Y-1787000D02*
X-6087000Y-2930000D01*
X-6078000Y-1796000D02*
X-6087000Y-1787000D01*
X-3937000Y-1796000D02*
X-6078000Y-1796000D01*
X-7747000Y-3175000D02*
X-8890000Y-4318000D01*
X-5842000Y-3175000D02*
X-7747000Y-3175000D01*
%TO.N,/MCLK*%
X32512000Y8688000D02*
X32512000Y8890000D01*
X25654000Y1830000D02*
X32512000Y8688000D01*
%TO.N,/DRDY*%
X25632000Y508000D02*
X26405000Y1281000D01*
X22860000Y508000D02*
X25632000Y508000D01*
X26405000Y1281000D02*
X30861000Y5737000D01*
X25654000Y530000D02*
X26405000Y1281000D01*
X31899000Y5737000D02*
X32512000Y6350000D01*
X30861000Y5737000D02*
X31899000Y5737000D01*
%TO.N,/EXT6*%
X48895000Y-127000D02*
X47752000Y-1270000D01*
X54229000Y-127000D02*
X48895000Y-127000D01*
%TO.N,/EXT5*%
X48895000Y2413000D02*
X47752000Y1270000D01*
X54229000Y2413000D02*
X48895000Y2413000D01*
%TO.N,/EXT4*%
X53086000Y3810000D02*
X54229000Y4953000D01*
X47752000Y3810000D02*
X53086000Y3810000D01*
%TO.N,/EXT3*%
X48895000Y7493000D02*
X47752000Y6350000D01*
X54229000Y7493000D02*
X48895000Y7493000D01*
%TO.N,/EXT2*%
X53086000Y8890000D02*
X54229000Y10033000D01*
X47752000Y8890000D02*
X53086000Y8890000D01*
%TO.N,/EXT1*%
X53086000Y11430000D02*
X54229000Y12573000D01*
X47752000Y11430000D02*
X53086000Y11430000D01*
%TO.N,/MC8*%
X48641000Y-27559000D02*
X47752000Y-26670000D01*
X54102000Y-27559000D02*
X48641000Y-27559000D01*
%TO.N,/MC7*%
X53213000Y-24130000D02*
X54102000Y-25019000D01*
X47752000Y-24130000D02*
X53213000Y-24130000D01*
%TO.N,/MC6*%
X53213000Y-21590000D02*
X54102000Y-22479000D01*
X47752000Y-21590000D02*
X53213000Y-21590000D01*
%TO.N,/MC5*%
X53213000Y-19050000D02*
X54102000Y-19939000D01*
X47752000Y-19050000D02*
X53213000Y-19050000D01*
%TO.N,/MC4*%
X53213000Y-16510000D02*
X54102000Y-17399000D01*
X47752000Y-16510000D02*
X53213000Y-16510000D01*
%TO.N,/MC3*%
X53213000Y-13970000D02*
X54102000Y-14859000D01*
X47752000Y-13970000D02*
X53213000Y-13970000D01*
%TO.N,/MC2*%
X48641000Y-12319000D02*
X47752000Y-11430000D01*
X54102000Y-12319000D02*
X48641000Y-12319000D01*
%TO.N,/MC1*%
X53213000Y-8890000D02*
X54102000Y-9779000D01*
X47752000Y-8890000D02*
X53213000Y-8890000D01*
%TO.N,Net-(J4-Pad2)*%
X48641000Y-7239000D02*
X47752000Y-6350000D01*
X54102000Y-7239000D02*
X48641000Y-7239000D01*
%TD*%
D25*
%TO.N,GND*%
G36*
X12065000Y1648226D02*
G01*
X-14283942Y-30353000D01*
X-19660000Y-30353000D01*
X-19660000Y-12665967D01*
X-5826000Y-12665967D01*
X-5826000Y-12988033D01*
X-5763168Y-13303912D01*
X-5639918Y-13601463D01*
X-5460987Y-13869252D01*
X-5233252Y-14096987D01*
X-4965463Y-14275918D01*
X-4667912Y-14399168D01*
X-4352033Y-14462000D01*
X-4029967Y-14462000D01*
X-3714088Y-14399168D01*
X-3416537Y-14275918D01*
X-3148748Y-14096987D01*
X-2921013Y-13869252D01*
X-2742082Y-13601463D01*
X-2618832Y-13303912D01*
X-2556000Y-12988033D01*
X-2556000Y-12665967D01*
X-2618832Y-12350088D01*
X-2742082Y-12052537D01*
X-2921013Y-11784748D01*
X-3148748Y-11557013D01*
X-3416537Y-11378082D01*
X-3714088Y-11254832D01*
X-4029967Y-11192000D01*
X-4352033Y-11192000D01*
X-4667912Y-11254832D01*
X-4965463Y-11378082D01*
X-5233252Y-11557013D01*
X-5460987Y-11784748D01*
X-5639918Y-12052537D01*
X-5763168Y-12350088D01*
X-5826000Y-12665967D01*
X-19660000Y-12665967D01*
X-19660000Y-5702702D01*
X-19600494Y-5751537D01*
X-19490180Y-5810502D01*
X-19370482Y-5846812D01*
X-19246000Y-5859072D01*
X-16991750Y-5856000D01*
X-16833000Y-5697250D01*
X-16833000Y-4548000D01*
X-16579000Y-4548000D01*
X-16579000Y-5697250D01*
X-16420250Y-5856000D01*
X-14166000Y-5859072D01*
X-14041518Y-5846812D01*
X-13921820Y-5810502D01*
X-13811506Y-5751537D01*
X-13714815Y-5672185D01*
X-13635463Y-5575494D01*
X-13576498Y-5465180D01*
X-13540188Y-5345482D01*
X-13532709Y-5269541D01*
X-13430250Y-5372000D01*
X-13253779Y-5374944D01*
X-13129077Y-5365179D01*
X-13008676Y-5331274D01*
X-12897203Y-5274531D01*
X-12798942Y-5197131D01*
X-12717669Y-5102048D01*
X-12656507Y-4992937D01*
X-12617807Y-4873990D01*
X-12606000Y-4768750D01*
X-12764750Y-4610000D01*
X-13589000Y-4610000D01*
X-13589000Y-4648750D01*
X-13689750Y-4548000D01*
X-16579000Y-4548000D01*
X-16833000Y-4548000D01*
X-16853000Y-4548000D01*
X-16853000Y-4294000D01*
X-16833000Y-4294000D01*
X-16833000Y-3144750D01*
X-16579000Y-3144750D01*
X-16579000Y-4294000D01*
X-14777250Y-4294000D01*
X-14667250Y-4404000D01*
X-13843000Y-4404000D01*
X-13843000Y-4360000D01*
X-13589000Y-4360000D01*
X-13589000Y-4404000D01*
X-12764750Y-4404000D01*
X-12606000Y-4245250D01*
X-12617807Y-4140010D01*
X-12656507Y-4021063D01*
X-12717669Y-3911952D01*
X-12798942Y-3816869D01*
X-12897203Y-3739469D01*
X-13008676Y-3682726D01*
X-13129077Y-3648821D01*
X-13253779Y-3639056D01*
X-13430250Y-3642000D01*
X-13528641Y-3740391D01*
X-13527928Y-3621000D01*
X-13540188Y-3496518D01*
X-13576498Y-3376820D01*
X-13635463Y-3266506D01*
X-13714815Y-3169815D01*
X-13811506Y-3090463D01*
X-13921820Y-3031498D01*
X-14041518Y-2995188D01*
X-14166000Y-2982928D01*
X-16420250Y-2986000D01*
X-16579000Y-3144750D01*
X-16833000Y-3144750D01*
X-16991750Y-2986000D01*
X-19246000Y-2982928D01*
X-19370482Y-2995188D01*
X-19490180Y-3031498D01*
X-19600494Y-3090463D01*
X-19660000Y-3139298D01*
X-19660000Y-162702D01*
X-19600494Y-211537D01*
X-19490180Y-270502D01*
X-19370482Y-306812D01*
X-19246000Y-319072D01*
X-16991750Y-316000D01*
X-16833000Y-157250D01*
X-16833000Y992000D01*
X-16579000Y992000D01*
X-16579000Y-157250D01*
X-16420250Y-316000D01*
X-14166000Y-319072D01*
X-14041518Y-306812D01*
X-13921820Y-270502D01*
X-13811506Y-211537D01*
X-13714815Y-132185D01*
X-13635463Y-35494D01*
X-13576498Y74820D01*
X-13540188Y194518D01*
X-13527928Y319000D01*
X-13528641Y438391D01*
X-13430250Y340000D01*
X-13253779Y337056D01*
X-13129077Y346821D01*
X-13008676Y380726D01*
X-12897203Y437469D01*
X-12798942Y514869D01*
X-12751819Y570000D01*
X-11264072Y570000D01*
X-11251812Y445518D01*
X-11215502Y325820D01*
X-11156537Y215506D01*
X-11077185Y118815D01*
X-10980494Y39463D01*
X-10870180Y-19502D01*
X-10750482Y-55812D01*
X-10626000Y-68072D01*
X-10336750Y-65000D01*
X-10178000Y93750D01*
X-10178000Y1143000D01*
X-11102250Y1143000D01*
X-11261000Y984250D01*
X-11264072Y570000D01*
X-12751819Y570000D01*
X-12717669Y609952D01*
X-12656507Y719063D01*
X-12617807Y838010D01*
X-12606000Y943250D01*
X-12764750Y1102000D01*
X-13589000Y1102000D01*
X-13589000Y1058000D01*
X-13843000Y1058000D01*
X-13843000Y1102000D01*
X-14667250Y1102000D01*
X-14777250Y992000D01*
X-16579000Y992000D01*
X-16833000Y992000D01*
X-16853000Y992000D01*
X-16853000Y1246000D01*
X-16833000Y1246000D01*
X-16833000Y2395250D01*
X-16579000Y2395250D01*
X-16579000Y1246000D01*
X-13689750Y1246000D01*
X-13589000Y1346750D01*
X-13589000Y1308000D01*
X-12764750Y1308000D01*
X-12606000Y1466750D01*
X-12617807Y1571990D01*
X-12656507Y1690937D01*
X-12717669Y1800048D01*
X-12798942Y1895131D01*
X-12893989Y1970000D01*
X-11264072Y1970000D01*
X-11261000Y1555750D01*
X-11102250Y1397000D01*
X-10178000Y1397000D01*
X-10178000Y2446250D01*
X-10336750Y2605000D01*
X-10626000Y2608072D01*
X-10750482Y2595812D01*
X-10870180Y2559502D01*
X-10980494Y2500537D01*
X-11077185Y2421185D01*
X-11156537Y2324494D01*
X-11215502Y2214180D01*
X-11251812Y2094482D01*
X-11264072Y1970000D01*
X-12893989Y1970000D01*
X-12897203Y1972531D01*
X-13008676Y2029274D01*
X-13129077Y2063179D01*
X-13253779Y2072944D01*
X-13430250Y2070000D01*
X-13532709Y1967541D01*
X-13540188Y2043482D01*
X-13576498Y2163180D01*
X-13635463Y2273494D01*
X-13714815Y2370185D01*
X-13811506Y2449537D01*
X-13921820Y2508502D01*
X-14041518Y2544812D01*
X-14166000Y2557072D01*
X-16420250Y2554000D01*
X-16579000Y2395250D01*
X-16833000Y2395250D01*
X-16991750Y2554000D01*
X-19246000Y2557072D01*
X-19370482Y2544812D01*
X-19490180Y2508502D01*
X-19600494Y2449537D01*
X-19660000Y2400702D01*
X-19660000Y5622033D01*
X-11287000Y5622033D01*
X-11287000Y5299967D01*
X-11224168Y4984088D01*
X-11100918Y4686537D01*
X-10921987Y4418748D01*
X-10694252Y4191013D01*
X-10426463Y4012082D01*
X-10128912Y3888832D01*
X-9813033Y3826000D01*
X-9490967Y3826000D01*
X-9175088Y3888832D01*
X-8877537Y4012082D01*
X-8609748Y4191013D01*
X-8382013Y4418748D01*
X-8231368Y4644203D01*
X-8156205Y4462744D01*
X-8042937Y4293226D01*
X-7898774Y4149063D01*
X-7729256Y4035795D01*
X-7540898Y3957774D01*
X-7434072Y3936525D01*
X-7434072Y3883999D01*
X-7417008Y3710745D01*
X-7366472Y3544149D01*
X-7284405Y3390613D01*
X-7173962Y3256038D01*
X-7086184Y3184000D01*
X-7173962Y3111962D01*
X-7284405Y2977387D01*
X-7366472Y2823851D01*
X-7417008Y2657255D01*
X-7425831Y2567676D01*
X-7502745Y2591008D01*
X-7675999Y2608072D01*
X-8326001Y2608072D01*
X-8499255Y2591008D01*
X-8665851Y2540472D01*
X-8819387Y2458405D01*
X-8953962Y2347962D01*
X-8959342Y2341406D01*
X-9024815Y2421185D01*
X-9121506Y2500537D01*
X-9231820Y2559502D01*
X-9351518Y2595812D01*
X-9476000Y2608072D01*
X-9765250Y2605000D01*
X-9924000Y2446250D01*
X-9924000Y1397000D01*
X-9904000Y1397000D01*
X-9904000Y1143000D01*
X-9924000Y1143000D01*
X-9924000Y93750D01*
X-9765250Y-65000D01*
X-9476000Y-68072D01*
X-9351518Y-55812D01*
X-9231820Y-19502D01*
X-9121506Y39463D01*
X-9024815Y118815D01*
X-8959342Y198594D01*
X-8953962Y192038D01*
X-8819387Y81595D01*
X-8665851Y-472D01*
X-8499255Y-51008D01*
X-8326001Y-68072D01*
X-7675999Y-68072D01*
X-7502745Y-51008D01*
X-7425072Y-27446D01*
X-7425072Y-62001D01*
X-7408008Y-235255D01*
X-7357472Y-401851D01*
X-7275405Y-555387D01*
X-7164962Y-689962D01*
X-7077184Y-762000D01*
X-7164962Y-834038D01*
X-7275405Y-968613D01*
X-7357472Y-1122149D01*
X-7408008Y-1288745D01*
X-7425072Y-1461999D01*
X-7425072Y-2112001D01*
X-7408008Y-2285255D01*
X-7368651Y-2415000D01*
X-7709678Y-2415000D01*
X-7747001Y-2411324D01*
X-7784324Y-2415000D01*
X-7784333Y-2415000D01*
X-7895986Y-2425997D01*
X-8010886Y-2460851D01*
X-8039247Y-2469454D01*
X-8171277Y-2540026D01*
X-8250919Y-2605387D01*
X-8287001Y-2634999D01*
X-8310799Y-2663997D01*
X-8398625Y-2751823D01*
X-8413088Y-2745832D01*
X-8728967Y-2683000D01*
X-9051033Y-2683000D01*
X-9366912Y-2745832D01*
X-9664463Y-2869082D01*
X-9932252Y-3048013D01*
X-10159987Y-3275748D01*
X-10338918Y-3543537D01*
X-10462168Y-3841088D01*
X-10525000Y-4156967D01*
X-10525000Y-4479033D01*
X-10462168Y-4794912D01*
X-10338918Y-5092463D01*
X-10159987Y-5360252D01*
X-9932252Y-5587987D01*
X-9664463Y-5766918D01*
X-9366912Y-5890168D01*
X-9051033Y-5953000D01*
X-8728967Y-5953000D01*
X-8413088Y-5890168D01*
X-8115537Y-5766918D01*
X-7847748Y-5587987D01*
X-7620013Y-5360252D01*
X-7441082Y-5092463D01*
X-7317832Y-4794912D01*
X-7255000Y-4479033D01*
X-7255000Y-4156967D01*
X-7299152Y-3935000D01*
X-6545711Y-3935000D01*
X-6501774Y-3978937D01*
X-6332256Y-4092205D01*
X-6143898Y-4170226D01*
X-5943939Y-4210000D01*
X-5740061Y-4210000D01*
X-5540102Y-4170226D01*
X-5403238Y-4113535D01*
X-5404072Y-4121999D01*
X-5404072Y-5022001D01*
X-5387008Y-5195255D01*
X-5336472Y-5361851D01*
X-5254405Y-5515387D01*
X-5143962Y-5649962D01*
X-5009387Y-5760405D01*
X-4855851Y-5842472D01*
X-4689255Y-5893008D01*
X-4516001Y-5910072D01*
X-3865999Y-5910072D01*
X-3692745Y-5893008D01*
X-3526149Y-5842472D01*
X-3372613Y-5760405D01*
X-3238038Y-5649962D01*
X-3232658Y-5643406D01*
X-3167185Y-5723185D01*
X-3070494Y-5802537D01*
X-2960180Y-5861502D01*
X-2840482Y-5897812D01*
X-2757249Y-5906010D01*
X-2920987Y-6069748D01*
X-3099918Y-6337537D01*
X-3223168Y-6635088D01*
X-3286000Y-6950967D01*
X-3286000Y-7273033D01*
X-3223168Y-7588912D01*
X-3099918Y-7886463D01*
X-2920987Y-8154252D01*
X-2693252Y-8381987D01*
X-2425463Y-8560918D01*
X-2127912Y-8684168D01*
X-1812033Y-8747000D01*
X-1489967Y-8747000D01*
X-1174088Y-8684168D01*
X-876537Y-8560918D01*
X-608748Y-8381987D01*
X-381013Y-8154252D01*
X-202082Y-7886463D01*
X-78832Y-7588912D01*
X-16000Y-7273033D01*
X-16000Y-6950967D01*
X-78832Y-6635088D01*
X-202082Y-6337537D01*
X-381013Y-6069748D01*
X-608748Y-5842013D01*
X-876537Y-5663082D01*
X-1022666Y-5602553D01*
X-976498Y-5516180D01*
X-940188Y-5396482D01*
X-927928Y-5272000D01*
X-931000Y-4857750D01*
X-1089750Y-4699000D01*
X-2014000Y-4699000D01*
X-2014000Y-4719000D01*
X-2268000Y-4719000D01*
X-2268000Y-4699000D01*
X-2288000Y-4699000D01*
X-2288000Y-4445000D01*
X-2268000Y-4445000D01*
X-2268000Y-3395750D01*
X-2014000Y-3395750D01*
X-2014000Y-4445000D01*
X-1089750Y-4445000D01*
X-931000Y-4286250D01*
X-927928Y-3872000D01*
X-940188Y-3747518D01*
X-976498Y-3627820D01*
X-1035463Y-3517506D01*
X-1114815Y-3420815D01*
X-1211506Y-3341463D01*
X-1321820Y-3282498D01*
X-1441518Y-3246188D01*
X-1566000Y-3233928D01*
X-1855250Y-3237000D01*
X-2014000Y-3395750D01*
X-2268000Y-3395750D01*
X-2426750Y-3237000D01*
X-2716000Y-3233928D01*
X-2840482Y-3246188D01*
X-2960180Y-3282498D01*
X-3070494Y-3341463D01*
X-3167185Y-3420815D01*
X-3232658Y-3500594D01*
X-3238038Y-3494038D01*
X-3372613Y-3383595D01*
X-3463903Y-3334799D01*
X-3485454Y-3263753D01*
X-3537000Y-3167319D01*
X-3537000Y-3073061D01*
X-3549728Y-3009072D01*
X-3486999Y-3009072D01*
X-3313745Y-2992008D01*
X-3147149Y-2941472D01*
X-3045178Y-2886967D01*
X651000Y-2886967D01*
X651000Y-3209033D01*
X713832Y-3524912D01*
X837082Y-3822463D01*
X1016013Y-4090252D01*
X1243748Y-4317987D01*
X1511537Y-4496918D01*
X1809088Y-4620168D01*
X2124967Y-4683000D01*
X2447033Y-4683000D01*
X2762912Y-4620168D01*
X3060463Y-4496918D01*
X3328252Y-4317987D01*
X3555987Y-4090252D01*
X3734918Y-3822463D01*
X3858168Y-3524912D01*
X3921000Y-3209033D01*
X3921000Y-2886967D01*
X3858168Y-2571088D01*
X3734918Y-2273537D01*
X3555987Y-2005748D01*
X3328252Y-1778013D01*
X3060463Y-1599082D01*
X2762912Y-1475832D01*
X2447033Y-1413000D01*
X2124967Y-1413000D01*
X1809088Y-1475832D01*
X1511537Y-1599082D01*
X1243748Y-1778013D01*
X1016013Y-2005748D01*
X837082Y-2273537D01*
X713832Y-2571088D01*
X651000Y-2886967D01*
X-3045178Y-2886967D01*
X-2993613Y-2859405D01*
X-2859038Y-2748962D01*
X-2748595Y-2614387D01*
X-2666528Y-2460851D01*
X-2615992Y-2294255D01*
X-2598928Y-2121001D01*
X-2598928Y-1470999D01*
X-2615992Y-1297745D01*
X-2666528Y-1131149D01*
X-2748595Y-977613D01*
X-2859038Y-843038D01*
X-2865594Y-837658D01*
X-2785815Y-772185D01*
X-2706463Y-675494D01*
X-2647498Y-565180D01*
X-2611188Y-445482D01*
X-2598928Y-321000D01*
X-2602000Y-31750D01*
X-2760750Y127000D01*
X-3810000Y127000D01*
X-3810000Y107000D01*
X-4064000Y107000D01*
X-4064000Y127000D01*
X-4084000Y127000D01*
X-4084000Y381000D01*
X-4064000Y381000D01*
X-4064000Y2032000D01*
X-3810000Y2032000D01*
X-3810000Y381000D01*
X-2760750Y381000D01*
X-2602000Y539750D01*
X-2598928Y829000D01*
X-2611188Y953482D01*
X-2647498Y1073180D01*
X-2706463Y1183494D01*
X-2725343Y1206500D01*
X-2706463Y1229506D01*
X-2647498Y1339820D01*
X-2611188Y1459518D01*
X-2598928Y1584000D01*
X-2602000Y1873250D01*
X-2760750Y2032000D01*
X-3810000Y2032000D01*
X-4064000Y2032000D01*
X-4084000Y2032000D01*
X-4084000Y2286000D01*
X-4064000Y2286000D01*
X-4064000Y2299010D01*
X-3810000Y2299010D01*
X-3810000Y2286000D01*
X-2760750Y2286000D01*
X-2726179Y2320571D01*
X-2617743Y2353464D01*
X-2485714Y2424036D01*
X-2369989Y2519009D01*
X-2346187Y2548012D01*
X-2119199Y2775000D01*
X-2057061Y2775000D01*
X-1857102Y2814774D01*
X-1668744Y2892795D01*
X-1499226Y3006063D01*
X-1355063Y3150226D01*
X-1241795Y3319744D01*
X-1163774Y3508102D01*
X-1124000Y3708061D01*
X-1124000Y3911939D01*
X-1163774Y4111898D01*
X-1241795Y4300256D01*
X-1349200Y4461000D01*
X-1108967Y4461000D01*
X-793088Y4523832D01*
X-495537Y4647082D01*
X-227748Y4826013D01*
X-66728Y4987033D01*
X651000Y4987033D01*
X651000Y4664967D01*
X713832Y4349088D01*
X837082Y4051537D01*
X1016013Y3783748D01*
X1243748Y3556013D01*
X1511537Y3377082D01*
X1809088Y3253832D01*
X2124967Y3191000D01*
X2447033Y3191000D01*
X2762912Y3253832D01*
X3060463Y3377082D01*
X3328252Y3556013D01*
X3555987Y3783748D01*
X3734918Y4051537D01*
X3858168Y4349088D01*
X3921000Y4664967D01*
X3921000Y4987033D01*
X3858168Y5302912D01*
X3734918Y5600463D01*
X3555987Y5868252D01*
X3328252Y6095987D01*
X3060463Y6274918D01*
X2762912Y6398168D01*
X2447033Y6461000D01*
X2124967Y6461000D01*
X1809088Y6398168D01*
X1511537Y6274918D01*
X1243748Y6095987D01*
X1016013Y5868252D01*
X837082Y5600463D01*
X713832Y5302912D01*
X651000Y4987033D01*
X-66728Y4987033D01*
X-13Y5053748D01*
X178918Y5321537D01*
X302168Y5619088D01*
X365000Y5934967D01*
X365000Y6257033D01*
X302168Y6572912D01*
X178918Y6870463D01*
X-13Y7138252D01*
X-227748Y7365987D01*
X-495537Y7544918D01*
X-793088Y7668168D01*
X-1108967Y7731000D01*
X-1431033Y7731000D01*
X-1746912Y7668168D01*
X-2044463Y7544918D01*
X-2312252Y7365987D01*
X-2539987Y7138252D01*
X-2718918Y6870463D01*
X-2842168Y6572912D01*
X-2905000Y6257033D01*
X-2905000Y5934967D01*
X-2842168Y5619088D01*
X-2718918Y5321537D01*
X-2539987Y5053748D01*
X-2319576Y4833337D01*
X-2460898Y4805226D01*
X-2625081Y4737219D01*
X-2666528Y4873851D01*
X-2748595Y5027387D01*
X-2859038Y5161962D01*
X-2993613Y5272405D01*
X-3147149Y5354472D01*
X-3313745Y5405008D01*
X-3486999Y5422072D01*
X-4387001Y5422072D01*
X-4560255Y5405008D01*
X-4726851Y5354472D01*
X-4880387Y5272405D01*
X-5014962Y5161962D01*
X-5016500Y5160088D01*
X-5018038Y5161962D01*
X-5152613Y5272405D01*
X-5306149Y5354472D01*
X-5472745Y5405008D01*
X-5645999Y5422072D01*
X-6234271Y5422072D01*
X-6276197Y5463998D01*
X-6299999Y5493001D01*
X-6415724Y5587974D01*
X-6420030Y5590276D01*
X-6435063Y5612774D01*
X-6579226Y5756937D01*
X-6748744Y5870205D01*
X-6937102Y5948226D01*
X-7137061Y5988000D01*
X-7340939Y5988000D01*
X-7540898Y5948226D01*
X-7729256Y5870205D01*
X-7898774Y5756937D01*
X-8019767Y5635944D01*
X-8079832Y5937912D01*
X-8203082Y6235463D01*
X-8382013Y6503252D01*
X-8609748Y6730987D01*
X-8877537Y6909918D01*
X-9175088Y7033168D01*
X-9490967Y7096000D01*
X-9813033Y7096000D01*
X-10128912Y7033168D01*
X-10426463Y6909918D01*
X-10694252Y6730987D01*
X-10921987Y6503252D01*
X-11100918Y6235463D01*
X-11224168Y5937912D01*
X-11287000Y5622033D01*
X-19660000Y5622033D01*
X-19660000Y13496033D01*
X3191000Y13496033D01*
X3191000Y13173967D01*
X3253832Y12858088D01*
X3377082Y12560537D01*
X3556013Y12292748D01*
X3783748Y12065013D01*
X4051537Y11886082D01*
X4349088Y11762832D01*
X4664967Y11700000D01*
X4987033Y11700000D01*
X5302912Y11762832D01*
X5600463Y11886082D01*
X5868252Y12065013D01*
X6095987Y12292748D01*
X6274918Y12560537D01*
X6398168Y12858088D01*
X6461000Y13173967D01*
X6461000Y13496033D01*
X6398168Y13811912D01*
X6274918Y14109463D01*
X6095987Y14377252D01*
X5868252Y14604987D01*
X5600463Y14783918D01*
X5302912Y14907168D01*
X4987033Y14970000D01*
X4664967Y14970000D01*
X4349088Y14907168D01*
X4051537Y14783918D01*
X3783748Y14604987D01*
X3556013Y14377252D01*
X3377082Y14109463D01*
X3253832Y13811912D01*
X3191000Y13496033D01*
X-19660000Y13496033D01*
X-19660000Y15528033D01*
X-11795000Y15528033D01*
X-11795000Y15205967D01*
X-11732168Y14890088D01*
X-11608918Y14592537D01*
X-11429987Y14324748D01*
X-11202252Y14097013D01*
X-10934463Y13918082D01*
X-10636912Y13794832D01*
X-10321033Y13732000D01*
X-9998967Y13732000D01*
X-9683088Y13794832D01*
X-9385537Y13918082D01*
X-9117748Y14097013D01*
X-8890013Y14324748D01*
X-8711082Y14592537D01*
X-8587832Y14890088D01*
X-8525000Y15205967D01*
X-8525000Y15528033D01*
X-2016000Y15528033D01*
X-2016000Y15205967D01*
X-1953168Y14890088D01*
X-1829918Y14592537D01*
X-1650987Y14324748D01*
X-1423252Y14097013D01*
X-1155463Y13918082D01*
X-857912Y13794832D01*
X-542033Y13732000D01*
X-219967Y13732000D01*
X95912Y13794832D01*
X393463Y13918082D01*
X661252Y14097013D01*
X888987Y14324748D01*
X1067918Y14592537D01*
X1191168Y14890088D01*
X1254000Y15205967D01*
X1254000Y15528033D01*
X1191168Y15843912D01*
X1067918Y16141463D01*
X888987Y16409252D01*
X661252Y16636987D01*
X393463Y16815918D01*
X95912Y16939168D01*
X-219967Y17002000D01*
X-542033Y17002000D01*
X-857912Y16939168D01*
X-1155463Y16815918D01*
X-1423252Y16636987D01*
X-1650987Y16409252D01*
X-1829918Y16141463D01*
X-1953168Y15843912D01*
X-2016000Y15528033D01*
X-8525000Y15528033D01*
X-8587832Y15843912D01*
X-8711082Y16141463D01*
X-8890013Y16409252D01*
X-9117748Y16636987D01*
X-9385537Y16815918D01*
X-9683088Y16939168D01*
X-9998967Y17002000D01*
X-10321033Y17002000D01*
X-10636912Y16939168D01*
X-10934463Y16815918D01*
X-11202252Y16636987D01*
X-11429987Y16409252D01*
X-11608918Y16141463D01*
X-11732168Y15843912D01*
X-11795000Y15528033D01*
X-19660000Y15528033D01*
X-19660000Y24438878D01*
X-19431000Y24438878D01*
X-19431000Y23313122D01*
X-19211375Y22208996D01*
X-18780567Y21168933D01*
X-18155130Y20232900D01*
X-17359100Y19436870D01*
X-16423067Y18811433D01*
X-15383004Y18380625D01*
X-14278878Y18161000D01*
X-13153122Y18161000D01*
X-12048996Y18380625D01*
X-11008933Y18811433D01*
X-10072900Y19436870D01*
X-9416966Y20092804D01*
X-5127591Y20092804D01*
X-4541876Y19410584D01*
X-3558296Y18862955D01*
X-2486777Y18517735D01*
X-1368499Y18388192D01*
X-246435Y18479303D01*
X836294Y18787567D01*
X1838079Y19301137D01*
X2001876Y19410584D01*
X2587591Y20092804D01*
X-1270000Y23950395D01*
X-5127591Y20092804D01*
X-9416966Y20092804D01*
X-9276870Y20232900D01*
X-8651433Y21168933D01*
X-8220625Y22208996D01*
X-8001000Y23313122D01*
X-8001000Y24228499D01*
X-7011808Y24228499D01*
X-6920697Y23106435D01*
X-6612433Y22023706D01*
X-6098863Y21021921D01*
X-5989416Y20858124D01*
X-5307196Y20272409D01*
X-1449605Y24130000D01*
X-1090395Y24130000D01*
X2767196Y20272409D01*
X3449416Y20858124D01*
X3997045Y21841704D01*
X4342265Y22913223D01*
X4471808Y24031501D01*
X4380697Y25153565D01*
X4072433Y26236294D01*
X3558863Y27238079D01*
X3449416Y27401876D01*
X2767196Y27987591D01*
X-1090395Y24130000D01*
X-1449605Y24130000D01*
X-5307196Y27987591D01*
X-5989416Y27401876D01*
X-6537045Y26418296D01*
X-6882265Y25346777D01*
X-7011808Y24228499D01*
X-8001000Y24228499D01*
X-8001000Y24438878D01*
X-8220625Y25543004D01*
X-8651433Y26583067D01*
X-9276870Y27519100D01*
X-9924966Y28167196D01*
X-5127591Y28167196D01*
X-1270000Y24309605D01*
X2587591Y28167196D01*
X2001876Y28849416D01*
X1018296Y29397045D01*
X-53223Y29742265D01*
X-1171501Y29871808D01*
X-2293565Y29780697D01*
X-3376294Y29472433D01*
X-4378079Y28958863D01*
X-4541876Y28849416D01*
X-5127591Y28167196D01*
X-9924966Y28167196D01*
X-10072900Y28315130D01*
X-11008933Y28940567D01*
X-12048996Y29371375D01*
X-13153122Y29591000D01*
X-14278878Y29591000D01*
X-15383004Y29371375D01*
X-16423067Y28940567D01*
X-17359100Y28315130D01*
X-18155130Y27519100D01*
X-18780567Y26583067D01*
X-19211375Y25543004D01*
X-19431000Y24438878D01*
X-19660000Y24438878D01*
X-19660000Y30226000D01*
X12065000Y30226000D01*
X12065000Y1648226D01*
G37*
X12065000Y1648226D02*
X-14283942Y-30353000D01*
X-19660000Y-30353000D01*
X-19660000Y-12665967D01*
X-5826000Y-12665967D01*
X-5826000Y-12988033D01*
X-5763168Y-13303912D01*
X-5639918Y-13601463D01*
X-5460987Y-13869252D01*
X-5233252Y-14096987D01*
X-4965463Y-14275918D01*
X-4667912Y-14399168D01*
X-4352033Y-14462000D01*
X-4029967Y-14462000D01*
X-3714088Y-14399168D01*
X-3416537Y-14275918D01*
X-3148748Y-14096987D01*
X-2921013Y-13869252D01*
X-2742082Y-13601463D01*
X-2618832Y-13303912D01*
X-2556000Y-12988033D01*
X-2556000Y-12665967D01*
X-2618832Y-12350088D01*
X-2742082Y-12052537D01*
X-2921013Y-11784748D01*
X-3148748Y-11557013D01*
X-3416537Y-11378082D01*
X-3714088Y-11254832D01*
X-4029967Y-11192000D01*
X-4352033Y-11192000D01*
X-4667912Y-11254832D01*
X-4965463Y-11378082D01*
X-5233252Y-11557013D01*
X-5460987Y-11784748D01*
X-5639918Y-12052537D01*
X-5763168Y-12350088D01*
X-5826000Y-12665967D01*
X-19660000Y-12665967D01*
X-19660000Y-5702702D01*
X-19600494Y-5751537D01*
X-19490180Y-5810502D01*
X-19370482Y-5846812D01*
X-19246000Y-5859072D01*
X-16991750Y-5856000D01*
X-16833000Y-5697250D01*
X-16833000Y-4548000D01*
X-16579000Y-4548000D01*
X-16579000Y-5697250D01*
X-16420250Y-5856000D01*
X-14166000Y-5859072D01*
X-14041518Y-5846812D01*
X-13921820Y-5810502D01*
X-13811506Y-5751537D01*
X-13714815Y-5672185D01*
X-13635463Y-5575494D01*
X-13576498Y-5465180D01*
X-13540188Y-5345482D01*
X-13532709Y-5269541D01*
X-13430250Y-5372000D01*
X-13253779Y-5374944D01*
X-13129077Y-5365179D01*
X-13008676Y-5331274D01*
X-12897203Y-5274531D01*
X-12798942Y-5197131D01*
X-12717669Y-5102048D01*
X-12656507Y-4992937D01*
X-12617807Y-4873990D01*
X-12606000Y-4768750D01*
X-12764750Y-4610000D01*
X-13589000Y-4610000D01*
X-13589000Y-4648750D01*
X-13689750Y-4548000D01*
X-16579000Y-4548000D01*
X-16833000Y-4548000D01*
X-16853000Y-4548000D01*
X-16853000Y-4294000D01*
X-16833000Y-4294000D01*
X-16833000Y-3144750D01*
X-16579000Y-3144750D01*
X-16579000Y-4294000D01*
X-14777250Y-4294000D01*
X-14667250Y-4404000D01*
X-13843000Y-4404000D01*
X-13843000Y-4360000D01*
X-13589000Y-4360000D01*
X-13589000Y-4404000D01*
X-12764750Y-4404000D01*
X-12606000Y-4245250D01*
X-12617807Y-4140010D01*
X-12656507Y-4021063D01*
X-12717669Y-3911952D01*
X-12798942Y-3816869D01*
X-12897203Y-3739469D01*
X-13008676Y-3682726D01*
X-13129077Y-3648821D01*
X-13253779Y-3639056D01*
X-13430250Y-3642000D01*
X-13528641Y-3740391D01*
X-13527928Y-3621000D01*
X-13540188Y-3496518D01*
X-13576498Y-3376820D01*
X-13635463Y-3266506D01*
X-13714815Y-3169815D01*
X-13811506Y-3090463D01*
X-13921820Y-3031498D01*
X-14041518Y-2995188D01*
X-14166000Y-2982928D01*
X-16420250Y-2986000D01*
X-16579000Y-3144750D01*
X-16833000Y-3144750D01*
X-16991750Y-2986000D01*
X-19246000Y-2982928D01*
X-19370482Y-2995188D01*
X-19490180Y-3031498D01*
X-19600494Y-3090463D01*
X-19660000Y-3139298D01*
X-19660000Y-162702D01*
X-19600494Y-211537D01*
X-19490180Y-270502D01*
X-19370482Y-306812D01*
X-19246000Y-319072D01*
X-16991750Y-316000D01*
X-16833000Y-157250D01*
X-16833000Y992000D01*
X-16579000Y992000D01*
X-16579000Y-157250D01*
X-16420250Y-316000D01*
X-14166000Y-319072D01*
X-14041518Y-306812D01*
X-13921820Y-270502D01*
X-13811506Y-211537D01*
X-13714815Y-132185D01*
X-13635463Y-35494D01*
X-13576498Y74820D01*
X-13540188Y194518D01*
X-13527928Y319000D01*
X-13528641Y438391D01*
X-13430250Y340000D01*
X-13253779Y337056D01*
X-13129077Y346821D01*
X-13008676Y380726D01*
X-12897203Y437469D01*
X-12798942Y514869D01*
X-12751819Y570000D01*
X-11264072Y570000D01*
X-11251812Y445518D01*
X-11215502Y325820D01*
X-11156537Y215506D01*
X-11077185Y118815D01*
X-10980494Y39463D01*
X-10870180Y-19502D01*
X-10750482Y-55812D01*
X-10626000Y-68072D01*
X-10336750Y-65000D01*
X-10178000Y93750D01*
X-10178000Y1143000D01*
X-11102250Y1143000D01*
X-11261000Y984250D01*
X-11264072Y570000D01*
X-12751819Y570000D01*
X-12717669Y609952D01*
X-12656507Y719063D01*
X-12617807Y838010D01*
X-12606000Y943250D01*
X-12764750Y1102000D01*
X-13589000Y1102000D01*
X-13589000Y1058000D01*
X-13843000Y1058000D01*
X-13843000Y1102000D01*
X-14667250Y1102000D01*
X-14777250Y992000D01*
X-16579000Y992000D01*
X-16833000Y992000D01*
X-16853000Y992000D01*
X-16853000Y1246000D01*
X-16833000Y1246000D01*
X-16833000Y2395250D01*
X-16579000Y2395250D01*
X-16579000Y1246000D01*
X-13689750Y1246000D01*
X-13589000Y1346750D01*
X-13589000Y1308000D01*
X-12764750Y1308000D01*
X-12606000Y1466750D01*
X-12617807Y1571990D01*
X-12656507Y1690937D01*
X-12717669Y1800048D01*
X-12798942Y1895131D01*
X-12893989Y1970000D01*
X-11264072Y1970000D01*
X-11261000Y1555750D01*
X-11102250Y1397000D01*
X-10178000Y1397000D01*
X-10178000Y2446250D01*
X-10336750Y2605000D01*
X-10626000Y2608072D01*
X-10750482Y2595812D01*
X-10870180Y2559502D01*
X-10980494Y2500537D01*
X-11077185Y2421185D01*
X-11156537Y2324494D01*
X-11215502Y2214180D01*
X-11251812Y2094482D01*
X-11264072Y1970000D01*
X-12893989Y1970000D01*
X-12897203Y1972531D01*
X-13008676Y2029274D01*
X-13129077Y2063179D01*
X-13253779Y2072944D01*
X-13430250Y2070000D01*
X-13532709Y1967541D01*
X-13540188Y2043482D01*
X-13576498Y2163180D01*
X-13635463Y2273494D01*
X-13714815Y2370185D01*
X-13811506Y2449537D01*
X-13921820Y2508502D01*
X-14041518Y2544812D01*
X-14166000Y2557072D01*
X-16420250Y2554000D01*
X-16579000Y2395250D01*
X-16833000Y2395250D01*
X-16991750Y2554000D01*
X-19246000Y2557072D01*
X-19370482Y2544812D01*
X-19490180Y2508502D01*
X-19600494Y2449537D01*
X-19660000Y2400702D01*
X-19660000Y5622033D01*
X-11287000Y5622033D01*
X-11287000Y5299967D01*
X-11224168Y4984088D01*
X-11100918Y4686537D01*
X-10921987Y4418748D01*
X-10694252Y4191013D01*
X-10426463Y4012082D01*
X-10128912Y3888832D01*
X-9813033Y3826000D01*
X-9490967Y3826000D01*
X-9175088Y3888832D01*
X-8877537Y4012082D01*
X-8609748Y4191013D01*
X-8382013Y4418748D01*
X-8231368Y4644203D01*
X-8156205Y4462744D01*
X-8042937Y4293226D01*
X-7898774Y4149063D01*
X-7729256Y4035795D01*
X-7540898Y3957774D01*
X-7434072Y3936525D01*
X-7434072Y3883999D01*
X-7417008Y3710745D01*
X-7366472Y3544149D01*
X-7284405Y3390613D01*
X-7173962Y3256038D01*
X-7086184Y3184000D01*
X-7173962Y3111962D01*
X-7284405Y2977387D01*
X-7366472Y2823851D01*
X-7417008Y2657255D01*
X-7425831Y2567676D01*
X-7502745Y2591008D01*
X-7675999Y2608072D01*
X-8326001Y2608072D01*
X-8499255Y2591008D01*
X-8665851Y2540472D01*
X-8819387Y2458405D01*
X-8953962Y2347962D01*
X-8959342Y2341406D01*
X-9024815Y2421185D01*
X-9121506Y2500537D01*
X-9231820Y2559502D01*
X-9351518Y2595812D01*
X-9476000Y2608072D01*
X-9765250Y2605000D01*
X-9924000Y2446250D01*
X-9924000Y1397000D01*
X-9904000Y1397000D01*
X-9904000Y1143000D01*
X-9924000Y1143000D01*
X-9924000Y93750D01*
X-9765250Y-65000D01*
X-9476000Y-68072D01*
X-9351518Y-55812D01*
X-9231820Y-19502D01*
X-9121506Y39463D01*
X-9024815Y118815D01*
X-8959342Y198594D01*
X-8953962Y192038D01*
X-8819387Y81595D01*
X-8665851Y-472D01*
X-8499255Y-51008D01*
X-8326001Y-68072D01*
X-7675999Y-68072D01*
X-7502745Y-51008D01*
X-7425072Y-27446D01*
X-7425072Y-62001D01*
X-7408008Y-235255D01*
X-7357472Y-401851D01*
X-7275405Y-555387D01*
X-7164962Y-689962D01*
X-7077184Y-762000D01*
X-7164962Y-834038D01*
X-7275405Y-968613D01*
X-7357472Y-1122149D01*
X-7408008Y-1288745D01*
X-7425072Y-1461999D01*
X-7425072Y-2112001D01*
X-7408008Y-2285255D01*
X-7368651Y-2415000D01*
X-7709678Y-2415000D01*
X-7747001Y-2411324D01*
X-7784324Y-2415000D01*
X-7784333Y-2415000D01*
X-7895986Y-2425997D01*
X-8010886Y-2460851D01*
X-8039247Y-2469454D01*
X-8171277Y-2540026D01*
X-8250919Y-2605387D01*
X-8287001Y-2634999D01*
X-8310799Y-2663997D01*
X-8398625Y-2751823D01*
X-8413088Y-2745832D01*
X-8728967Y-2683000D01*
X-9051033Y-2683000D01*
X-9366912Y-2745832D01*
X-9664463Y-2869082D01*
X-9932252Y-3048013D01*
X-10159987Y-3275748D01*
X-10338918Y-3543537D01*
X-10462168Y-3841088D01*
X-10525000Y-4156967D01*
X-10525000Y-4479033D01*
X-10462168Y-4794912D01*
X-10338918Y-5092463D01*
X-10159987Y-5360252D01*
X-9932252Y-5587987D01*
X-9664463Y-5766918D01*
X-9366912Y-5890168D01*
X-9051033Y-5953000D01*
X-8728967Y-5953000D01*
X-8413088Y-5890168D01*
X-8115537Y-5766918D01*
X-7847748Y-5587987D01*
X-7620013Y-5360252D01*
X-7441082Y-5092463D01*
X-7317832Y-4794912D01*
X-7255000Y-4479033D01*
X-7255000Y-4156967D01*
X-7299152Y-3935000D01*
X-6545711Y-3935000D01*
X-6501774Y-3978937D01*
X-6332256Y-4092205D01*
X-6143898Y-4170226D01*
X-5943939Y-4210000D01*
X-5740061Y-4210000D01*
X-5540102Y-4170226D01*
X-5403238Y-4113535D01*
X-5404072Y-4121999D01*
X-5404072Y-5022001D01*
X-5387008Y-5195255D01*
X-5336472Y-5361851D01*
X-5254405Y-5515387D01*
X-5143962Y-5649962D01*
X-5009387Y-5760405D01*
X-4855851Y-5842472D01*
X-4689255Y-5893008D01*
X-4516001Y-5910072D01*
X-3865999Y-5910072D01*
X-3692745Y-5893008D01*
X-3526149Y-5842472D01*
X-3372613Y-5760405D01*
X-3238038Y-5649962D01*
X-3232658Y-5643406D01*
X-3167185Y-5723185D01*
X-3070494Y-5802537D01*
X-2960180Y-5861502D01*
X-2840482Y-5897812D01*
X-2757249Y-5906010D01*
X-2920987Y-6069748D01*
X-3099918Y-6337537D01*
X-3223168Y-6635088D01*
X-3286000Y-6950967D01*
X-3286000Y-7273033D01*
X-3223168Y-7588912D01*
X-3099918Y-7886463D01*
X-2920987Y-8154252D01*
X-2693252Y-8381987D01*
X-2425463Y-8560918D01*
X-2127912Y-8684168D01*
X-1812033Y-8747000D01*
X-1489967Y-8747000D01*
X-1174088Y-8684168D01*
X-876537Y-8560918D01*
X-608748Y-8381987D01*
X-381013Y-8154252D01*
X-202082Y-7886463D01*
X-78832Y-7588912D01*
X-16000Y-7273033D01*
X-16000Y-6950967D01*
X-78832Y-6635088D01*
X-202082Y-6337537D01*
X-381013Y-6069748D01*
X-608748Y-5842013D01*
X-876537Y-5663082D01*
X-1022666Y-5602553D01*
X-976498Y-5516180D01*
X-940188Y-5396482D01*
X-927928Y-5272000D01*
X-931000Y-4857750D01*
X-1089750Y-4699000D01*
X-2014000Y-4699000D01*
X-2014000Y-4719000D01*
X-2268000Y-4719000D01*
X-2268000Y-4699000D01*
X-2288000Y-4699000D01*
X-2288000Y-4445000D01*
X-2268000Y-4445000D01*
X-2268000Y-3395750D01*
X-2014000Y-3395750D01*
X-2014000Y-4445000D01*
X-1089750Y-4445000D01*
X-931000Y-4286250D01*
X-927928Y-3872000D01*
X-940188Y-3747518D01*
X-976498Y-3627820D01*
X-1035463Y-3517506D01*
X-1114815Y-3420815D01*
X-1211506Y-3341463D01*
X-1321820Y-3282498D01*
X-1441518Y-3246188D01*
X-1566000Y-3233928D01*
X-1855250Y-3237000D01*
X-2014000Y-3395750D01*
X-2268000Y-3395750D01*
X-2426750Y-3237000D01*
X-2716000Y-3233928D01*
X-2840482Y-3246188D01*
X-2960180Y-3282498D01*
X-3070494Y-3341463D01*
X-3167185Y-3420815D01*
X-3232658Y-3500594D01*
X-3238038Y-3494038D01*
X-3372613Y-3383595D01*
X-3463903Y-3334799D01*
X-3485454Y-3263753D01*
X-3537000Y-3167319D01*
X-3537000Y-3073061D01*
X-3549728Y-3009072D01*
X-3486999Y-3009072D01*
X-3313745Y-2992008D01*
X-3147149Y-2941472D01*
X-3045178Y-2886967D01*
X651000Y-2886967D01*
X651000Y-3209033D01*
X713832Y-3524912D01*
X837082Y-3822463D01*
X1016013Y-4090252D01*
X1243748Y-4317987D01*
X1511537Y-4496918D01*
X1809088Y-4620168D01*
X2124967Y-4683000D01*
X2447033Y-4683000D01*
X2762912Y-4620168D01*
X3060463Y-4496918D01*
X3328252Y-4317987D01*
X3555987Y-4090252D01*
X3734918Y-3822463D01*
X3858168Y-3524912D01*
X3921000Y-3209033D01*
X3921000Y-2886967D01*
X3858168Y-2571088D01*
X3734918Y-2273537D01*
X3555987Y-2005748D01*
X3328252Y-1778013D01*
X3060463Y-1599082D01*
X2762912Y-1475832D01*
X2447033Y-1413000D01*
X2124967Y-1413000D01*
X1809088Y-1475832D01*
X1511537Y-1599082D01*
X1243748Y-1778013D01*
X1016013Y-2005748D01*
X837082Y-2273537D01*
X713832Y-2571088D01*
X651000Y-2886967D01*
X-3045178Y-2886967D01*
X-2993613Y-2859405D01*
X-2859038Y-2748962D01*
X-2748595Y-2614387D01*
X-2666528Y-2460851D01*
X-2615992Y-2294255D01*
X-2598928Y-2121001D01*
X-2598928Y-1470999D01*
X-2615992Y-1297745D01*
X-2666528Y-1131149D01*
X-2748595Y-977613D01*
X-2859038Y-843038D01*
X-2865594Y-837658D01*
X-2785815Y-772185D01*
X-2706463Y-675494D01*
X-2647498Y-565180D01*
X-2611188Y-445482D01*
X-2598928Y-321000D01*
X-2602000Y-31750D01*
X-2760750Y127000D01*
X-3810000Y127000D01*
X-3810000Y107000D01*
X-4064000Y107000D01*
X-4064000Y127000D01*
X-4084000Y127000D01*
X-4084000Y381000D01*
X-4064000Y381000D01*
X-4064000Y2032000D01*
X-3810000Y2032000D01*
X-3810000Y381000D01*
X-2760750Y381000D01*
X-2602000Y539750D01*
X-2598928Y829000D01*
X-2611188Y953482D01*
X-2647498Y1073180D01*
X-2706463Y1183494D01*
X-2725343Y1206500D01*
X-2706463Y1229506D01*
X-2647498Y1339820D01*
X-2611188Y1459518D01*
X-2598928Y1584000D01*
X-2602000Y1873250D01*
X-2760750Y2032000D01*
X-3810000Y2032000D01*
X-4064000Y2032000D01*
X-4084000Y2032000D01*
X-4084000Y2286000D01*
X-4064000Y2286000D01*
X-4064000Y2299010D01*
X-3810000Y2299010D01*
X-3810000Y2286000D01*
X-2760750Y2286000D01*
X-2726179Y2320571D01*
X-2617743Y2353464D01*
X-2485714Y2424036D01*
X-2369989Y2519009D01*
X-2346187Y2548012D01*
X-2119199Y2775000D01*
X-2057061Y2775000D01*
X-1857102Y2814774D01*
X-1668744Y2892795D01*
X-1499226Y3006063D01*
X-1355063Y3150226D01*
X-1241795Y3319744D01*
X-1163774Y3508102D01*
X-1124000Y3708061D01*
X-1124000Y3911939D01*
X-1163774Y4111898D01*
X-1241795Y4300256D01*
X-1349200Y4461000D01*
X-1108967Y4461000D01*
X-793088Y4523832D01*
X-495537Y4647082D01*
X-227748Y4826013D01*
X-66728Y4987033D01*
X651000Y4987033D01*
X651000Y4664967D01*
X713832Y4349088D01*
X837082Y4051537D01*
X1016013Y3783748D01*
X1243748Y3556013D01*
X1511537Y3377082D01*
X1809088Y3253832D01*
X2124967Y3191000D01*
X2447033Y3191000D01*
X2762912Y3253832D01*
X3060463Y3377082D01*
X3328252Y3556013D01*
X3555987Y3783748D01*
X3734918Y4051537D01*
X3858168Y4349088D01*
X3921000Y4664967D01*
X3921000Y4987033D01*
X3858168Y5302912D01*
X3734918Y5600463D01*
X3555987Y5868252D01*
X3328252Y6095987D01*
X3060463Y6274918D01*
X2762912Y6398168D01*
X2447033Y6461000D01*
X2124967Y6461000D01*
X1809088Y6398168D01*
X1511537Y6274918D01*
X1243748Y6095987D01*
X1016013Y5868252D01*
X837082Y5600463D01*
X713832Y5302912D01*
X651000Y4987033D01*
X-66728Y4987033D01*
X-13Y5053748D01*
X178918Y5321537D01*
X302168Y5619088D01*
X365000Y5934967D01*
X365000Y6257033D01*
X302168Y6572912D01*
X178918Y6870463D01*
X-13Y7138252D01*
X-227748Y7365987D01*
X-495537Y7544918D01*
X-793088Y7668168D01*
X-1108967Y7731000D01*
X-1431033Y7731000D01*
X-1746912Y7668168D01*
X-2044463Y7544918D01*
X-2312252Y7365987D01*
X-2539987Y7138252D01*
X-2718918Y6870463D01*
X-2842168Y6572912D01*
X-2905000Y6257033D01*
X-2905000Y5934967D01*
X-2842168Y5619088D01*
X-2718918Y5321537D01*
X-2539987Y5053748D01*
X-2319576Y4833337D01*
X-2460898Y4805226D01*
X-2625081Y4737219D01*
X-2666528Y4873851D01*
X-2748595Y5027387D01*
X-2859038Y5161962D01*
X-2993613Y5272405D01*
X-3147149Y5354472D01*
X-3313745Y5405008D01*
X-3486999Y5422072D01*
X-4387001Y5422072D01*
X-4560255Y5405008D01*
X-4726851Y5354472D01*
X-4880387Y5272405D01*
X-5014962Y5161962D01*
X-5016500Y5160088D01*
X-5018038Y5161962D01*
X-5152613Y5272405D01*
X-5306149Y5354472D01*
X-5472745Y5405008D01*
X-5645999Y5422072D01*
X-6234271Y5422072D01*
X-6276197Y5463998D01*
X-6299999Y5493001D01*
X-6415724Y5587974D01*
X-6420030Y5590276D01*
X-6435063Y5612774D01*
X-6579226Y5756937D01*
X-6748744Y5870205D01*
X-6937102Y5948226D01*
X-7137061Y5988000D01*
X-7340939Y5988000D01*
X-7540898Y5948226D01*
X-7729256Y5870205D01*
X-7898774Y5756937D01*
X-8019767Y5635944D01*
X-8079832Y5937912D01*
X-8203082Y6235463D01*
X-8382013Y6503252D01*
X-8609748Y6730987D01*
X-8877537Y6909918D01*
X-9175088Y7033168D01*
X-9490967Y7096000D01*
X-9813033Y7096000D01*
X-10128912Y7033168D01*
X-10426463Y6909918D01*
X-10694252Y6730987D01*
X-10921987Y6503252D01*
X-11100918Y6235463D01*
X-11224168Y5937912D01*
X-11287000Y5622033D01*
X-19660000Y5622033D01*
X-19660000Y13496033D01*
X3191000Y13496033D01*
X3191000Y13173967D01*
X3253832Y12858088D01*
X3377082Y12560537D01*
X3556013Y12292748D01*
X3783748Y12065013D01*
X4051537Y11886082D01*
X4349088Y11762832D01*
X4664967Y11700000D01*
X4987033Y11700000D01*
X5302912Y11762832D01*
X5600463Y11886082D01*
X5868252Y12065013D01*
X6095987Y12292748D01*
X6274918Y12560537D01*
X6398168Y12858088D01*
X6461000Y13173967D01*
X6461000Y13496033D01*
X6398168Y13811912D01*
X6274918Y14109463D01*
X6095987Y14377252D01*
X5868252Y14604987D01*
X5600463Y14783918D01*
X5302912Y14907168D01*
X4987033Y14970000D01*
X4664967Y14970000D01*
X4349088Y14907168D01*
X4051537Y14783918D01*
X3783748Y14604987D01*
X3556013Y14377252D01*
X3377082Y14109463D01*
X3253832Y13811912D01*
X3191000Y13496033D01*
X-19660000Y13496033D01*
X-19660000Y15528033D01*
X-11795000Y15528033D01*
X-11795000Y15205967D01*
X-11732168Y14890088D01*
X-11608918Y14592537D01*
X-11429987Y14324748D01*
X-11202252Y14097013D01*
X-10934463Y13918082D01*
X-10636912Y13794832D01*
X-10321033Y13732000D01*
X-9998967Y13732000D01*
X-9683088Y13794832D01*
X-9385537Y13918082D01*
X-9117748Y14097013D01*
X-8890013Y14324748D01*
X-8711082Y14592537D01*
X-8587832Y14890088D01*
X-8525000Y15205967D01*
X-8525000Y15528033D01*
X-2016000Y15528033D01*
X-2016000Y15205967D01*
X-1953168Y14890088D01*
X-1829918Y14592537D01*
X-1650987Y14324748D01*
X-1423252Y14097013D01*
X-1155463Y13918082D01*
X-857912Y13794832D01*
X-542033Y13732000D01*
X-219967Y13732000D01*
X95912Y13794832D01*
X393463Y13918082D01*
X661252Y14097013D01*
X888987Y14324748D01*
X1067918Y14592537D01*
X1191168Y14890088D01*
X1254000Y15205967D01*
X1254000Y15528033D01*
X1191168Y15843912D01*
X1067918Y16141463D01*
X888987Y16409252D01*
X661252Y16636987D01*
X393463Y16815918D01*
X95912Y16939168D01*
X-219967Y17002000D01*
X-542033Y17002000D01*
X-857912Y16939168D01*
X-1155463Y16815918D01*
X-1423252Y16636987D01*
X-1650987Y16409252D01*
X-1829918Y16141463D01*
X-1953168Y15843912D01*
X-2016000Y15528033D01*
X-8525000Y15528033D01*
X-8587832Y15843912D01*
X-8711082Y16141463D01*
X-8890013Y16409252D01*
X-9117748Y16636987D01*
X-9385537Y16815918D01*
X-9683088Y16939168D01*
X-9998967Y17002000D01*
X-10321033Y17002000D01*
X-10636912Y16939168D01*
X-10934463Y16815918D01*
X-11202252Y16636987D01*
X-11429987Y16409252D01*
X-11608918Y16141463D01*
X-11732168Y15843912D01*
X-11795000Y15528033D01*
X-19660000Y15528033D01*
X-19660000Y24438878D01*
X-19431000Y24438878D01*
X-19431000Y23313122D01*
X-19211375Y22208996D01*
X-18780567Y21168933D01*
X-18155130Y20232900D01*
X-17359100Y19436870D01*
X-16423067Y18811433D01*
X-15383004Y18380625D01*
X-14278878Y18161000D01*
X-13153122Y18161000D01*
X-12048996Y18380625D01*
X-11008933Y18811433D01*
X-10072900Y19436870D01*
X-9416966Y20092804D01*
X-5127591Y20092804D01*
X-4541876Y19410584D01*
X-3558296Y18862955D01*
X-2486777Y18517735D01*
X-1368499Y18388192D01*
X-246435Y18479303D01*
X836294Y18787567D01*
X1838079Y19301137D01*
X2001876Y19410584D01*
X2587591Y20092804D01*
X-1270000Y23950395D01*
X-5127591Y20092804D01*
X-9416966Y20092804D01*
X-9276870Y20232900D01*
X-8651433Y21168933D01*
X-8220625Y22208996D01*
X-8001000Y23313122D01*
X-8001000Y24228499D01*
X-7011808Y24228499D01*
X-6920697Y23106435D01*
X-6612433Y22023706D01*
X-6098863Y21021921D01*
X-5989416Y20858124D01*
X-5307196Y20272409D01*
X-1449605Y24130000D01*
X-1090395Y24130000D01*
X2767196Y20272409D01*
X3449416Y20858124D01*
X3997045Y21841704D01*
X4342265Y22913223D01*
X4471808Y24031501D01*
X4380697Y25153565D01*
X4072433Y26236294D01*
X3558863Y27238079D01*
X3449416Y27401876D01*
X2767196Y27987591D01*
X-1090395Y24130000D01*
X-1449605Y24130000D01*
X-5307196Y27987591D01*
X-5989416Y27401876D01*
X-6537045Y26418296D01*
X-6882265Y25346777D01*
X-7011808Y24228499D01*
X-8001000Y24228499D01*
X-8001000Y24438878D01*
X-8220625Y25543004D01*
X-8651433Y26583067D01*
X-9276870Y27519100D01*
X-9924966Y28167196D01*
X-5127591Y28167196D01*
X-1270000Y24309605D01*
X2587591Y28167196D01*
X2001876Y28849416D01*
X1018296Y29397045D01*
X-53223Y29742265D01*
X-1171501Y29871808D01*
X-2293565Y29780697D01*
X-3376294Y29472433D01*
X-4378079Y28958863D01*
X-4541876Y28849416D01*
X-5127591Y28167196D01*
X-9924966Y28167196D01*
X-10072900Y28315130D01*
X-11008933Y28940567D01*
X-12048996Y29371375D01*
X-13153122Y29591000D01*
X-14278878Y29591000D01*
X-15383004Y29371375D01*
X-16423067Y28940567D01*
X-17359100Y28315130D01*
X-18155130Y27519100D01*
X-18780567Y26583067D01*
X-19211375Y25543004D01*
X-19431000Y24438878D01*
X-19660000Y24438878D01*
X-19660000Y30226000D01*
X12065000Y30226000D01*
X12065000Y1648226D01*
G36*
X13974148Y30085032D02*
G01*
X13814604Y29644850D01*
X13744000Y29182000D01*
X13744000Y27432000D01*
X16002000Y27432000D01*
X16002000Y27452000D01*
X16256000Y27452000D01*
X16256000Y27432000D01*
X18514000Y27432000D01*
X18514000Y29182000D01*
X18443396Y29644850D01*
X18283852Y30085032D01*
X18121737Y30353000D01*
X24296263Y30353000D01*
X24134148Y30085032D01*
X23974604Y29644850D01*
X23904000Y29182000D01*
X23904000Y27432000D01*
X26162000Y27432000D01*
X26162000Y27452000D01*
X26416000Y27452000D01*
X26416000Y27432000D01*
X28674000Y27432000D01*
X28674000Y29182000D01*
X28603396Y29644850D01*
X28443852Y30085032D01*
X28281737Y30353000D01*
X31175319Y30353000D01*
X31122498Y30254180D01*
X31086188Y30134482D01*
X31073928Y30010000D01*
X31077000Y29495750D01*
X31235750Y29337000D01*
X32385000Y29337000D01*
X32385000Y29357000D01*
X32639000Y29357000D01*
X32639000Y29337000D01*
X33788250Y29337000D01*
X33947000Y29495750D01*
X33950072Y30010000D01*
X33937812Y30134482D01*
X33901502Y30254180D01*
X33848681Y30353000D01*
X46879689Y30353000D01*
X46837241Y30324637D01*
X46637363Y30124759D01*
X46480320Y29889727D01*
X46372147Y29628574D01*
X46317000Y29351335D01*
X46317000Y29068665D01*
X46372147Y28791426D01*
X46480320Y28530273D01*
X46637363Y28295241D01*
X46837241Y28095363D01*
X47069759Y27940000D01*
X46837241Y27784637D01*
X46637363Y27584759D01*
X46482000Y27352241D01*
X46326637Y27584759D01*
X46126759Y27784637D01*
X45891727Y27941680D01*
X45630574Y28049853D01*
X45353335Y28105000D01*
X45070665Y28105000D01*
X44793426Y28049853D01*
X44532273Y27941680D01*
X44297241Y27784637D01*
X44097363Y27584759D01*
X43940320Y27349727D01*
X43832147Y27088574D01*
X43777000Y26811335D01*
X43777000Y26528665D01*
X43832147Y26251426D01*
X43940320Y25990273D01*
X44097363Y25755241D01*
X44297241Y25555363D01*
X44532273Y25398320D01*
X44793426Y25290147D01*
X45070665Y25235000D01*
X45353335Y25235000D01*
X45630574Y25290147D01*
X45891727Y25398320D01*
X46126759Y25555363D01*
X46326637Y25755241D01*
X46482000Y25987759D01*
X46637363Y25755241D01*
X46837241Y25555363D01*
X47069759Y25400000D01*
X46837241Y25244637D01*
X46637363Y25044759D01*
X46480320Y24809727D01*
X46372147Y24548574D01*
X46317000Y24271335D01*
X46317000Y23988665D01*
X46372147Y23711426D01*
X46480320Y23450273D01*
X46637363Y23215241D01*
X46837241Y23015363D01*
X47069759Y22860000D01*
X46837241Y22704637D01*
X46637363Y22504759D01*
X46480320Y22269727D01*
X46372147Y22008574D01*
X46317000Y21731335D01*
X46317000Y21448665D01*
X46372147Y21171426D01*
X46480320Y20910273D01*
X46637363Y20675241D01*
X46837241Y20475363D01*
X47069759Y20320000D01*
X46837241Y20164637D01*
X46637363Y19964759D01*
X46480320Y19729727D01*
X46372147Y19468574D01*
X46317000Y19191335D01*
X46317000Y18908665D01*
X46372147Y18631426D01*
X46480320Y18370273D01*
X46637363Y18135241D01*
X46837241Y17935363D01*
X47069759Y17780000D01*
X46837241Y17624637D01*
X46637363Y17424759D01*
X46504260Y17225556D01*
X46494137Y17244494D01*
X46414785Y17341185D01*
X46318094Y17420537D01*
X46207780Y17479502D01*
X46088082Y17515812D01*
X45963600Y17528072D01*
X44663600Y17528072D01*
X44539118Y17515812D01*
X44419420Y17479502D01*
X44309106Y17420537D01*
X44212415Y17341185D01*
X44133063Y17244494D01*
X44130470Y17239642D01*
X43922276Y17378753D01*
X43688421Y17475619D01*
X43440161Y17525000D01*
X43187039Y17525000D01*
X42938779Y17475619D01*
X42704924Y17378753D01*
X42494460Y17238125D01*
X42315475Y17059140D01*
X42313600Y17056334D01*
X42311725Y17059140D01*
X42132740Y17238125D01*
X41922276Y17378753D01*
X41688421Y17475619D01*
X41440161Y17525000D01*
X41187039Y17525000D01*
X40938779Y17475619D01*
X40704924Y17378753D01*
X40494460Y17238125D01*
X40315475Y17059140D01*
X40174847Y16848676D01*
X40077981Y16614821D01*
X40028600Y16366561D01*
X40028600Y16113439D01*
X40077981Y15865179D01*
X40174847Y15631324D01*
X40315475Y15420860D01*
X40494460Y15241875D01*
X40497266Y15240000D01*
X40494460Y15238125D01*
X40315475Y15059140D01*
X40174847Y14848676D01*
X40077981Y14614821D01*
X40028600Y14366561D01*
X40028600Y14113439D01*
X40077981Y13865179D01*
X40174847Y13631324D01*
X40315475Y13420860D01*
X40494460Y13241875D01*
X40704924Y13101247D01*
X40938779Y13004381D01*
X41187039Y12955000D01*
X41440161Y12955000D01*
X41688421Y13004381D01*
X41922276Y13101247D01*
X42132740Y13241875D01*
X42311725Y13420860D01*
X42313600Y13423666D01*
X42315475Y13420860D01*
X42494460Y13241875D01*
X42704924Y13101247D01*
X42938779Y13004381D01*
X43187039Y12955000D01*
X43440161Y12955000D01*
X43688421Y13004381D01*
X43922276Y13101247D01*
X44132740Y13241875D01*
X44311725Y13420860D01*
X44313600Y13423666D01*
X44315475Y13420860D01*
X44494460Y13241875D01*
X44704924Y13101247D01*
X44938779Y13004381D01*
X45187039Y12955000D01*
X45440161Y12955000D01*
X45688421Y13004381D01*
X45922276Y13101247D01*
X46132740Y13241875D01*
X46311725Y13420860D01*
X46382410Y13526648D01*
X46480320Y13290273D01*
X46637363Y13055241D01*
X46837241Y12855363D01*
X47069759Y12700000D01*
X46837241Y12544637D01*
X46637363Y12344759D01*
X46480320Y12109727D01*
X46372147Y11848574D01*
X46317000Y11571335D01*
X46317000Y11288665D01*
X46372147Y11011426D01*
X46480320Y10750273D01*
X46637363Y10515241D01*
X46837241Y10315363D01*
X47069759Y10160000D01*
X46837241Y10004637D01*
X46637363Y9804759D01*
X46480320Y9569727D01*
X46372147Y9308574D01*
X46317000Y9031335D01*
X46317000Y8748665D01*
X46372147Y8471426D01*
X46480320Y8210273D01*
X46637363Y7975241D01*
X46837241Y7775363D01*
X47069759Y7620000D01*
X46837241Y7464637D01*
X46637363Y7264759D01*
X46480320Y7029727D01*
X46372147Y6768574D01*
X46317000Y6491335D01*
X46317000Y6208665D01*
X46372147Y5931426D01*
X46480320Y5670273D01*
X46637363Y5435241D01*
X46837241Y5235363D01*
X47069759Y5080000D01*
X46837241Y4924637D01*
X46637363Y4724759D01*
X46480320Y4489727D01*
X46372147Y4228574D01*
X46317000Y3951335D01*
X46317000Y3668665D01*
X46372147Y3391426D01*
X46480320Y3130273D01*
X46637363Y2895241D01*
X46837241Y2695363D01*
X47069759Y2540000D01*
X46837241Y2384637D01*
X46637363Y2184759D01*
X46480320Y1949727D01*
X46372147Y1688574D01*
X46317000Y1411335D01*
X46317000Y1128665D01*
X46372147Y851426D01*
X46480320Y590273D01*
X46637363Y355241D01*
X46837241Y155363D01*
X47069759Y0D01*
X46837241Y-155363D01*
X46637363Y-355241D01*
X46480320Y-590273D01*
X46372147Y-851426D01*
X46317000Y-1128665D01*
X46317000Y-1411335D01*
X46372147Y-1688574D01*
X46480320Y-1949727D01*
X46637363Y-2184759D01*
X46837241Y-2384637D01*
X47069759Y-2540000D01*
X46837241Y-2695363D01*
X46637363Y-2895241D01*
X46480320Y-3130273D01*
X46372147Y-3391426D01*
X46317000Y-3668665D01*
X46317000Y-3951335D01*
X46372147Y-4228574D01*
X46480320Y-4489727D01*
X46637363Y-4724759D01*
X46837241Y-4924637D01*
X47069759Y-5080000D01*
X46837241Y-5235363D01*
X46637363Y-5435241D01*
X46480320Y-5670273D01*
X46372147Y-5931426D01*
X46317000Y-6208665D01*
X46317000Y-6491335D01*
X46372147Y-6768574D01*
X46480320Y-7029727D01*
X46637363Y-7264759D01*
X46837241Y-7464637D01*
X47069759Y-7620000D01*
X46837241Y-7775363D01*
X46637363Y-7975241D01*
X46480320Y-8210273D01*
X46372147Y-8471426D01*
X46317000Y-8748665D01*
X46317000Y-9031335D01*
X46372147Y-9308574D01*
X46480320Y-9569727D01*
X46637363Y-9804759D01*
X46837241Y-10004637D01*
X47069759Y-10160000D01*
X46837241Y-10315363D01*
X46637363Y-10515241D01*
X46480320Y-10750273D01*
X46372147Y-11011426D01*
X46317000Y-11288665D01*
X46317000Y-11571335D01*
X46372147Y-11848574D01*
X46480320Y-12109727D01*
X46637363Y-12344759D01*
X46837241Y-12544637D01*
X47069759Y-12700000D01*
X46837241Y-12855363D01*
X46637363Y-13055241D01*
X46480320Y-13290273D01*
X46372147Y-13551426D01*
X46317000Y-13828665D01*
X46317000Y-14111335D01*
X46372147Y-14388574D01*
X46480320Y-14649727D01*
X46637363Y-14884759D01*
X46837241Y-15084637D01*
X47069759Y-15240000D01*
X46837241Y-15395363D01*
X46637363Y-15595241D01*
X46482000Y-15827759D01*
X46326637Y-15595241D01*
X46126759Y-15395363D01*
X45891727Y-15238320D01*
X45630574Y-15130147D01*
X45353335Y-15075000D01*
X45070665Y-15075000D01*
X44793426Y-15130147D01*
X44532273Y-15238320D01*
X44297241Y-15395363D01*
X44097363Y-15595241D01*
X43942000Y-15827759D01*
X43786637Y-15595241D01*
X43586759Y-15395363D01*
X43351727Y-15238320D01*
X43090574Y-15130147D01*
X42813335Y-15075000D01*
X42530665Y-15075000D01*
X42253426Y-15130147D01*
X41992273Y-15238320D01*
X41757241Y-15395363D01*
X41557363Y-15595241D01*
X41402000Y-15827759D01*
X41246637Y-15595241D01*
X41046759Y-15395363D01*
X40811727Y-15238320D01*
X40550574Y-15130147D01*
X40273335Y-15075000D01*
X39990665Y-15075000D01*
X39713426Y-15130147D01*
X39452273Y-15238320D01*
X39217241Y-15395363D01*
X39017363Y-15595241D01*
X38862000Y-15827759D01*
X38706637Y-15595241D01*
X38506759Y-15395363D01*
X38271727Y-15238320D01*
X38010574Y-15130147D01*
X37733335Y-15075000D01*
X37450665Y-15075000D01*
X37173426Y-15130147D01*
X36912273Y-15238320D01*
X36677241Y-15395363D01*
X36477363Y-15595241D01*
X36322000Y-15827759D01*
X36166637Y-15595241D01*
X35966759Y-15395363D01*
X35731727Y-15238320D01*
X35470574Y-15130147D01*
X35193335Y-15075000D01*
X34910665Y-15075000D01*
X34633426Y-15130147D01*
X34372273Y-15238320D01*
X34137241Y-15395363D01*
X33937363Y-15595241D01*
X33782000Y-15827759D01*
X33626637Y-15595241D01*
X33426759Y-15395363D01*
X33194241Y-15240000D01*
X33426759Y-15084637D01*
X33626637Y-14884759D01*
X33783680Y-14649727D01*
X33891853Y-14388574D01*
X33947000Y-14111335D01*
X33947000Y-13828665D01*
X33891853Y-13551426D01*
X33783680Y-13290273D01*
X33626637Y-13055241D01*
X33426759Y-12855363D01*
X33194241Y-12700000D01*
X33426759Y-12544637D01*
X33626637Y-12344759D01*
X33783680Y-12109727D01*
X33891853Y-11848574D01*
X33947000Y-11571335D01*
X33947000Y-11288665D01*
X33891853Y-11011426D01*
X33783680Y-10750273D01*
X33626637Y-10515241D01*
X33426759Y-10315363D01*
X33194241Y-10160000D01*
X33426759Y-10004637D01*
X33626637Y-9804759D01*
X33783680Y-9569727D01*
X33891853Y-9308574D01*
X33947000Y-9031335D01*
X33947000Y-8748665D01*
X33891853Y-8471426D01*
X33783680Y-8210273D01*
X33626637Y-7975241D01*
X33426759Y-7775363D01*
X33194241Y-7620000D01*
X33426759Y-7464637D01*
X33626637Y-7264759D01*
X33783680Y-7029727D01*
X33891853Y-6768574D01*
X33947000Y-6491335D01*
X33947000Y-6208665D01*
X33891853Y-5931426D01*
X33783680Y-5670273D01*
X33626637Y-5435241D01*
X33426759Y-5235363D01*
X33194241Y-5080000D01*
X33426759Y-4924637D01*
X33626637Y-4724759D01*
X33783680Y-4489727D01*
X33891853Y-4228574D01*
X33947000Y-3951335D01*
X33947000Y-3668665D01*
X33891853Y-3391426D01*
X33783680Y-3130273D01*
X33626637Y-2895241D01*
X33426759Y-2695363D01*
X33194241Y-2540000D01*
X33426759Y-2384637D01*
X33626637Y-2184759D01*
X33783680Y-1949727D01*
X33891853Y-1688574D01*
X33947000Y-1411335D01*
X33947000Y-1128665D01*
X33891853Y-851426D01*
X33783680Y-590273D01*
X33626637Y-355241D01*
X33426759Y-155363D01*
X33194241Y0D01*
X33426759Y155363D01*
X33626637Y355241D01*
X33783680Y590273D01*
X33891853Y851426D01*
X33947000Y1128665D01*
X33947000Y1411335D01*
X33891853Y1688574D01*
X33783680Y1949727D01*
X33626637Y2184759D01*
X33426759Y2384637D01*
X33194241Y2540000D01*
X33426759Y2695363D01*
X33626637Y2895241D01*
X33783680Y3130273D01*
X33891853Y3391426D01*
X33947000Y3668665D01*
X33947000Y3951335D01*
X33891853Y4228574D01*
X33783680Y4489727D01*
X33626637Y4724759D01*
X33426759Y4924637D01*
X33194241Y5080000D01*
X33426759Y5235363D01*
X33626637Y5435241D01*
X33783680Y5670273D01*
X33891853Y5931426D01*
X33947000Y6208665D01*
X33947000Y6491335D01*
X33891853Y6768574D01*
X33783680Y7029727D01*
X33626637Y7264759D01*
X33426759Y7464637D01*
X33194241Y7620000D01*
X33426759Y7775363D01*
X33626637Y7975241D01*
X33783680Y8210273D01*
X33891853Y8471426D01*
X33947000Y8748665D01*
X33947000Y9031335D01*
X33891853Y9308574D01*
X33783680Y9569727D01*
X33626637Y9804759D01*
X33426759Y10004637D01*
X33194241Y10160000D01*
X33426759Y10315363D01*
X33626637Y10515241D01*
X33783680Y10750273D01*
X33891853Y11011426D01*
X33947000Y11288665D01*
X33947000Y11571335D01*
X33891853Y11848574D01*
X33783680Y12109727D01*
X33626637Y12344759D01*
X33426759Y12544637D01*
X33194241Y12700000D01*
X33426759Y12855363D01*
X33626637Y13055241D01*
X33783680Y13290273D01*
X33891853Y13551426D01*
X33947000Y13828665D01*
X33947000Y14111335D01*
X33891853Y14388574D01*
X33783680Y14649727D01*
X33626637Y14884759D01*
X33426759Y15084637D01*
X33194241Y15240000D01*
X33426759Y15395363D01*
X33626637Y15595241D01*
X33783680Y15830273D01*
X33891853Y16091426D01*
X33947000Y16368665D01*
X33947000Y16651335D01*
X33891853Y16928574D01*
X33783680Y17189727D01*
X33626637Y17424759D01*
X33426759Y17624637D01*
X33194241Y17780000D01*
X33426759Y17935363D01*
X33626637Y18135241D01*
X33783680Y18370273D01*
X33891853Y18631426D01*
X33947000Y18908665D01*
X33947000Y19191335D01*
X33891853Y19468574D01*
X33783680Y19729727D01*
X33626637Y19964759D01*
X33426759Y20164637D01*
X33194241Y20320000D01*
X33426759Y20475363D01*
X33626637Y20675241D01*
X33783680Y20910273D01*
X33891853Y21171426D01*
X33947000Y21448665D01*
X33947000Y21731335D01*
X33891853Y22008574D01*
X33783680Y22269727D01*
X33626637Y22504759D01*
X33426759Y22704637D01*
X33194241Y22860000D01*
X33426759Y23015363D01*
X33626637Y23215241D01*
X33783680Y23450273D01*
X33891593Y23710800D01*
X34124728Y23710800D01*
X34124728Y22110800D01*
X34136988Y21986318D01*
X34173298Y21866620D01*
X34232263Y21756306D01*
X34311615Y21659615D01*
X34408306Y21580263D01*
X34518620Y21521298D01*
X34638318Y21484988D01*
X34646761Y21484157D01*
X34448163Y21285559D01*
X34291120Y21050527D01*
X34182947Y20789374D01*
X34127800Y20512135D01*
X34127800Y20229465D01*
X34182947Y19952226D01*
X34291120Y19691073D01*
X34448163Y19456041D01*
X34648041Y19256163D01*
X34880559Y19100800D01*
X34648041Y18945437D01*
X34448163Y18745559D01*
X34291120Y18510527D01*
X34182947Y18249374D01*
X34127800Y17972135D01*
X34127800Y17689465D01*
X34182947Y17412226D01*
X34291120Y17151073D01*
X34448163Y16916041D01*
X34648041Y16716163D01*
X34880559Y16560800D01*
X34648041Y16405437D01*
X34448163Y16205559D01*
X34291120Y15970527D01*
X34182947Y15709374D01*
X34127800Y15432135D01*
X34127800Y15149465D01*
X34182947Y14872226D01*
X34291120Y14611073D01*
X34448163Y14376041D01*
X34648041Y14176163D01*
X34880559Y14020800D01*
X34648041Y13865437D01*
X34448163Y13665559D01*
X34291120Y13430527D01*
X34182947Y13169374D01*
X34127800Y12892135D01*
X34127800Y12609465D01*
X34182947Y12332226D01*
X34291120Y12071073D01*
X34448163Y11836041D01*
X34648041Y11636163D01*
X34883073Y11479120D01*
X35144226Y11370947D01*
X35421465Y11315800D01*
X35704135Y11315800D01*
X35981374Y11370947D01*
X36242527Y11479120D01*
X36477559Y11636163D01*
X36677437Y11836041D01*
X36834480Y12071073D01*
X36942653Y12332226D01*
X36997800Y12609465D01*
X36997800Y12892135D01*
X36942653Y13169374D01*
X36834480Y13430527D01*
X36677437Y13665559D01*
X36477559Y13865437D01*
X36245041Y14020800D01*
X36477559Y14176163D01*
X36677437Y14376041D01*
X36834480Y14611073D01*
X36942653Y14872226D01*
X36997800Y15149465D01*
X36997800Y15432135D01*
X36942653Y15709374D01*
X36834480Y15970527D01*
X36677437Y16205559D01*
X36477559Y16405437D01*
X36245041Y16560800D01*
X36477559Y16716163D01*
X36677437Y16916041D01*
X36834480Y17151073D01*
X36942653Y17412226D01*
X36997800Y17689465D01*
X36997800Y17972135D01*
X36942653Y18249374D01*
X36834480Y18510527D01*
X36677437Y18745559D01*
X36477559Y18945437D01*
X36245041Y19100800D01*
X36477559Y19256163D01*
X36677437Y19456041D01*
X36834480Y19691073D01*
X36942653Y19952226D01*
X36997800Y20229465D01*
X36997800Y20512135D01*
X36942653Y20789374D01*
X36834480Y21050527D01*
X36677437Y21285559D01*
X36478839Y21484157D01*
X36487282Y21484988D01*
X36606980Y21521298D01*
X36717294Y21580263D01*
X36813985Y21659615D01*
X36893337Y21756306D01*
X36952302Y21866620D01*
X36988612Y21986318D01*
X37000872Y22110800D01*
X37000872Y23710800D01*
X36988612Y23835282D01*
X36952302Y23954980D01*
X36893337Y24065294D01*
X36813985Y24161985D01*
X36717294Y24241337D01*
X36606980Y24300302D01*
X36487282Y24336612D01*
X36362800Y24348872D01*
X34762800Y24348872D01*
X34638318Y24336612D01*
X34518620Y24300302D01*
X34408306Y24241337D01*
X34311615Y24161985D01*
X34232263Y24065294D01*
X34173298Y23954980D01*
X34136988Y23835282D01*
X34124728Y23710800D01*
X33891593Y23710800D01*
X33891853Y23711426D01*
X33947000Y23988665D01*
X33947000Y24271335D01*
X33891853Y24548574D01*
X33783680Y24809727D01*
X33626637Y25044759D01*
X33426759Y25244637D01*
X33194241Y25400000D01*
X33426759Y25555363D01*
X33626637Y25755241D01*
X33783680Y25990273D01*
X33891853Y26251426D01*
X33947000Y26528665D01*
X33947000Y26811335D01*
X33891853Y27088574D01*
X33783680Y27349727D01*
X33626637Y27584759D01*
X33428039Y27783357D01*
X33436482Y27784188D01*
X33556180Y27820498D01*
X33666494Y27879463D01*
X33763185Y27958815D01*
X33842537Y28055506D01*
X33901502Y28165820D01*
X33937812Y28285518D01*
X33950072Y28410000D01*
X33948898Y28606561D01*
X37577000Y28606561D01*
X37577000Y28353439D01*
X37626381Y28105179D01*
X37723247Y27871324D01*
X37863875Y27660860D01*
X38042860Y27481875D01*
X38253324Y27341247D01*
X38487179Y27244381D01*
X38735439Y27195000D01*
X38988561Y27195000D01*
X39236821Y27244381D01*
X39470676Y27341247D01*
X39681140Y27481875D01*
X39860125Y27660860D01*
X40000753Y27871324D01*
X40097619Y28105179D01*
X40132000Y28278027D01*
X40166381Y28105179D01*
X40263247Y27871324D01*
X40403875Y27660860D01*
X40582860Y27481875D01*
X40793324Y27341247D01*
X41027179Y27244381D01*
X41275439Y27195000D01*
X41528561Y27195000D01*
X41776821Y27244381D01*
X42010676Y27341247D01*
X42221140Y27481875D01*
X42400125Y27660860D01*
X42540753Y27871324D01*
X42637619Y28105179D01*
X42687000Y28353439D01*
X42687000Y28606561D01*
X42637619Y28854821D01*
X42540753Y29088676D01*
X42400125Y29299140D01*
X42221140Y29478125D01*
X42010676Y29618753D01*
X41776821Y29715619D01*
X41528561Y29765000D01*
X41275439Y29765000D01*
X41027179Y29715619D01*
X40793324Y29618753D01*
X40582860Y29478125D01*
X40403875Y29299140D01*
X40263247Y29088676D01*
X40166381Y28854821D01*
X40132000Y28681973D01*
X40097619Y28854821D01*
X40000753Y29088676D01*
X39860125Y29299140D01*
X39681140Y29478125D01*
X39470676Y29618753D01*
X39236821Y29715619D01*
X38988561Y29765000D01*
X38735439Y29765000D01*
X38487179Y29715619D01*
X38253324Y29618753D01*
X38042860Y29478125D01*
X37863875Y29299140D01*
X37723247Y29088676D01*
X37626381Y28854821D01*
X37577000Y28606561D01*
X33948898Y28606561D01*
X33947000Y28924250D01*
X33788250Y29083000D01*
X32639000Y29083000D01*
X32639000Y29063000D01*
X32385000Y29063000D01*
X32385000Y29083000D01*
X31235750Y29083000D01*
X31077000Y28924250D01*
X31073928Y28410000D01*
X31086188Y28285518D01*
X31122498Y28165820D01*
X31181463Y28055506D01*
X31260815Y27958815D01*
X31357506Y27879463D01*
X31467820Y27820498D01*
X31587518Y27784188D01*
X31595961Y27783357D01*
X31397363Y27584759D01*
X31240320Y27349727D01*
X31132147Y27088574D01*
X31077000Y26811335D01*
X31077000Y26528665D01*
X31132147Y26251426D01*
X31240320Y25990273D01*
X31397363Y25755241D01*
X31597241Y25555363D01*
X31829759Y25400000D01*
X31597241Y25244637D01*
X31397363Y25044759D01*
X31240320Y24809727D01*
X31132147Y24548574D01*
X31077000Y24271335D01*
X31077000Y23988665D01*
X31132147Y23711426D01*
X31240320Y23450273D01*
X31397363Y23215241D01*
X31597241Y23015363D01*
X31829759Y22860000D01*
X31597241Y22704637D01*
X31397363Y22504759D01*
X31240320Y22269727D01*
X31132147Y22008574D01*
X31077000Y21731335D01*
X31077000Y21448665D01*
X31132147Y21171426D01*
X31240320Y20910273D01*
X31397363Y20675241D01*
X31597241Y20475363D01*
X31829759Y20320000D01*
X31597241Y20164637D01*
X31397363Y19964759D01*
X31240320Y19729727D01*
X31132147Y19468574D01*
X31077000Y19191335D01*
X31077000Y18908665D01*
X31132147Y18631426D01*
X31240320Y18370273D01*
X31397363Y18135241D01*
X31597241Y17935363D01*
X31829759Y17780000D01*
X31597241Y17624637D01*
X31397363Y17424759D01*
X31240320Y17189727D01*
X31132147Y16928574D01*
X31077000Y16651335D01*
X31077000Y16368665D01*
X31132147Y16091426D01*
X31240320Y15830273D01*
X31397363Y15595241D01*
X31597241Y15395363D01*
X31829759Y15240000D01*
X31597241Y15084637D01*
X31397363Y14884759D01*
X31240320Y14649727D01*
X31132147Y14388574D01*
X31077000Y14111335D01*
X31077000Y13828665D01*
X31132147Y13551426D01*
X31240320Y13290273D01*
X31397363Y13055241D01*
X31597241Y12855363D01*
X31829759Y12700000D01*
X31597241Y12544637D01*
X31397363Y12344759D01*
X31240320Y12109727D01*
X31132147Y11848574D01*
X31077000Y11571335D01*
X31077000Y11288665D01*
X31132147Y11011426D01*
X31240320Y10750273D01*
X31397363Y10515241D01*
X31597241Y10315363D01*
X31829759Y10160000D01*
X31597241Y10004637D01*
X31397363Y9804759D01*
X31240320Y9569727D01*
X31132147Y9308574D01*
X31077000Y9031335D01*
X31077000Y8748665D01*
X31132147Y8471426D01*
X31158061Y8408863D01*
X25614199Y2865000D01*
X25552061Y2865000D01*
X25352102Y2825226D01*
X25163744Y2747205D01*
X24994226Y2633937D01*
X24850063Y2489774D01*
X24736795Y2320256D01*
X24658774Y2131898D01*
X24619000Y1931939D01*
X24619000Y1728061D01*
X24658774Y1528102D01*
X24736795Y1339744D01*
X24784733Y1268000D01*
X23563711Y1268000D01*
X23519774Y1311937D01*
X23350256Y1425205D01*
X23161898Y1503226D01*
X22961939Y1543000D01*
X22758061Y1543000D01*
X22558102Y1503226D01*
X22369744Y1425205D01*
X22200226Y1311937D01*
X22056063Y1167774D01*
X21942795Y998256D01*
X21864774Y809898D01*
X21825000Y609939D01*
X21825000Y406061D01*
X21864774Y206102D01*
X21942795Y17744D01*
X22056063Y-151774D01*
X22200226Y-295937D01*
X22369744Y-409205D01*
X22558102Y-487226D01*
X22758061Y-527000D01*
X22961939Y-527000D01*
X23161898Y-487226D01*
X23350256Y-409205D01*
X23519774Y-295937D01*
X23563711Y-252000D01*
X25594678Y-252000D01*
X25632000Y-255676D01*
X25669322Y-252000D01*
X25669333Y-252000D01*
X25780986Y-241003D01*
X25924247Y-197546D01*
X26056276Y-126974D01*
X26172001Y-32001D01*
X26195803Y-2998D01*
X26364048Y165247D01*
X26968799Y769996D01*
X26968808Y770007D01*
X31175802Y4977000D01*
X31675608Y4977000D01*
X31597241Y4924637D01*
X31397363Y4724759D01*
X31240320Y4489727D01*
X31132147Y4228574D01*
X31077000Y3951335D01*
X31077000Y3668665D01*
X31132147Y3391426D01*
X31240320Y3130273D01*
X31397363Y2895241D01*
X31597241Y2695363D01*
X31829759Y2540000D01*
X31597241Y2384637D01*
X31397363Y2184759D01*
X31240320Y1949727D01*
X31132147Y1688574D01*
X31077000Y1411335D01*
X31077000Y1128665D01*
X31132147Y851426D01*
X31240320Y590273D01*
X31397363Y355241D01*
X31597241Y155363D01*
X31829759Y0D01*
X31597241Y-155363D01*
X31397363Y-355241D01*
X31240320Y-590273D01*
X31132147Y-851426D01*
X31077000Y-1128665D01*
X31077000Y-1411335D01*
X31132147Y-1688574D01*
X31240320Y-1949727D01*
X31397363Y-2184759D01*
X31597241Y-2384637D01*
X31829759Y-2540000D01*
X31597241Y-2695363D01*
X31397363Y-2895241D01*
X31240320Y-3130273D01*
X31132147Y-3391426D01*
X31077000Y-3668665D01*
X31077000Y-3951335D01*
X31132147Y-4228574D01*
X31240320Y-4489727D01*
X31397363Y-4724759D01*
X31597241Y-4924637D01*
X31829759Y-5080000D01*
X31597241Y-5235363D01*
X31397363Y-5435241D01*
X31240320Y-5670273D01*
X31132147Y-5931426D01*
X31077000Y-6208665D01*
X31077000Y-6491335D01*
X31132147Y-6768574D01*
X31240320Y-7029727D01*
X31397363Y-7264759D01*
X31597241Y-7464637D01*
X31829759Y-7620000D01*
X31597241Y-7775363D01*
X31397363Y-7975241D01*
X31240320Y-8210273D01*
X31132147Y-8471426D01*
X31077000Y-8748665D01*
X31077000Y-9031335D01*
X31132147Y-9308574D01*
X31240320Y-9569727D01*
X31397363Y-9804759D01*
X31597241Y-10004637D01*
X31829759Y-10160000D01*
X31597241Y-10315363D01*
X31397363Y-10515241D01*
X31240320Y-10750273D01*
X31132147Y-11011426D01*
X31077000Y-11288665D01*
X31077000Y-11571335D01*
X31132147Y-11848574D01*
X31240320Y-12109727D01*
X31397363Y-12344759D01*
X31597241Y-12544637D01*
X31829759Y-12700000D01*
X31597241Y-12855363D01*
X31397363Y-13055241D01*
X31240320Y-13290273D01*
X31132147Y-13551426D01*
X31077000Y-13828665D01*
X31077000Y-14111335D01*
X31132147Y-14388574D01*
X31240320Y-14649727D01*
X31397363Y-14884759D01*
X31597241Y-15084637D01*
X31829759Y-15240000D01*
X31597241Y-15395363D01*
X31397363Y-15595241D01*
X31240320Y-15830273D01*
X31132147Y-16091426D01*
X31077000Y-16368665D01*
X31077000Y-16651335D01*
X31132147Y-16928574D01*
X31240320Y-17189727D01*
X31397363Y-17424759D01*
X31597241Y-17624637D01*
X31829759Y-17780000D01*
X31597241Y-17935363D01*
X31397363Y-18135241D01*
X31240320Y-18370273D01*
X31132147Y-18631426D01*
X31077000Y-18908665D01*
X31077000Y-19191335D01*
X31132147Y-19468574D01*
X31240320Y-19729727D01*
X31397363Y-19964759D01*
X31597241Y-20164637D01*
X31829759Y-20320000D01*
X31597241Y-20475363D01*
X31397363Y-20675241D01*
X31240320Y-20910273D01*
X31132147Y-21171426D01*
X31077000Y-21448665D01*
X31077000Y-21731335D01*
X31132147Y-22008574D01*
X31240320Y-22269727D01*
X31397363Y-22504759D01*
X31597241Y-22704637D01*
X31829759Y-22860000D01*
X31597241Y-23015363D01*
X31397363Y-23215241D01*
X31240320Y-23450273D01*
X31132147Y-23711426D01*
X31077000Y-23988665D01*
X31077000Y-24271335D01*
X31132147Y-24548574D01*
X31240320Y-24809727D01*
X31397363Y-25044759D01*
X31597241Y-25244637D01*
X31829759Y-25400000D01*
X31597241Y-25555363D01*
X31397363Y-25755241D01*
X31240320Y-25990273D01*
X31132147Y-26251426D01*
X31077000Y-26528665D01*
X31077000Y-26811335D01*
X31132147Y-27088574D01*
X31240320Y-27349727D01*
X31397363Y-27584759D01*
X31597241Y-27784637D01*
X31829759Y-27940000D01*
X31597241Y-28095363D01*
X31397363Y-28295241D01*
X31240320Y-28530273D01*
X31132147Y-28791426D01*
X31077000Y-29068665D01*
X31077000Y-29351335D01*
X31132147Y-29628574D01*
X31240320Y-29889727D01*
X31397363Y-30124759D01*
X31597241Y-30324637D01*
X31639689Y-30353000D01*
X-13189460Y-30353000D01*
X2841127Y-11268967D01*
X11446000Y-11268967D01*
X11446000Y-11591033D01*
X11508832Y-11906912D01*
X11632082Y-12204463D01*
X11811013Y-12472252D01*
X12038748Y-12699987D01*
X12306537Y-12878918D01*
X12604088Y-13002168D01*
X12919967Y-13065000D01*
X13242033Y-13065000D01*
X13557912Y-13002168D01*
X13855463Y-12878918D01*
X14123252Y-12699987D01*
X14350987Y-12472252D01*
X14529918Y-12204463D01*
X14653168Y-11906912D01*
X14716000Y-11591033D01*
X14716000Y-11268967D01*
X14653168Y-10953088D01*
X14529918Y-10655537D01*
X14350987Y-10387748D01*
X14123252Y-10160013D01*
X14123233Y-10160000D01*
X17655509Y-10160000D01*
X17677423Y-10382498D01*
X17742324Y-10596446D01*
X17847717Y-10793622D01*
X17989552Y-10966448D01*
X18162378Y-11108283D01*
X18359554Y-11213676D01*
X18573502Y-11278577D01*
X18796000Y-11300491D01*
X19018498Y-11278577D01*
X19232446Y-11213676D01*
X19429622Y-11108283D01*
X19559143Y-11001988D01*
X20575140Y-9985992D01*
X20618449Y-9950449D01*
X20760284Y-9777623D01*
X20865676Y-9580447D01*
X20930577Y-9366499D01*
X20947000Y-9199752D01*
X20952491Y-9144000D01*
X20947000Y-9088249D01*
X20947000Y5643752D01*
X20930577Y5810499D01*
X20865676Y6024447D01*
X20760284Y6221623D01*
X20618449Y6394449D01*
X20445623Y6536284D01*
X20248446Y6641676D01*
X20034498Y6706577D01*
X19812000Y6728491D01*
X19589501Y6706577D01*
X19375553Y6641676D01*
X19178377Y6536284D01*
X19005551Y6394449D01*
X18863716Y6221623D01*
X18758324Y6024446D01*
X18693423Y5810498D01*
X18677000Y5643751D01*
X18677001Y-8673867D01*
X17954012Y-9396857D01*
X17847717Y-9526378D01*
X17742324Y-9723554D01*
X17677423Y-9937502D01*
X17655509Y-10160000D01*
X14123233Y-10160000D01*
X13855463Y-9981082D01*
X13557912Y-9857832D01*
X13242033Y-9795000D01*
X12919967Y-9795000D01*
X12604088Y-9857832D01*
X12306537Y-9981082D01*
X12038748Y-10160013D01*
X11811013Y-10387748D01*
X11632082Y-10655537D01*
X11508832Y-10953088D01*
X11446000Y-11268967D01*
X2841127Y-11268967D01*
X13305245Y1188315D01*
X13319312Y1208856D01*
X13329102Y1231746D01*
X13334238Y1256107D01*
X13335000Y1270000D01*
X13335000Y14512033D01*
X22114000Y14512033D01*
X22114000Y14189967D01*
X22176832Y13874088D01*
X22300082Y13576537D01*
X22479013Y13308748D01*
X22706748Y13081013D01*
X22974537Y12902082D01*
X23272088Y12778832D01*
X23587967Y12716000D01*
X23910033Y12716000D01*
X24225912Y12778832D01*
X24523463Y12902082D01*
X24791252Y13081013D01*
X25018987Y13308748D01*
X25197918Y13576537D01*
X25321168Y13874088D01*
X25384000Y14189967D01*
X25384000Y14512033D01*
X25321168Y14827912D01*
X25197918Y15125463D01*
X25018987Y15393252D01*
X24791252Y15620987D01*
X24523463Y15799918D01*
X24225912Y15923168D01*
X23910033Y15986000D01*
X23587967Y15986000D01*
X23272088Y15923168D01*
X22974537Y15799918D01*
X22706748Y15620987D01*
X22479013Y15393252D01*
X22300082Y15125463D01*
X22176832Y14827912D01*
X22114000Y14512033D01*
X13335000Y14512033D01*
X13335000Y22098000D01*
X17234000Y22098000D01*
X17234000Y21648000D01*
X17286350Y21370486D01*
X17391834Y21108517D01*
X17546399Y20872161D01*
X17744105Y20670500D01*
X17977354Y20511285D01*
X18237182Y20400633D01*
X18319961Y20383096D01*
X18542000Y20505085D01*
X18542000Y22098000D01*
X17234000Y22098000D01*
X13335000Y22098000D01*
X13335000Y22802000D01*
X17234000Y22802000D01*
X17234000Y22352000D01*
X18542000Y22352000D01*
X18542000Y23944915D01*
X18796000Y23944915D01*
X18796000Y22352000D01*
X18816000Y22352000D01*
X18816000Y22098000D01*
X18796000Y22098000D01*
X18796000Y20505085D01*
X19018039Y20383096D01*
X19100818Y20400633D01*
X19360646Y20511285D01*
X19593895Y20670500D01*
X19791601Y20872161D01*
X19941735Y21101741D01*
X20010068Y20973899D01*
X20189393Y20755392D01*
X20407900Y20576068D01*
X20657193Y20442818D01*
X20927692Y20360764D01*
X21209000Y20333057D01*
X21490309Y20360764D01*
X21760808Y20442818D01*
X22010101Y20576068D01*
X22228608Y20755392D01*
X22407932Y20973899D01*
X22541182Y21223192D01*
X22623236Y21493691D01*
X22644000Y21704509D01*
X22644000Y22745492D01*
X22623236Y22956309D01*
X22541182Y23226808D01*
X22407932Y23476101D01*
X22228607Y23694608D01*
X22010100Y23873932D01*
X21760807Y24007182D01*
X21490308Y24089236D01*
X21209000Y24116943D01*
X20927691Y24089236D01*
X20657192Y24007182D01*
X20407899Y23873932D01*
X20189392Y23694607D01*
X20010068Y23476100D01*
X19941735Y23348258D01*
X19791601Y23577839D01*
X19593895Y23779500D01*
X19360646Y23938715D01*
X19100818Y24049367D01*
X19018039Y24066904D01*
X18796000Y23944915D01*
X18542000Y23944915D01*
X18319961Y24066904D01*
X18237182Y24049367D01*
X17977354Y23938715D01*
X17744105Y23779500D01*
X17546399Y23577839D01*
X17391834Y23341483D01*
X17286350Y23079514D01*
X17234000Y22802000D01*
X13335000Y22802000D01*
X13335000Y27178000D01*
X13744000Y27178000D01*
X13744000Y25428000D01*
X13814604Y24965150D01*
X13974148Y24524968D01*
X14216502Y24124369D01*
X14532352Y23778748D01*
X14909561Y23501388D01*
X15333632Y23302947D01*
X15630997Y23222573D01*
X16002000Y23332375D01*
X16002000Y27178000D01*
X16256000Y27178000D01*
X16256000Y23332375D01*
X16627003Y23222573D01*
X16924368Y23302947D01*
X17348439Y23501388D01*
X17725648Y23778748D01*
X18041498Y24124369D01*
X18283852Y24524968D01*
X18443396Y24965150D01*
X18514000Y25428000D01*
X18514000Y27178000D01*
X23904000Y27178000D01*
X23904000Y25428000D01*
X23974604Y24965150D01*
X24134148Y24524968D01*
X24376502Y24124369D01*
X24692352Y23778748D01*
X25069561Y23501388D01*
X25493632Y23302947D01*
X25790997Y23222573D01*
X26162000Y23332375D01*
X26162000Y27178000D01*
X26416000Y27178000D01*
X26416000Y23332375D01*
X26787003Y23222573D01*
X27084368Y23302947D01*
X27508439Y23501388D01*
X27885648Y23778748D01*
X28201498Y24124369D01*
X28443852Y24524968D01*
X28603396Y24965150D01*
X28674000Y25428000D01*
X28674000Y27178000D01*
X26416000Y27178000D01*
X26162000Y27178000D01*
X23904000Y27178000D01*
X18514000Y27178000D01*
X16256000Y27178000D01*
X16002000Y27178000D01*
X13744000Y27178000D01*
X13335000Y27178000D01*
X13335000Y30353000D01*
X14136263Y30353000D01*
X13974148Y30085032D01*
G37*
X13974148Y30085032D02*
X13814604Y29644850D01*
X13744000Y29182000D01*
X13744000Y27432000D01*
X16002000Y27432000D01*
X16002000Y27452000D01*
X16256000Y27452000D01*
X16256000Y27432000D01*
X18514000Y27432000D01*
X18514000Y29182000D01*
X18443396Y29644850D01*
X18283852Y30085032D01*
X18121737Y30353000D01*
X24296263Y30353000D01*
X24134148Y30085032D01*
X23974604Y29644850D01*
X23904000Y29182000D01*
X23904000Y27432000D01*
X26162000Y27432000D01*
X26162000Y27452000D01*
X26416000Y27452000D01*
X26416000Y27432000D01*
X28674000Y27432000D01*
X28674000Y29182000D01*
X28603396Y29644850D01*
X28443852Y30085032D01*
X28281737Y30353000D01*
X31175319Y30353000D01*
X31122498Y30254180D01*
X31086188Y30134482D01*
X31073928Y30010000D01*
X31077000Y29495750D01*
X31235750Y29337000D01*
X32385000Y29337000D01*
X32385000Y29357000D01*
X32639000Y29357000D01*
X32639000Y29337000D01*
X33788250Y29337000D01*
X33947000Y29495750D01*
X33950072Y30010000D01*
X33937812Y30134482D01*
X33901502Y30254180D01*
X33848681Y30353000D01*
X46879689Y30353000D01*
X46837241Y30324637D01*
X46637363Y30124759D01*
X46480320Y29889727D01*
X46372147Y29628574D01*
X46317000Y29351335D01*
X46317000Y29068665D01*
X46372147Y28791426D01*
X46480320Y28530273D01*
X46637363Y28295241D01*
X46837241Y28095363D01*
X47069759Y27940000D01*
X46837241Y27784637D01*
X46637363Y27584759D01*
X46482000Y27352241D01*
X46326637Y27584759D01*
X46126759Y27784637D01*
X45891727Y27941680D01*
X45630574Y28049853D01*
X45353335Y28105000D01*
X45070665Y28105000D01*
X44793426Y28049853D01*
X44532273Y27941680D01*
X44297241Y27784637D01*
X44097363Y27584759D01*
X43940320Y27349727D01*
X43832147Y27088574D01*
X43777000Y26811335D01*
X43777000Y26528665D01*
X43832147Y26251426D01*
X43940320Y25990273D01*
X44097363Y25755241D01*
X44297241Y25555363D01*
X44532273Y25398320D01*
X44793426Y25290147D01*
X45070665Y25235000D01*
X45353335Y25235000D01*
X45630574Y25290147D01*
X45891727Y25398320D01*
X46126759Y25555363D01*
X46326637Y25755241D01*
X46482000Y25987759D01*
X46637363Y25755241D01*
X46837241Y25555363D01*
X47069759Y25400000D01*
X46837241Y25244637D01*
X46637363Y25044759D01*
X46480320Y24809727D01*
X46372147Y24548574D01*
X46317000Y24271335D01*
X46317000Y23988665D01*
X46372147Y23711426D01*
X46480320Y23450273D01*
X46637363Y23215241D01*
X46837241Y23015363D01*
X47069759Y22860000D01*
X46837241Y22704637D01*
X46637363Y22504759D01*
X46480320Y22269727D01*
X46372147Y22008574D01*
X46317000Y21731335D01*
X46317000Y21448665D01*
X46372147Y21171426D01*
X46480320Y20910273D01*
X46637363Y20675241D01*
X46837241Y20475363D01*
X47069759Y20320000D01*
X46837241Y20164637D01*
X46637363Y19964759D01*
X46480320Y19729727D01*
X46372147Y19468574D01*
X46317000Y19191335D01*
X46317000Y18908665D01*
X46372147Y18631426D01*
X46480320Y18370273D01*
X46637363Y18135241D01*
X46837241Y17935363D01*
X47069759Y17780000D01*
X46837241Y17624637D01*
X46637363Y17424759D01*
X46504260Y17225556D01*
X46494137Y17244494D01*
X46414785Y17341185D01*
X46318094Y17420537D01*
X46207780Y17479502D01*
X46088082Y17515812D01*
X45963600Y17528072D01*
X44663600Y17528072D01*
X44539118Y17515812D01*
X44419420Y17479502D01*
X44309106Y17420537D01*
X44212415Y17341185D01*
X44133063Y17244494D01*
X44130470Y17239642D01*
X43922276Y17378753D01*
X43688421Y17475619D01*
X43440161Y17525000D01*
X43187039Y17525000D01*
X42938779Y17475619D01*
X42704924Y17378753D01*
X42494460Y17238125D01*
X42315475Y17059140D01*
X42313600Y17056334D01*
X42311725Y17059140D01*
X42132740Y17238125D01*
X41922276Y17378753D01*
X41688421Y17475619D01*
X41440161Y17525000D01*
X41187039Y17525000D01*
X40938779Y17475619D01*
X40704924Y17378753D01*
X40494460Y17238125D01*
X40315475Y17059140D01*
X40174847Y16848676D01*
X40077981Y16614821D01*
X40028600Y16366561D01*
X40028600Y16113439D01*
X40077981Y15865179D01*
X40174847Y15631324D01*
X40315475Y15420860D01*
X40494460Y15241875D01*
X40497266Y15240000D01*
X40494460Y15238125D01*
X40315475Y15059140D01*
X40174847Y14848676D01*
X40077981Y14614821D01*
X40028600Y14366561D01*
X40028600Y14113439D01*
X40077981Y13865179D01*
X40174847Y13631324D01*
X40315475Y13420860D01*
X40494460Y13241875D01*
X40704924Y13101247D01*
X40938779Y13004381D01*
X41187039Y12955000D01*
X41440161Y12955000D01*
X41688421Y13004381D01*
X41922276Y13101247D01*
X42132740Y13241875D01*
X42311725Y13420860D01*
X42313600Y13423666D01*
X42315475Y13420860D01*
X42494460Y13241875D01*
X42704924Y13101247D01*
X42938779Y13004381D01*
X43187039Y12955000D01*
X43440161Y12955000D01*
X43688421Y13004381D01*
X43922276Y13101247D01*
X44132740Y13241875D01*
X44311725Y13420860D01*
X44313600Y13423666D01*
X44315475Y13420860D01*
X44494460Y13241875D01*
X44704924Y13101247D01*
X44938779Y13004381D01*
X45187039Y12955000D01*
X45440161Y12955000D01*
X45688421Y13004381D01*
X45922276Y13101247D01*
X46132740Y13241875D01*
X46311725Y13420860D01*
X46382410Y13526648D01*
X46480320Y13290273D01*
X46637363Y13055241D01*
X46837241Y12855363D01*
X47069759Y12700000D01*
X46837241Y12544637D01*
X46637363Y12344759D01*
X46480320Y12109727D01*
X46372147Y11848574D01*
X46317000Y11571335D01*
X46317000Y11288665D01*
X46372147Y11011426D01*
X46480320Y10750273D01*
X46637363Y10515241D01*
X46837241Y10315363D01*
X47069759Y10160000D01*
X46837241Y10004637D01*
X46637363Y9804759D01*
X46480320Y9569727D01*
X46372147Y9308574D01*
X46317000Y9031335D01*
X46317000Y8748665D01*
X46372147Y8471426D01*
X46480320Y8210273D01*
X46637363Y7975241D01*
X46837241Y7775363D01*
X47069759Y7620000D01*
X46837241Y7464637D01*
X46637363Y7264759D01*
X46480320Y7029727D01*
X46372147Y6768574D01*
X46317000Y6491335D01*
X46317000Y6208665D01*
X46372147Y5931426D01*
X46480320Y5670273D01*
X46637363Y5435241D01*
X46837241Y5235363D01*
X47069759Y5080000D01*
X46837241Y4924637D01*
X46637363Y4724759D01*
X46480320Y4489727D01*
X46372147Y4228574D01*
X46317000Y3951335D01*
X46317000Y3668665D01*
X46372147Y3391426D01*
X46480320Y3130273D01*
X46637363Y2895241D01*
X46837241Y2695363D01*
X47069759Y2540000D01*
X46837241Y2384637D01*
X46637363Y2184759D01*
X46480320Y1949727D01*
X46372147Y1688574D01*
X46317000Y1411335D01*
X46317000Y1128665D01*
X46372147Y851426D01*
X46480320Y590273D01*
X46637363Y355241D01*
X46837241Y155363D01*
X47069759Y0D01*
X46837241Y-155363D01*
X46637363Y-355241D01*
X46480320Y-590273D01*
X46372147Y-851426D01*
X46317000Y-1128665D01*
X46317000Y-1411335D01*
X46372147Y-1688574D01*
X46480320Y-1949727D01*
X46637363Y-2184759D01*
X46837241Y-2384637D01*
X47069759Y-2540000D01*
X46837241Y-2695363D01*
X46637363Y-2895241D01*
X46480320Y-3130273D01*
X46372147Y-3391426D01*
X46317000Y-3668665D01*
X46317000Y-3951335D01*
X46372147Y-4228574D01*
X46480320Y-4489727D01*
X46637363Y-4724759D01*
X46837241Y-4924637D01*
X47069759Y-5080000D01*
X46837241Y-5235363D01*
X46637363Y-5435241D01*
X46480320Y-5670273D01*
X46372147Y-5931426D01*
X46317000Y-6208665D01*
X46317000Y-6491335D01*
X46372147Y-6768574D01*
X46480320Y-7029727D01*
X46637363Y-7264759D01*
X46837241Y-7464637D01*
X47069759Y-7620000D01*
X46837241Y-7775363D01*
X46637363Y-7975241D01*
X46480320Y-8210273D01*
X46372147Y-8471426D01*
X46317000Y-8748665D01*
X46317000Y-9031335D01*
X46372147Y-9308574D01*
X46480320Y-9569727D01*
X46637363Y-9804759D01*
X46837241Y-10004637D01*
X47069759Y-10160000D01*
X46837241Y-10315363D01*
X46637363Y-10515241D01*
X46480320Y-10750273D01*
X46372147Y-11011426D01*
X46317000Y-11288665D01*
X46317000Y-11571335D01*
X46372147Y-11848574D01*
X46480320Y-12109727D01*
X46637363Y-12344759D01*
X46837241Y-12544637D01*
X47069759Y-12700000D01*
X46837241Y-12855363D01*
X46637363Y-13055241D01*
X46480320Y-13290273D01*
X46372147Y-13551426D01*
X46317000Y-13828665D01*
X46317000Y-14111335D01*
X46372147Y-14388574D01*
X46480320Y-14649727D01*
X46637363Y-14884759D01*
X46837241Y-15084637D01*
X47069759Y-15240000D01*
X46837241Y-15395363D01*
X46637363Y-15595241D01*
X46482000Y-15827759D01*
X46326637Y-15595241D01*
X46126759Y-15395363D01*
X45891727Y-15238320D01*
X45630574Y-15130147D01*
X45353335Y-15075000D01*
X45070665Y-15075000D01*
X44793426Y-15130147D01*
X44532273Y-15238320D01*
X44297241Y-15395363D01*
X44097363Y-15595241D01*
X43942000Y-15827759D01*
X43786637Y-15595241D01*
X43586759Y-15395363D01*
X43351727Y-15238320D01*
X43090574Y-15130147D01*
X42813335Y-15075000D01*
X42530665Y-15075000D01*
X42253426Y-15130147D01*
X41992273Y-15238320D01*
X41757241Y-15395363D01*
X41557363Y-15595241D01*
X41402000Y-15827759D01*
X41246637Y-15595241D01*
X41046759Y-15395363D01*
X40811727Y-15238320D01*
X40550574Y-15130147D01*
X40273335Y-15075000D01*
X39990665Y-15075000D01*
X39713426Y-15130147D01*
X39452273Y-15238320D01*
X39217241Y-15395363D01*
X39017363Y-15595241D01*
X38862000Y-15827759D01*
X38706637Y-15595241D01*
X38506759Y-15395363D01*
X38271727Y-15238320D01*
X38010574Y-15130147D01*
X37733335Y-15075000D01*
X37450665Y-15075000D01*
X37173426Y-15130147D01*
X36912273Y-15238320D01*
X36677241Y-15395363D01*
X36477363Y-15595241D01*
X36322000Y-15827759D01*
X36166637Y-15595241D01*
X35966759Y-15395363D01*
X35731727Y-15238320D01*
X35470574Y-15130147D01*
X35193335Y-15075000D01*
X34910665Y-15075000D01*
X34633426Y-15130147D01*
X34372273Y-15238320D01*
X34137241Y-15395363D01*
X33937363Y-15595241D01*
X33782000Y-15827759D01*
X33626637Y-15595241D01*
X33426759Y-15395363D01*
X33194241Y-15240000D01*
X33426759Y-15084637D01*
X33626637Y-14884759D01*
X33783680Y-14649727D01*
X33891853Y-14388574D01*
X33947000Y-14111335D01*
X33947000Y-13828665D01*
X33891853Y-13551426D01*
X33783680Y-13290273D01*
X33626637Y-13055241D01*
X33426759Y-12855363D01*
X33194241Y-12700000D01*
X33426759Y-12544637D01*
X33626637Y-12344759D01*
X33783680Y-12109727D01*
X33891853Y-11848574D01*
X33947000Y-11571335D01*
X33947000Y-11288665D01*
X33891853Y-11011426D01*
X33783680Y-10750273D01*
X33626637Y-10515241D01*
X33426759Y-10315363D01*
X33194241Y-10160000D01*
X33426759Y-10004637D01*
X33626637Y-9804759D01*
X33783680Y-9569727D01*
X33891853Y-9308574D01*
X33947000Y-9031335D01*
X33947000Y-8748665D01*
X33891853Y-8471426D01*
X33783680Y-8210273D01*
X33626637Y-7975241D01*
X33426759Y-7775363D01*
X33194241Y-7620000D01*
X33426759Y-7464637D01*
X33626637Y-7264759D01*
X33783680Y-7029727D01*
X33891853Y-6768574D01*
X33947000Y-6491335D01*
X33947000Y-6208665D01*
X33891853Y-5931426D01*
X33783680Y-5670273D01*
X33626637Y-5435241D01*
X33426759Y-5235363D01*
X33194241Y-5080000D01*
X33426759Y-4924637D01*
X33626637Y-4724759D01*
X33783680Y-4489727D01*
X33891853Y-4228574D01*
X33947000Y-3951335D01*
X33947000Y-3668665D01*
X33891853Y-3391426D01*
X33783680Y-3130273D01*
X33626637Y-2895241D01*
X33426759Y-2695363D01*
X33194241Y-2540000D01*
X33426759Y-2384637D01*
X33626637Y-2184759D01*
X33783680Y-1949727D01*
X33891853Y-1688574D01*
X33947000Y-1411335D01*
X33947000Y-1128665D01*
X33891853Y-851426D01*
X33783680Y-590273D01*
X33626637Y-355241D01*
X33426759Y-155363D01*
X33194241Y0D01*
X33426759Y155363D01*
X33626637Y355241D01*
X33783680Y590273D01*
X33891853Y851426D01*
X33947000Y1128665D01*
X33947000Y1411335D01*
X33891853Y1688574D01*
X33783680Y1949727D01*
X33626637Y2184759D01*
X33426759Y2384637D01*
X33194241Y2540000D01*
X33426759Y2695363D01*
X33626637Y2895241D01*
X33783680Y3130273D01*
X33891853Y3391426D01*
X33947000Y3668665D01*
X33947000Y3951335D01*
X33891853Y4228574D01*
X33783680Y4489727D01*
X33626637Y4724759D01*
X33426759Y4924637D01*
X33194241Y5080000D01*
X33426759Y5235363D01*
X33626637Y5435241D01*
X33783680Y5670273D01*
X33891853Y5931426D01*
X33947000Y6208665D01*
X33947000Y6491335D01*
X33891853Y6768574D01*
X33783680Y7029727D01*
X33626637Y7264759D01*
X33426759Y7464637D01*
X33194241Y7620000D01*
X33426759Y7775363D01*
X33626637Y7975241D01*
X33783680Y8210273D01*
X33891853Y8471426D01*
X33947000Y8748665D01*
X33947000Y9031335D01*
X33891853Y9308574D01*
X33783680Y9569727D01*
X33626637Y9804759D01*
X33426759Y10004637D01*
X33194241Y10160000D01*
X33426759Y10315363D01*
X33626637Y10515241D01*
X33783680Y10750273D01*
X33891853Y11011426D01*
X33947000Y11288665D01*
X33947000Y11571335D01*
X33891853Y11848574D01*
X33783680Y12109727D01*
X33626637Y12344759D01*
X33426759Y12544637D01*
X33194241Y12700000D01*
X33426759Y12855363D01*
X33626637Y13055241D01*
X33783680Y13290273D01*
X33891853Y13551426D01*
X33947000Y13828665D01*
X33947000Y14111335D01*
X33891853Y14388574D01*
X33783680Y14649727D01*
X33626637Y14884759D01*
X33426759Y15084637D01*
X33194241Y15240000D01*
X33426759Y15395363D01*
X33626637Y15595241D01*
X33783680Y15830273D01*
X33891853Y16091426D01*
X33947000Y16368665D01*
X33947000Y16651335D01*
X33891853Y16928574D01*
X33783680Y17189727D01*
X33626637Y17424759D01*
X33426759Y17624637D01*
X33194241Y17780000D01*
X33426759Y17935363D01*
X33626637Y18135241D01*
X33783680Y18370273D01*
X33891853Y18631426D01*
X33947000Y18908665D01*
X33947000Y19191335D01*
X33891853Y19468574D01*
X33783680Y19729727D01*
X33626637Y19964759D01*
X33426759Y20164637D01*
X33194241Y20320000D01*
X33426759Y20475363D01*
X33626637Y20675241D01*
X33783680Y20910273D01*
X33891853Y21171426D01*
X33947000Y21448665D01*
X33947000Y21731335D01*
X33891853Y22008574D01*
X33783680Y22269727D01*
X33626637Y22504759D01*
X33426759Y22704637D01*
X33194241Y22860000D01*
X33426759Y23015363D01*
X33626637Y23215241D01*
X33783680Y23450273D01*
X33891593Y23710800D01*
X34124728Y23710800D01*
X34124728Y22110800D01*
X34136988Y21986318D01*
X34173298Y21866620D01*
X34232263Y21756306D01*
X34311615Y21659615D01*
X34408306Y21580263D01*
X34518620Y21521298D01*
X34638318Y21484988D01*
X34646761Y21484157D01*
X34448163Y21285559D01*
X34291120Y21050527D01*
X34182947Y20789374D01*
X34127800Y20512135D01*
X34127800Y20229465D01*
X34182947Y19952226D01*
X34291120Y19691073D01*
X34448163Y19456041D01*
X34648041Y19256163D01*
X34880559Y19100800D01*
X34648041Y18945437D01*
X34448163Y18745559D01*
X34291120Y18510527D01*
X34182947Y18249374D01*
X34127800Y17972135D01*
X34127800Y17689465D01*
X34182947Y17412226D01*
X34291120Y17151073D01*
X34448163Y16916041D01*
X34648041Y16716163D01*
X34880559Y16560800D01*
X34648041Y16405437D01*
X34448163Y16205559D01*
X34291120Y15970527D01*
X34182947Y15709374D01*
X34127800Y15432135D01*
X34127800Y15149465D01*
X34182947Y14872226D01*
X34291120Y14611073D01*
X34448163Y14376041D01*
X34648041Y14176163D01*
X34880559Y14020800D01*
X34648041Y13865437D01*
X34448163Y13665559D01*
X34291120Y13430527D01*
X34182947Y13169374D01*
X34127800Y12892135D01*
X34127800Y12609465D01*
X34182947Y12332226D01*
X34291120Y12071073D01*
X34448163Y11836041D01*
X34648041Y11636163D01*
X34883073Y11479120D01*
X35144226Y11370947D01*
X35421465Y11315800D01*
X35704135Y11315800D01*
X35981374Y11370947D01*
X36242527Y11479120D01*
X36477559Y11636163D01*
X36677437Y11836041D01*
X36834480Y12071073D01*
X36942653Y12332226D01*
X36997800Y12609465D01*
X36997800Y12892135D01*
X36942653Y13169374D01*
X36834480Y13430527D01*
X36677437Y13665559D01*
X36477559Y13865437D01*
X36245041Y14020800D01*
X36477559Y14176163D01*
X36677437Y14376041D01*
X36834480Y14611073D01*
X36942653Y14872226D01*
X36997800Y15149465D01*
X36997800Y15432135D01*
X36942653Y15709374D01*
X36834480Y15970527D01*
X36677437Y16205559D01*
X36477559Y16405437D01*
X36245041Y16560800D01*
X36477559Y16716163D01*
X36677437Y16916041D01*
X36834480Y17151073D01*
X36942653Y17412226D01*
X36997800Y17689465D01*
X36997800Y17972135D01*
X36942653Y18249374D01*
X36834480Y18510527D01*
X36677437Y18745559D01*
X36477559Y18945437D01*
X36245041Y19100800D01*
X36477559Y19256163D01*
X36677437Y19456041D01*
X36834480Y19691073D01*
X36942653Y19952226D01*
X36997800Y20229465D01*
X36997800Y20512135D01*
X36942653Y20789374D01*
X36834480Y21050527D01*
X36677437Y21285559D01*
X36478839Y21484157D01*
X36487282Y21484988D01*
X36606980Y21521298D01*
X36717294Y21580263D01*
X36813985Y21659615D01*
X36893337Y21756306D01*
X36952302Y21866620D01*
X36988612Y21986318D01*
X37000872Y22110800D01*
X37000872Y23710800D01*
X36988612Y23835282D01*
X36952302Y23954980D01*
X36893337Y24065294D01*
X36813985Y24161985D01*
X36717294Y24241337D01*
X36606980Y24300302D01*
X36487282Y24336612D01*
X36362800Y24348872D01*
X34762800Y24348872D01*
X34638318Y24336612D01*
X34518620Y24300302D01*
X34408306Y24241337D01*
X34311615Y24161985D01*
X34232263Y24065294D01*
X34173298Y23954980D01*
X34136988Y23835282D01*
X34124728Y23710800D01*
X33891593Y23710800D01*
X33891853Y23711426D01*
X33947000Y23988665D01*
X33947000Y24271335D01*
X33891853Y24548574D01*
X33783680Y24809727D01*
X33626637Y25044759D01*
X33426759Y25244637D01*
X33194241Y25400000D01*
X33426759Y25555363D01*
X33626637Y25755241D01*
X33783680Y25990273D01*
X33891853Y26251426D01*
X33947000Y26528665D01*
X33947000Y26811335D01*
X33891853Y27088574D01*
X33783680Y27349727D01*
X33626637Y27584759D01*
X33428039Y27783357D01*
X33436482Y27784188D01*
X33556180Y27820498D01*
X33666494Y27879463D01*
X33763185Y27958815D01*
X33842537Y28055506D01*
X33901502Y28165820D01*
X33937812Y28285518D01*
X33950072Y28410000D01*
X33948898Y28606561D01*
X37577000Y28606561D01*
X37577000Y28353439D01*
X37626381Y28105179D01*
X37723247Y27871324D01*
X37863875Y27660860D01*
X38042860Y27481875D01*
X38253324Y27341247D01*
X38487179Y27244381D01*
X38735439Y27195000D01*
X38988561Y27195000D01*
X39236821Y27244381D01*
X39470676Y27341247D01*
X39681140Y27481875D01*
X39860125Y27660860D01*
X40000753Y27871324D01*
X40097619Y28105179D01*
X40132000Y28278027D01*
X40166381Y28105179D01*
X40263247Y27871324D01*
X40403875Y27660860D01*
X40582860Y27481875D01*
X40793324Y27341247D01*
X41027179Y27244381D01*
X41275439Y27195000D01*
X41528561Y27195000D01*
X41776821Y27244381D01*
X42010676Y27341247D01*
X42221140Y27481875D01*
X42400125Y27660860D01*
X42540753Y27871324D01*
X42637619Y28105179D01*
X42687000Y28353439D01*
X42687000Y28606561D01*
X42637619Y28854821D01*
X42540753Y29088676D01*
X42400125Y29299140D01*
X42221140Y29478125D01*
X42010676Y29618753D01*
X41776821Y29715619D01*
X41528561Y29765000D01*
X41275439Y29765000D01*
X41027179Y29715619D01*
X40793324Y29618753D01*
X40582860Y29478125D01*
X40403875Y29299140D01*
X40263247Y29088676D01*
X40166381Y28854821D01*
X40132000Y28681973D01*
X40097619Y28854821D01*
X40000753Y29088676D01*
X39860125Y29299140D01*
X39681140Y29478125D01*
X39470676Y29618753D01*
X39236821Y29715619D01*
X38988561Y29765000D01*
X38735439Y29765000D01*
X38487179Y29715619D01*
X38253324Y29618753D01*
X38042860Y29478125D01*
X37863875Y29299140D01*
X37723247Y29088676D01*
X37626381Y28854821D01*
X37577000Y28606561D01*
X33948898Y28606561D01*
X33947000Y28924250D01*
X33788250Y29083000D01*
X32639000Y29083000D01*
X32639000Y29063000D01*
X32385000Y29063000D01*
X32385000Y29083000D01*
X31235750Y29083000D01*
X31077000Y28924250D01*
X31073928Y28410000D01*
X31086188Y28285518D01*
X31122498Y28165820D01*
X31181463Y28055506D01*
X31260815Y27958815D01*
X31357506Y27879463D01*
X31467820Y27820498D01*
X31587518Y27784188D01*
X31595961Y27783357D01*
X31397363Y27584759D01*
X31240320Y27349727D01*
X31132147Y27088574D01*
X31077000Y26811335D01*
X31077000Y26528665D01*
X31132147Y26251426D01*
X31240320Y25990273D01*
X31397363Y25755241D01*
X31597241Y25555363D01*
X31829759Y25400000D01*
X31597241Y25244637D01*
X31397363Y25044759D01*
X31240320Y24809727D01*
X31132147Y24548574D01*
X31077000Y24271335D01*
X31077000Y23988665D01*
X31132147Y23711426D01*
X31240320Y23450273D01*
X31397363Y23215241D01*
X31597241Y23015363D01*
X31829759Y22860000D01*
X31597241Y22704637D01*
X31397363Y22504759D01*
X31240320Y22269727D01*
X31132147Y22008574D01*
X31077000Y21731335D01*
X31077000Y21448665D01*
X31132147Y21171426D01*
X31240320Y20910273D01*
X31397363Y20675241D01*
X31597241Y20475363D01*
X31829759Y20320000D01*
X31597241Y20164637D01*
X31397363Y19964759D01*
X31240320Y19729727D01*
X31132147Y19468574D01*
X31077000Y19191335D01*
X31077000Y18908665D01*
X31132147Y18631426D01*
X31240320Y18370273D01*
X31397363Y18135241D01*
X31597241Y17935363D01*
X31829759Y17780000D01*
X31597241Y17624637D01*
X31397363Y17424759D01*
X31240320Y17189727D01*
X31132147Y16928574D01*
X31077000Y16651335D01*
X31077000Y16368665D01*
X31132147Y16091426D01*
X31240320Y15830273D01*
X31397363Y15595241D01*
X31597241Y15395363D01*
X31829759Y15240000D01*
X31597241Y15084637D01*
X31397363Y14884759D01*
X31240320Y14649727D01*
X31132147Y14388574D01*
X31077000Y14111335D01*
X31077000Y13828665D01*
X31132147Y13551426D01*
X31240320Y13290273D01*
X31397363Y13055241D01*
X31597241Y12855363D01*
X31829759Y12700000D01*
X31597241Y12544637D01*
X31397363Y12344759D01*
X31240320Y12109727D01*
X31132147Y11848574D01*
X31077000Y11571335D01*
X31077000Y11288665D01*
X31132147Y11011426D01*
X31240320Y10750273D01*
X31397363Y10515241D01*
X31597241Y10315363D01*
X31829759Y10160000D01*
X31597241Y10004637D01*
X31397363Y9804759D01*
X31240320Y9569727D01*
X31132147Y9308574D01*
X31077000Y9031335D01*
X31077000Y8748665D01*
X31132147Y8471426D01*
X31158061Y8408863D01*
X25614199Y2865000D01*
X25552061Y2865000D01*
X25352102Y2825226D01*
X25163744Y2747205D01*
X24994226Y2633937D01*
X24850063Y2489774D01*
X24736795Y2320256D01*
X24658774Y2131898D01*
X24619000Y1931939D01*
X24619000Y1728061D01*
X24658774Y1528102D01*
X24736795Y1339744D01*
X24784733Y1268000D01*
X23563711Y1268000D01*
X23519774Y1311937D01*
X23350256Y1425205D01*
X23161898Y1503226D01*
X22961939Y1543000D01*
X22758061Y1543000D01*
X22558102Y1503226D01*
X22369744Y1425205D01*
X22200226Y1311937D01*
X22056063Y1167774D01*
X21942795Y998256D01*
X21864774Y809898D01*
X21825000Y609939D01*
X21825000Y406061D01*
X21864774Y206102D01*
X21942795Y17744D01*
X22056063Y-151774D01*
X22200226Y-295937D01*
X22369744Y-409205D01*
X22558102Y-487226D01*
X22758061Y-527000D01*
X22961939Y-527000D01*
X23161898Y-487226D01*
X23350256Y-409205D01*
X23519774Y-295937D01*
X23563711Y-252000D01*
X25594678Y-252000D01*
X25632000Y-255676D01*
X25669322Y-252000D01*
X25669333Y-252000D01*
X25780986Y-241003D01*
X25924247Y-197546D01*
X26056276Y-126974D01*
X26172001Y-32001D01*
X26195803Y-2998D01*
X26364048Y165247D01*
X26968799Y769996D01*
X26968808Y770007D01*
X31175802Y4977000D01*
X31675608Y4977000D01*
X31597241Y4924637D01*
X31397363Y4724759D01*
X31240320Y4489727D01*
X31132147Y4228574D01*
X31077000Y3951335D01*
X31077000Y3668665D01*
X31132147Y3391426D01*
X31240320Y3130273D01*
X31397363Y2895241D01*
X31597241Y2695363D01*
X31829759Y2540000D01*
X31597241Y2384637D01*
X31397363Y2184759D01*
X31240320Y1949727D01*
X31132147Y1688574D01*
X31077000Y1411335D01*
X31077000Y1128665D01*
X31132147Y851426D01*
X31240320Y590273D01*
X31397363Y355241D01*
X31597241Y155363D01*
X31829759Y0D01*
X31597241Y-155363D01*
X31397363Y-355241D01*
X31240320Y-590273D01*
X31132147Y-851426D01*
X31077000Y-1128665D01*
X31077000Y-1411335D01*
X31132147Y-1688574D01*
X31240320Y-1949727D01*
X31397363Y-2184759D01*
X31597241Y-2384637D01*
X31829759Y-2540000D01*
X31597241Y-2695363D01*
X31397363Y-2895241D01*
X31240320Y-3130273D01*
X31132147Y-3391426D01*
X31077000Y-3668665D01*
X31077000Y-3951335D01*
X31132147Y-4228574D01*
X31240320Y-4489727D01*
X31397363Y-4724759D01*
X31597241Y-4924637D01*
X31829759Y-5080000D01*
X31597241Y-5235363D01*
X31397363Y-5435241D01*
X31240320Y-5670273D01*
X31132147Y-5931426D01*
X31077000Y-6208665D01*
X31077000Y-6491335D01*
X31132147Y-6768574D01*
X31240320Y-7029727D01*
X31397363Y-7264759D01*
X31597241Y-7464637D01*
X31829759Y-7620000D01*
X31597241Y-7775363D01*
X31397363Y-7975241D01*
X31240320Y-8210273D01*
X31132147Y-8471426D01*
X31077000Y-8748665D01*
X31077000Y-9031335D01*
X31132147Y-9308574D01*
X31240320Y-9569727D01*
X31397363Y-9804759D01*
X31597241Y-10004637D01*
X31829759Y-10160000D01*
X31597241Y-10315363D01*
X31397363Y-10515241D01*
X31240320Y-10750273D01*
X31132147Y-11011426D01*
X31077000Y-11288665D01*
X31077000Y-11571335D01*
X31132147Y-11848574D01*
X31240320Y-12109727D01*
X31397363Y-12344759D01*
X31597241Y-12544637D01*
X31829759Y-12700000D01*
X31597241Y-12855363D01*
X31397363Y-13055241D01*
X31240320Y-13290273D01*
X31132147Y-13551426D01*
X31077000Y-13828665D01*
X31077000Y-14111335D01*
X31132147Y-14388574D01*
X31240320Y-14649727D01*
X31397363Y-14884759D01*
X31597241Y-15084637D01*
X31829759Y-15240000D01*
X31597241Y-15395363D01*
X31397363Y-15595241D01*
X31240320Y-15830273D01*
X31132147Y-16091426D01*
X31077000Y-16368665D01*
X31077000Y-16651335D01*
X31132147Y-16928574D01*
X31240320Y-17189727D01*
X31397363Y-17424759D01*
X31597241Y-17624637D01*
X31829759Y-17780000D01*
X31597241Y-17935363D01*
X31397363Y-18135241D01*
X31240320Y-18370273D01*
X31132147Y-18631426D01*
X31077000Y-18908665D01*
X31077000Y-19191335D01*
X31132147Y-19468574D01*
X31240320Y-19729727D01*
X31397363Y-19964759D01*
X31597241Y-20164637D01*
X31829759Y-20320000D01*
X31597241Y-20475363D01*
X31397363Y-20675241D01*
X31240320Y-20910273D01*
X31132147Y-21171426D01*
X31077000Y-21448665D01*
X31077000Y-21731335D01*
X31132147Y-22008574D01*
X31240320Y-22269727D01*
X31397363Y-22504759D01*
X31597241Y-22704637D01*
X31829759Y-22860000D01*
X31597241Y-23015363D01*
X31397363Y-23215241D01*
X31240320Y-23450273D01*
X31132147Y-23711426D01*
X31077000Y-23988665D01*
X31077000Y-24271335D01*
X31132147Y-24548574D01*
X31240320Y-24809727D01*
X31397363Y-25044759D01*
X31597241Y-25244637D01*
X31829759Y-25400000D01*
X31597241Y-25555363D01*
X31397363Y-25755241D01*
X31240320Y-25990273D01*
X31132147Y-26251426D01*
X31077000Y-26528665D01*
X31077000Y-26811335D01*
X31132147Y-27088574D01*
X31240320Y-27349727D01*
X31397363Y-27584759D01*
X31597241Y-27784637D01*
X31829759Y-27940000D01*
X31597241Y-28095363D01*
X31397363Y-28295241D01*
X31240320Y-28530273D01*
X31132147Y-28791426D01*
X31077000Y-29068665D01*
X31077000Y-29351335D01*
X31132147Y-29628574D01*
X31240320Y-29889727D01*
X31397363Y-30124759D01*
X31597241Y-30324637D01*
X31639689Y-30353000D01*
X-13189460Y-30353000D01*
X2841127Y-11268967D01*
X11446000Y-11268967D01*
X11446000Y-11591033D01*
X11508832Y-11906912D01*
X11632082Y-12204463D01*
X11811013Y-12472252D01*
X12038748Y-12699987D01*
X12306537Y-12878918D01*
X12604088Y-13002168D01*
X12919967Y-13065000D01*
X13242033Y-13065000D01*
X13557912Y-13002168D01*
X13855463Y-12878918D01*
X14123252Y-12699987D01*
X14350987Y-12472252D01*
X14529918Y-12204463D01*
X14653168Y-11906912D01*
X14716000Y-11591033D01*
X14716000Y-11268967D01*
X14653168Y-10953088D01*
X14529918Y-10655537D01*
X14350987Y-10387748D01*
X14123252Y-10160013D01*
X14123233Y-10160000D01*
X17655509Y-10160000D01*
X17677423Y-10382498D01*
X17742324Y-10596446D01*
X17847717Y-10793622D01*
X17989552Y-10966448D01*
X18162378Y-11108283D01*
X18359554Y-11213676D01*
X18573502Y-11278577D01*
X18796000Y-11300491D01*
X19018498Y-11278577D01*
X19232446Y-11213676D01*
X19429622Y-11108283D01*
X19559143Y-11001988D01*
X20575140Y-9985992D01*
X20618449Y-9950449D01*
X20760284Y-9777623D01*
X20865676Y-9580447D01*
X20930577Y-9366499D01*
X20947000Y-9199752D01*
X20952491Y-9144000D01*
X20947000Y-9088249D01*
X20947000Y5643752D01*
X20930577Y5810499D01*
X20865676Y6024447D01*
X20760284Y6221623D01*
X20618449Y6394449D01*
X20445623Y6536284D01*
X20248446Y6641676D01*
X20034498Y6706577D01*
X19812000Y6728491D01*
X19589501Y6706577D01*
X19375553Y6641676D01*
X19178377Y6536284D01*
X19005551Y6394449D01*
X18863716Y6221623D01*
X18758324Y6024446D01*
X18693423Y5810498D01*
X18677000Y5643751D01*
X18677001Y-8673867D01*
X17954012Y-9396857D01*
X17847717Y-9526378D01*
X17742324Y-9723554D01*
X17677423Y-9937502D01*
X17655509Y-10160000D01*
X14123233Y-10160000D01*
X13855463Y-9981082D01*
X13557912Y-9857832D01*
X13242033Y-9795000D01*
X12919967Y-9795000D01*
X12604088Y-9857832D01*
X12306537Y-9981082D01*
X12038748Y-10160013D01*
X11811013Y-10387748D01*
X11632082Y-10655537D01*
X11508832Y-10953088D01*
X11446000Y-11268967D01*
X2841127Y-11268967D01*
X13305245Y1188315D01*
X13319312Y1208856D01*
X13329102Y1231746D01*
X13334238Y1256107D01*
X13335000Y1270000D01*
X13335000Y14512033D01*
X22114000Y14512033D01*
X22114000Y14189967D01*
X22176832Y13874088D01*
X22300082Y13576537D01*
X22479013Y13308748D01*
X22706748Y13081013D01*
X22974537Y12902082D01*
X23272088Y12778832D01*
X23587967Y12716000D01*
X23910033Y12716000D01*
X24225912Y12778832D01*
X24523463Y12902082D01*
X24791252Y13081013D01*
X25018987Y13308748D01*
X25197918Y13576537D01*
X25321168Y13874088D01*
X25384000Y14189967D01*
X25384000Y14512033D01*
X25321168Y14827912D01*
X25197918Y15125463D01*
X25018987Y15393252D01*
X24791252Y15620987D01*
X24523463Y15799918D01*
X24225912Y15923168D01*
X23910033Y15986000D01*
X23587967Y15986000D01*
X23272088Y15923168D01*
X22974537Y15799918D01*
X22706748Y15620987D01*
X22479013Y15393252D01*
X22300082Y15125463D01*
X22176832Y14827912D01*
X22114000Y14512033D01*
X13335000Y14512033D01*
X13335000Y22098000D01*
X17234000Y22098000D01*
X17234000Y21648000D01*
X17286350Y21370486D01*
X17391834Y21108517D01*
X17546399Y20872161D01*
X17744105Y20670500D01*
X17977354Y20511285D01*
X18237182Y20400633D01*
X18319961Y20383096D01*
X18542000Y20505085D01*
X18542000Y22098000D01*
X17234000Y22098000D01*
X13335000Y22098000D01*
X13335000Y22802000D01*
X17234000Y22802000D01*
X17234000Y22352000D01*
X18542000Y22352000D01*
X18542000Y23944915D01*
X18796000Y23944915D01*
X18796000Y22352000D01*
X18816000Y22352000D01*
X18816000Y22098000D01*
X18796000Y22098000D01*
X18796000Y20505085D01*
X19018039Y20383096D01*
X19100818Y20400633D01*
X19360646Y20511285D01*
X19593895Y20670500D01*
X19791601Y20872161D01*
X19941735Y21101741D01*
X20010068Y20973899D01*
X20189393Y20755392D01*
X20407900Y20576068D01*
X20657193Y20442818D01*
X20927692Y20360764D01*
X21209000Y20333057D01*
X21490309Y20360764D01*
X21760808Y20442818D01*
X22010101Y20576068D01*
X22228608Y20755392D01*
X22407932Y20973899D01*
X22541182Y21223192D01*
X22623236Y21493691D01*
X22644000Y21704509D01*
X22644000Y22745492D01*
X22623236Y22956309D01*
X22541182Y23226808D01*
X22407932Y23476101D01*
X22228607Y23694608D01*
X22010100Y23873932D01*
X21760807Y24007182D01*
X21490308Y24089236D01*
X21209000Y24116943D01*
X20927691Y24089236D01*
X20657192Y24007182D01*
X20407899Y23873932D01*
X20189392Y23694607D01*
X20010068Y23476100D01*
X19941735Y23348258D01*
X19791601Y23577839D01*
X19593895Y23779500D01*
X19360646Y23938715D01*
X19100818Y24049367D01*
X19018039Y24066904D01*
X18796000Y23944915D01*
X18542000Y23944915D01*
X18319961Y24066904D01*
X18237182Y24049367D01*
X17977354Y23938715D01*
X17744105Y23779500D01*
X17546399Y23577839D01*
X17391834Y23341483D01*
X17286350Y23079514D01*
X17234000Y22802000D01*
X13335000Y22802000D01*
X13335000Y27178000D01*
X13744000Y27178000D01*
X13744000Y25428000D01*
X13814604Y24965150D01*
X13974148Y24524968D01*
X14216502Y24124369D01*
X14532352Y23778748D01*
X14909561Y23501388D01*
X15333632Y23302947D01*
X15630997Y23222573D01*
X16002000Y23332375D01*
X16002000Y27178000D01*
X16256000Y27178000D01*
X16256000Y23332375D01*
X16627003Y23222573D01*
X16924368Y23302947D01*
X17348439Y23501388D01*
X17725648Y23778748D01*
X18041498Y24124369D01*
X18283852Y24524968D01*
X18443396Y24965150D01*
X18514000Y25428000D01*
X18514000Y27178000D01*
X23904000Y27178000D01*
X23904000Y25428000D01*
X23974604Y24965150D01*
X24134148Y24524968D01*
X24376502Y24124369D01*
X24692352Y23778748D01*
X25069561Y23501388D01*
X25493632Y23302947D01*
X25790997Y23222573D01*
X26162000Y23332375D01*
X26162000Y27178000D01*
X26416000Y27178000D01*
X26416000Y23332375D01*
X26787003Y23222573D01*
X27084368Y23302947D01*
X27508439Y23501388D01*
X27885648Y23778748D01*
X28201498Y24124369D01*
X28443852Y24524968D01*
X28603396Y24965150D01*
X28674000Y25428000D01*
X28674000Y27178000D01*
X26416000Y27178000D01*
X26162000Y27178000D01*
X23904000Y27178000D01*
X18514000Y27178000D01*
X16256000Y27178000D01*
X16002000Y27178000D01*
X13744000Y27178000D01*
X13335000Y27178000D01*
X13335000Y30353000D01*
X14136263Y30353000D01*
X13974148Y30085032D01*
%TD*%
M02*
