%TF.GenerationSoftware,KiCad,Pcbnew,(5.1.6-0-10_14)*%
%TF.CreationDate,2020-10-21T16:27:26-07:00*%
%TF.ProjectId,AD7766_dev_board,41443737-3636-45f6-9465-765f626f6172,rev?*%
%TF.SameCoordinates,Original*%
%TF.FileFunction,Paste,Bot*%
%TF.FilePolarity,Positive*%
%FSLAX46Y46*%
G04 Gerber Fmt 4.6, Leading zero omitted, Abs format (unit mm)*
G04 Created by KiCad (PCBNEW (5.1.6-0-10_14)) date 2020-10-21 16:27:26*
%MOMM*%
%LPD*%
G01*
G04 APERTURE LIST*
%ADD10R,5.080000X1.600000*%
G04 APERTURE END LIST*
%TO.C,R5*%
G36*
G01*
X-3486999Y-321000D02*
X-4387001Y-321000D01*
G75*
G02*
X-4637000Y-71001I0J249999D01*
G01*
X-4637000Y579001D01*
G75*
G02*
X-4387001Y829000I249999J0D01*
G01*
X-3486999Y829000D01*
G75*
G02*
X-3237000Y579001I0J-249999D01*
G01*
X-3237000Y-71001D01*
G75*
G02*
X-3486999Y-321000I-249999J0D01*
G01*
G37*
G36*
G01*
X-3486999Y-2371000D02*
X-4387001Y-2371000D01*
G75*
G02*
X-4637000Y-2121001I0J249999D01*
G01*
X-4637000Y-1470999D01*
G75*
G02*
X-4387001Y-1221000I249999J0D01*
G01*
X-3486999Y-1221000D01*
G75*
G02*
X-3237000Y-1470999I0J-249999D01*
G01*
X-3237000Y-2121001D01*
G75*
G02*
X-3486999Y-2371000I-249999J0D01*
G01*
G37*
%TD*%
%TO.C,R4*%
G36*
G01*
X-6537001Y-1212000D02*
X-5636999Y-1212000D01*
G75*
G02*
X-5387000Y-1461999I0J-249999D01*
G01*
X-5387000Y-2112001D01*
G75*
G02*
X-5636999Y-2362000I-249999J0D01*
G01*
X-6537001Y-2362000D01*
G75*
G02*
X-6787000Y-2112001I0J249999D01*
G01*
X-6787000Y-1461999D01*
G75*
G02*
X-6537001Y-1212000I249999J0D01*
G01*
G37*
G36*
G01*
X-6537001Y838000D02*
X-5636999Y838000D01*
G75*
G02*
X-5387000Y588001I0J-249999D01*
G01*
X-5387000Y-62001D01*
G75*
G02*
X-5636999Y-312000I-249999J0D01*
G01*
X-6537001Y-312000D01*
G75*
G02*
X-6787000Y-62001I0J249999D01*
G01*
X-6787000Y588001D01*
G75*
G02*
X-6537001Y838000I249999J0D01*
G01*
G37*
%TD*%
%TO.C,R2*%
G36*
G01*
X-4387001Y2734000D02*
X-3486999Y2734000D01*
G75*
G02*
X-3237000Y2484001I0J-249999D01*
G01*
X-3237000Y1833999D01*
G75*
G02*
X-3486999Y1584000I-249999J0D01*
G01*
X-4387001Y1584000D01*
G75*
G02*
X-4637000Y1833999I0J249999D01*
G01*
X-4637000Y2484001D01*
G75*
G02*
X-4387001Y2734000I249999J0D01*
G01*
G37*
G36*
G01*
X-4387001Y4784000D02*
X-3486999Y4784000D01*
G75*
G02*
X-3237000Y4534001I0J-249999D01*
G01*
X-3237000Y3883999D01*
G75*
G02*
X-3486999Y3634000I-249999J0D01*
G01*
X-4387001Y3634000D01*
G75*
G02*
X-4637000Y3883999I0J249999D01*
G01*
X-4637000Y4534001D01*
G75*
G02*
X-4387001Y4784000I249999J0D01*
G01*
G37*
%TD*%
%TO.C,R1*%
G36*
G01*
X-5645999Y3634000D02*
X-6546001Y3634000D01*
G75*
G02*
X-6796000Y3883999I0J249999D01*
G01*
X-6796000Y4534001D01*
G75*
G02*
X-6546001Y4784000I249999J0D01*
G01*
X-5645999Y4784000D01*
G75*
G02*
X-5396000Y4534001I0J-249999D01*
G01*
X-5396000Y3883999D01*
G75*
G02*
X-5645999Y3634000I-249999J0D01*
G01*
G37*
G36*
G01*
X-5645999Y1584000D02*
X-6546001Y1584000D01*
G75*
G02*
X-6796000Y1833999I0J249999D01*
G01*
X-6796000Y2484001D01*
G75*
G02*
X-6546001Y2734000I249999J0D01*
G01*
X-5645999Y2734000D01*
G75*
G02*
X-5396000Y2484001I0J-249999D01*
G01*
X-5396000Y1833999D01*
G75*
G02*
X-5645999Y1584000I-249999J0D01*
G01*
G37*
%TD*%
D10*
%TO.C,J1*%
X-16706000Y-4421000D03*
X-16706000Y1119000D03*
%TD*%
%TO.C,C10*%
G36*
G01*
X-2716000Y-5022001D02*
X-2716000Y-4121999D01*
G75*
G02*
X-2466001Y-3872000I249999J0D01*
G01*
X-1815999Y-3872000D01*
G75*
G02*
X-1566000Y-4121999I0J-249999D01*
G01*
X-1566000Y-5022001D01*
G75*
G02*
X-1815999Y-5272000I-249999J0D01*
G01*
X-2466001Y-5272000D01*
G75*
G02*
X-2716000Y-5022001I0J249999D01*
G01*
G37*
G36*
G01*
X-4766000Y-5022001D02*
X-4766000Y-4121999D01*
G75*
G02*
X-4516001Y-3872000I249999J0D01*
G01*
X-3865999Y-3872000D01*
G75*
G02*
X-3616000Y-4121999I0J-249999D01*
G01*
X-3616000Y-5022001D01*
G75*
G02*
X-3865999Y-5272000I-249999J0D01*
G01*
X-4516001Y-5272000D01*
G75*
G02*
X-4766000Y-5022001I0J249999D01*
G01*
G37*
%TD*%
M02*
