%TF.GenerationSoftware,KiCad,Pcbnew,(5.1.6-0-10_14)*%
%TF.CreationDate,2020-10-21T16:27:26-07:00*%
%TF.ProjectId,AD7766_dev_board,41443737-3636-45f6-9465-765f626f6172,rev?*%
%TF.SameCoordinates,Original*%
%TF.FileFunction,Copper,L1,Top*%
%TF.FilePolarity,Positive*%
%FSLAX46Y46*%
G04 Gerber Fmt 4.6, Leading zero omitted, Abs format (unit mm)*
G04 Created by KiCad (PCBNEW (5.1.6-0-10_14)) date 2020-10-21 16:27:26*
%MOMM*%
%LPD*%
G01*
G04 APERTURE LIST*
%TA.AperFunction,SMDPad,CuDef*%
%ADD10R,0.850000X0.600000*%
%TD*%
%TA.AperFunction,SMDPad,CuDef*%
%ADD11R,0.800000X0.800000*%
%TD*%
%TA.AperFunction,SMDPad,CuDef*%
%ADD12R,0.600000X0.850000*%
%TD*%
%TA.AperFunction,ComponentPad*%
%ADD13C,4.000000*%
%TD*%
%TA.AperFunction,SMDPad,CuDef*%
%ADD14C,0.100000*%
%TD*%
%TA.AperFunction,SMDPad,CuDef*%
%ADD15R,0.800000X1.800000*%
%TD*%
%TA.AperFunction,ComponentPad*%
%ADD16C,2.000000*%
%TD*%
%TA.AperFunction,ComponentPad*%
%ADD17O,1.700000X1.700000*%
%TD*%
%TA.AperFunction,ComponentPad*%
%ADD18R,1.700000X1.700000*%
%TD*%
%TA.AperFunction,ComponentPad*%
%ADD19C,1.300000*%
%TD*%
%TA.AperFunction,ComponentPad*%
%ADD20C,1.600000*%
%TD*%
%TA.AperFunction,ComponentPad*%
%ADD21R,1.300000X1.300000*%
%TD*%
%TA.AperFunction,ComponentPad*%
%ADD22R,1.600000X1.600000*%
%TD*%
%TA.AperFunction,SMDPad,CuDef*%
%ADD23R,3.000000X2.290000*%
%TD*%
%TA.AperFunction,SMDPad,CuDef*%
%ADD24R,1.560000X0.650000*%
%TD*%
%TA.AperFunction,SMDPad,CuDef*%
%ADD25R,0.650000X1.560000*%
%TD*%
%TA.AperFunction,SMDPad,CuDef*%
%ADD26R,2.290000X3.000000*%
%TD*%
%TA.AperFunction,ComponentPad*%
%ADD27C,10.160000*%
%TD*%
%TA.AperFunction,ComponentPad*%
%ADD28O,3.500000X7.000000*%
%TD*%
%TA.AperFunction,ComponentPad*%
%ADD29O,1.600000X2.500000*%
%TD*%
%TA.AperFunction,Conductor*%
%ADD30R,0.950000X0.460000*%
%TD*%
%TA.AperFunction,SMDPad,CuDef*%
%ADD31R,5.080000X1.600000*%
%TD*%
%TA.AperFunction,ViaPad*%
%ADD32C,0.800000*%
%TD*%
%TA.AperFunction,Conductor*%
%ADD33C,0.250000*%
%TD*%
%TA.AperFunction,Conductor*%
%ADD34C,1.000000*%
%TD*%
%TA.AperFunction,Conductor*%
%ADD35C,0.500000*%
%TD*%
%TA.AperFunction,Conductor*%
%ADD36C,0.600000*%
%TD*%
%TA.AperFunction,Conductor*%
%ADD37C,0.750000*%
%TD*%
G04 APERTURE END LIST*
D10*
%TO.P,FL2,2*%
%TO.N,GND*%
X8927000Y11779000D03*
X10377000Y11779000D03*
D11*
%TO.P,FL2,3*%
%TO.N,/AVDD*%
X9652000Y10695000D03*
%TO.P,FL2,1*%
%TO.N,/AVDD_D*%
X9652000Y12895000D03*
%TD*%
D10*
%TO.P,FL3,2*%
%TO.N,GND*%
X9869000Y-11049000D03*
X8419000Y-11049000D03*
D11*
%TO.P,FL3,3*%
%TO.N,/DVDD*%
X9144000Y-9965000D03*
%TO.P,FL3,1*%
%TO.N,/DVDD_D*%
X9144000Y-12165000D03*
%TD*%
D12*
%TO.P,FL1,2*%
%TO.N,GND*%
X-8001000Y-12536000D03*
X-8001000Y-11086000D03*
D11*
%TO.P,FL1,3*%
%TO.N,+5V*%
X-6917000Y-11811000D03*
%TO.P,FL1,1*%
%TO.N,Net-(C7-Pad1)*%
X-9117000Y-11811000D03*
%TD*%
D13*
%TO.P,H4,1*%
%TO.N,N/C*%
X59055000Y28575000D03*
%TD*%
%TO.P,H3,1*%
%TO.N,N/C*%
X59055000Y-28575000D03*
%TD*%
%TO.P,H2,1*%
%TO.N,N/C*%
X-17145000Y28575000D03*
%TD*%
%TO.P,H1,1*%
%TO.N,N/C*%
X-17399000Y-28829000D03*
%TD*%
%TA.AperFunction,SMDPad,CuDef*%
D14*
%TO.P,D1,2*%
%TO.N,+7.5V*%
G36*
X-9524000Y13469000D02*
G01*
X-9524000Y11169000D01*
X-13124000Y11769000D01*
X-13124000Y12869000D01*
X-9524000Y13469000D01*
G37*
%TD.AperFunction*%
%TA.AperFunction,SMDPad,CuDef*%
%TO.P,D1,1*%
%TO.N,Net-(D1-Pad1)*%
G36*
X-18924000Y11169000D02*
G01*
X-18924000Y13469000D01*
X-15324000Y12869000D01*
X-15324000Y11769000D01*
X-18924000Y11169000D01*
G37*
%TD.AperFunction*%
%TD*%
D15*
%TO.P,D2,3*%
%TO.N,GND*%
X-13208000Y8890000D03*
%TO.P,D2,2*%
%TO.N,/VIN*%
X-12258000Y5590000D03*
%TO.P,D2,1*%
%TO.N,+7.5V*%
X-14158000Y5590000D03*
%TD*%
D16*
%TO.P,TP19,1*%
%TO.N,/VIN-*%
X2286000Y-3048000D03*
%TD*%
%TO.P,TP18,1*%
%TO.N,/VIN+*%
X2286000Y4826000D03*
%TD*%
%TO.P,TP14,1*%
%TO.N,/VO+*%
X-1651000Y-7112000D03*
%TD*%
%TO.P,TP12,1*%
%TO.N,/VO-*%
X-1270000Y6096000D03*
%TD*%
%TO.P,TP8,1*%
%TO.N,/EXTSYNC*%
X23749000Y14351000D03*
%TD*%
%TO.P,TP7,1*%
%TO.N,/DVDD*%
X13081000Y-11430000D03*
%TD*%
%TO.P,TP6,1*%
%TO.N,/AVDD*%
X4826000Y13335000D03*
%TD*%
%TO.P,TP5,1*%
%TO.N,/VOS2*%
X-8890000Y-4318000D03*
%TD*%
%TO.P,TP4,1*%
%TO.N,+5V*%
X-4191000Y-12827000D03*
%TD*%
%TO.P,TP3,1*%
%TO.N,/VOS1*%
X-9652000Y5461000D03*
%TD*%
%TO.P,TP2,1*%
%TO.N,/VREF*%
X-381000Y15367000D03*
%TD*%
%TO.P,TP1,1*%
%TO.N,+7.5V*%
X-9525000Y16510000D03*
%TD*%
%TO.P,R10,2*%
%TO.N,GND*%
%TA.AperFunction,SMDPad,CuDef*%
G36*
G01*
X26283000Y17036999D02*
X26283000Y17937001D01*
G75*
G02*
X26532999Y18187000I249999J0D01*
G01*
X27183001Y18187000D01*
G75*
G02*
X27433000Y17937001I0J-249999D01*
G01*
X27433000Y17036999D01*
G75*
G02*
X27183001Y16787000I-249999J0D01*
G01*
X26532999Y16787000D01*
G75*
G02*
X26283000Y17036999I0J249999D01*
G01*
G37*
%TD.AperFunction*%
%TO.P,R10,1*%
%TO.N,/EXTSYNC*%
%TA.AperFunction,SMDPad,CuDef*%
G36*
G01*
X24233000Y17036999D02*
X24233000Y17937001D01*
G75*
G02*
X24482999Y18187000I249999J0D01*
G01*
X25133001Y18187000D01*
G75*
G02*
X25383000Y17937001I0J-249999D01*
G01*
X25383000Y17036999D01*
G75*
G02*
X25133001Y16787000I-249999J0D01*
G01*
X24482999Y16787000D01*
G75*
G02*
X24233000Y17036999I0J249999D01*
G01*
G37*
%TD.AperFunction*%
%TD*%
%TO.P,R9,2*%
%TO.N,/EXTSYNC*%
%TA.AperFunction,SMDPad,CuDef*%
G36*
G01*
X22285000Y17075999D02*
X22285000Y17976001D01*
G75*
G02*
X22534999Y18226000I249999J0D01*
G01*
X23185001Y18226000D01*
G75*
G02*
X23435000Y17976001I0J-249999D01*
G01*
X23435000Y17075999D01*
G75*
G02*
X23185001Y16826000I-249999J0D01*
G01*
X22534999Y16826000D01*
G75*
G02*
X22285000Y17075999I0J249999D01*
G01*
G37*
%TD.AperFunction*%
%TO.P,R9,1*%
%TO.N,Net-(J2-Pad1)*%
%TA.AperFunction,SMDPad,CuDef*%
G36*
G01*
X20235000Y17075999D02*
X20235000Y17976001D01*
G75*
G02*
X20484999Y18226000I249999J0D01*
G01*
X21135001Y18226000D01*
G75*
G02*
X21385000Y17976001I0J-249999D01*
G01*
X21385000Y17075999D01*
G75*
G02*
X21135001Y16826000I-249999J0D01*
G01*
X20484999Y16826000D01*
G75*
G02*
X20235000Y17075999I0J249999D01*
G01*
G37*
%TD.AperFunction*%
%TD*%
D17*
%TO.P,J4,10*%
%TO.N,/MC8*%
X54102000Y-27559000D03*
%TO.P,J4,9*%
%TO.N,/MC7*%
X54102000Y-25019000D03*
%TO.P,J4,8*%
%TO.N,/MC6*%
X54102000Y-22479000D03*
%TO.P,J4,7*%
%TO.N,/MC5*%
X54102000Y-19939000D03*
%TO.P,J4,6*%
%TO.N,/MC4*%
X54102000Y-17399000D03*
%TO.P,J4,5*%
%TO.N,/MC3*%
X54102000Y-14859000D03*
%TO.P,J4,4*%
%TO.N,/MC2*%
X54102000Y-12319000D03*
%TO.P,J4,3*%
%TO.N,/MC1*%
X54102000Y-9779000D03*
%TO.P,J4,2*%
%TO.N,Net-(J4-Pad2)*%
X54102000Y-7239000D03*
D18*
%TO.P,J4,1*%
%TO.N,/VDRIVE*%
X54102000Y-4699000D03*
%TD*%
D17*
%TO.P,J3,6*%
%TO.N,/EXT6*%
X54229000Y-127000D03*
%TO.P,J3,5*%
%TO.N,/EXT5*%
X54229000Y2413000D03*
%TO.P,J3,4*%
%TO.N,/EXT4*%
X54229000Y4953000D03*
%TO.P,J3,3*%
%TO.N,/EXT3*%
X54229000Y7493000D03*
%TO.P,J3,2*%
%TO.N,/EXT2*%
X54229000Y10033000D03*
D18*
%TO.P,J3,1*%
%TO.N,/EXT1*%
X54229000Y12573000D03*
%TD*%
D19*
%TO.P,U9,67*%
%TO.N,Net-(U9-Pad67)*%
X41402000Y28480000D03*
%TO.P,U9,66*%
%TO.N,Net-(U9-Pad66)*%
X38862000Y28480000D03*
D20*
%TO.P,U9,54*%
%TO.N,Net-(U9-Pad54)*%
X45212000Y-16510000D03*
%TO.P,U9,53*%
%TO.N,Net-(U9-Pad53)*%
X42672000Y-16510000D03*
%TO.P,U9,52*%
%TO.N,Net-(U9-Pad52)*%
X40132000Y-16510000D03*
%TO.P,U9,51*%
%TO.N,Net-(U9-Pad51)*%
X37592000Y-16510000D03*
%TO.P,U9,50*%
%TO.N,Net-(U9-Pad50)*%
X35052000Y-16510000D03*
D19*
%TO.P,U9,62*%
%TO.N,Net-(U9-Pad62)*%
X41313600Y16240000D03*
%TO.P,U9,63*%
%TO.N,Net-(U9-Pad63)*%
X41313600Y14240000D03*
%TO.P,U9,64*%
%TO.N,Net-(U9-Pad64)*%
X43313600Y14240000D03*
%TO.P,U9,61*%
%TO.N,Net-(U9-Pad61)*%
X43313600Y16240000D03*
%TO.P,U9,65*%
%TO.N,Net-(U9-Pad65)*%
X45313600Y14240000D03*
D21*
%TO.P,U9,60*%
%TO.N,Net-(U9-Pad60)*%
X45313600Y16240000D03*
D20*
%TO.P,U9,17*%
%TO.N,Net-(U9-Pad17)*%
X32512000Y-11430000D03*
%TO.P,U9,18*%
%TO.N,Net-(U9-Pad18)*%
X32512000Y-13970000D03*
%TO.P,U9,19*%
%TO.N,Net-(U9-Pad19)*%
X32512000Y-16510000D03*
%TO.P,U9,20*%
%TO.N,Net-(U9-Pad20)*%
X32512000Y-19050000D03*
%TO.P,U9,16*%
%TO.N,Net-(U9-Pad16)*%
X32512000Y-8890000D03*
%TO.P,U9,15*%
%TO.N,/VDRIVE*%
X32512000Y-6350000D03*
%TO.P,U9,14*%
%TO.N,/MISO*%
X32512000Y-3810000D03*
%TO.P,U9,21*%
%TO.N,Net-(U9-Pad21)*%
X32512000Y-21590000D03*
%TO.P,U9,22*%
%TO.N,Net-(U9-Pad22)*%
X32512000Y-24130000D03*
%TO.P,U9,23*%
%TO.N,Net-(U9-Pad23)*%
X32512000Y-26670000D03*
%TO.P,U9,24*%
%TO.N,Net-(U9-Pad24)*%
X32512000Y-29210000D03*
%TO.P,U9,25*%
%TO.N,Net-(U9-Pad25)*%
X47752000Y-29210000D03*
%TO.P,U9,26*%
%TO.N,/MC8*%
X47752000Y-26670000D03*
%TO.P,U9,27*%
%TO.N,/MC7*%
X47752000Y-24130000D03*
%TO.P,U9,28*%
%TO.N,/MC6*%
X47752000Y-21590000D03*
%TO.P,U9,29*%
%TO.N,/MC5*%
X47752000Y-19050000D03*
%TO.P,U9,30*%
%TO.N,/MC4*%
X47752000Y-16510000D03*
%TO.P,U9,31*%
%TO.N,/MC3*%
X47752000Y-13970000D03*
%TO.P,U9,32*%
%TO.N,/MC2*%
X47752000Y-11430000D03*
%TO.P,U9,33*%
%TO.N,/MC1*%
X47752000Y-8890000D03*
%TO.P,U9,34*%
%TO.N,Net-(J4-Pad2)*%
X47752000Y-6350000D03*
%TO.P,U9,13*%
%TO.N,/MOSI*%
X32512000Y-1270000D03*
%TO.P,U9,12*%
%TO.N,Net-(U9-Pad12)*%
X32512000Y1270000D03*
%TO.P,U9,11*%
%TO.N,/CS*%
X32512000Y3810000D03*
%TO.P,U9,10*%
%TO.N,/DRDY*%
X32512000Y6350000D03*
%TO.P,U9,9*%
%TO.N,/MCLK*%
X32512000Y8890000D03*
%TO.P,U9,8*%
%TO.N,/SYNCPD*%
X32512000Y11430000D03*
%TO.P,U9,7*%
%TO.N,/EXTSYNC*%
X32512000Y13970000D03*
%TO.P,U9,6*%
%TO.N,Net-(U9-Pad6)*%
X32512000Y16510000D03*
%TO.P,U9,5*%
%TO.N,Net-(U9-Pad5)*%
X32512000Y19050000D03*
%TO.P,U9,4*%
%TO.N,Net-(U9-Pad4)*%
X32512000Y21590000D03*
%TO.P,U9,3*%
%TO.N,Net-(U9-Pad3)*%
X32512000Y24130000D03*
%TO.P,U9,2*%
%TO.N,Net-(U9-Pad2)*%
X32512000Y26670000D03*
D22*
%TO.P,U9,1*%
%TO.N,GND*%
X32512000Y29210000D03*
D20*
%TO.P,U9,35*%
%TO.N,/SCK*%
X47752000Y-3810000D03*
%TO.P,U9,36*%
%TO.N,/EXT6*%
X47752000Y-1270000D03*
%TO.P,U9,37*%
%TO.N,/EXT5*%
X47752000Y1270000D03*
%TO.P,U9,38*%
%TO.N,/EXT4*%
X47752000Y3810000D03*
%TO.P,U9,39*%
%TO.N,/EXT3*%
X47752000Y6350000D03*
%TO.P,U9,40*%
%TO.N,/EXT2*%
X47752000Y8890000D03*
%TO.P,U9,41*%
%TO.N,/EXT1*%
X47752000Y11430000D03*
%TO.P,U9,42*%
%TO.N,Net-(U9-Pad42)*%
X47752000Y13970000D03*
%TO.P,U9,43*%
%TO.N,Net-(U9-Pad43)*%
X47752000Y16510000D03*
%TO.P,U9,44*%
%TO.N,Net-(U9-Pad44)*%
X47752000Y19050000D03*
%TO.P,U9,45*%
%TO.N,Net-(U9-Pad45)*%
X47752000Y21590000D03*
%TO.P,U9,46*%
%TO.N,Net-(U9-Pad46)*%
X47752000Y24130000D03*
%TO.P,U9,47*%
%TO.N,Net-(U9-Pad47)*%
X47752000Y26670000D03*
%TO.P,U9,48*%
%TO.N,Net-(U9-Pad48)*%
X47752000Y29210000D03*
D22*
%TO.P,U9,55*%
%TO.N,Net-(U9-Pad55)*%
X35562800Y22910800D03*
D20*
%TO.P,U9,56*%
%TO.N,Net-(U9-Pad56)*%
X35562800Y20370800D03*
%TO.P,U9,57*%
%TO.N,Net-(U9-Pad57)*%
X35562800Y17830800D03*
%TO.P,U9,58*%
%TO.N,Net-(U9-Pad58)*%
X35562800Y15290800D03*
%TO.P,U9,59*%
%TO.N,Net-(U9-Pad59)*%
X35562800Y12750800D03*
%TO.P,U9,49*%
%TO.N,Net-(U9-Pad49)*%
X45212000Y26670000D03*
%TD*%
%TO.P,U8,16*%
%TO.N,/CS*%
%TA.AperFunction,SMDPad,CuDef*%
G36*
G01*
X14121500Y3105000D02*
X14121500Y3305000D01*
G75*
G02*
X14221500Y3405000I100000J0D01*
G01*
X15496500Y3405000D01*
G75*
G02*
X15596500Y3305000I0J-100000D01*
G01*
X15596500Y3105000D01*
G75*
G02*
X15496500Y3005000I-100000J0D01*
G01*
X14221500Y3005000D01*
G75*
G02*
X14121500Y3105000I0J100000D01*
G01*
G37*
%TD.AperFunction*%
%TO.P,U8,15*%
%TO.N,/MOSI*%
%TA.AperFunction,SMDPad,CuDef*%
G36*
G01*
X14121500Y2455000D02*
X14121500Y2655000D01*
G75*
G02*
X14221500Y2755000I100000J0D01*
G01*
X15496500Y2755000D01*
G75*
G02*
X15596500Y2655000I0J-100000D01*
G01*
X15596500Y2455000D01*
G75*
G02*
X15496500Y2355000I-100000J0D01*
G01*
X14221500Y2355000D01*
G75*
G02*
X14121500Y2455000I0J100000D01*
G01*
G37*
%TD.AperFunction*%
%TO.P,U8,14*%
%TO.N,/MCLK*%
%TA.AperFunction,SMDPad,CuDef*%
G36*
G01*
X14121500Y1805000D02*
X14121500Y2005000D01*
G75*
G02*
X14221500Y2105000I100000J0D01*
G01*
X15496500Y2105000D01*
G75*
G02*
X15596500Y2005000I0J-100000D01*
G01*
X15596500Y1805000D01*
G75*
G02*
X15496500Y1705000I-100000J0D01*
G01*
X14221500Y1705000D01*
G75*
G02*
X14121500Y1805000I0J100000D01*
G01*
G37*
%TD.AperFunction*%
%TO.P,U8,13*%
%TO.N,/SCK*%
%TA.AperFunction,SMDPad,CuDef*%
G36*
G01*
X14121500Y1155000D02*
X14121500Y1355000D01*
G75*
G02*
X14221500Y1455000I100000J0D01*
G01*
X15496500Y1455000D01*
G75*
G02*
X15596500Y1355000I0J-100000D01*
G01*
X15596500Y1155000D01*
G75*
G02*
X15496500Y1055000I-100000J0D01*
G01*
X14221500Y1055000D01*
G75*
G02*
X14121500Y1155000I0J100000D01*
G01*
G37*
%TD.AperFunction*%
%TO.P,U8,12*%
%TO.N,/DRDY*%
%TA.AperFunction,SMDPad,CuDef*%
G36*
G01*
X14121500Y505000D02*
X14121500Y705000D01*
G75*
G02*
X14221500Y805000I100000J0D01*
G01*
X15496500Y805000D01*
G75*
G02*
X15596500Y705000I0J-100000D01*
G01*
X15596500Y505000D01*
G75*
G02*
X15496500Y405000I-100000J0D01*
G01*
X14221500Y405000D01*
G75*
G02*
X14121500Y505000I0J100000D01*
G01*
G37*
%TD.AperFunction*%
%TO.P,U8,11*%
%TO.N,GND*%
%TA.AperFunction,SMDPad,CuDef*%
G36*
G01*
X14121500Y-145000D02*
X14121500Y55000D01*
G75*
G02*
X14221500Y155000I100000J0D01*
G01*
X15496500Y155000D01*
G75*
G02*
X15596500Y55000I0J-100000D01*
G01*
X15596500Y-145000D01*
G75*
G02*
X15496500Y-245000I-100000J0D01*
G01*
X14221500Y-245000D01*
G75*
G02*
X14121500Y-145000I0J100000D01*
G01*
G37*
%TD.AperFunction*%
%TO.P,U8,10*%
%TO.N,/MISO*%
%TA.AperFunction,SMDPad,CuDef*%
G36*
G01*
X14121500Y-795000D02*
X14121500Y-595000D01*
G75*
G02*
X14221500Y-495000I100000J0D01*
G01*
X15496500Y-495000D01*
G75*
G02*
X15596500Y-595000I0J-100000D01*
G01*
X15596500Y-795000D01*
G75*
G02*
X15496500Y-895000I-100000J0D01*
G01*
X14221500Y-895000D01*
G75*
G02*
X14121500Y-795000I0J100000D01*
G01*
G37*
%TD.AperFunction*%
%TO.P,U8,9*%
%TO.N,/VDRIVE*%
%TA.AperFunction,SMDPad,CuDef*%
G36*
G01*
X14121500Y-1445000D02*
X14121500Y-1245000D01*
G75*
G02*
X14221500Y-1145000I100000J0D01*
G01*
X15496500Y-1145000D01*
G75*
G02*
X15596500Y-1245000I0J-100000D01*
G01*
X15596500Y-1445000D01*
G75*
G02*
X15496500Y-1545000I-100000J0D01*
G01*
X14221500Y-1545000D01*
G75*
G02*
X14121500Y-1445000I0J100000D01*
G01*
G37*
%TD.AperFunction*%
%TO.P,U8,8*%
%TO.N,/DVDD*%
%TA.AperFunction,SMDPad,CuDef*%
G36*
G01*
X8396500Y-1445000D02*
X8396500Y-1245000D01*
G75*
G02*
X8496500Y-1145000I100000J0D01*
G01*
X9771500Y-1145000D01*
G75*
G02*
X9871500Y-1245000I0J-100000D01*
G01*
X9871500Y-1445000D01*
G75*
G02*
X9771500Y-1545000I-100000J0D01*
G01*
X8496500Y-1545000D01*
G75*
G02*
X8396500Y-1445000I0J100000D01*
G01*
G37*
%TD.AperFunction*%
%TO.P,U8,7*%
%TO.N,/SYNCPD*%
%TA.AperFunction,SMDPad,CuDef*%
G36*
G01*
X8396500Y-795000D02*
X8396500Y-595000D01*
G75*
G02*
X8496500Y-495000I100000J0D01*
G01*
X9771500Y-495000D01*
G75*
G02*
X9871500Y-595000I0J-100000D01*
G01*
X9871500Y-795000D01*
G75*
G02*
X9771500Y-895000I-100000J0D01*
G01*
X8496500Y-895000D01*
G75*
G02*
X8396500Y-795000I0J100000D01*
G01*
G37*
%TD.AperFunction*%
%TO.P,U8,6*%
%TO.N,GND*%
%TA.AperFunction,SMDPad,CuDef*%
G36*
G01*
X8396500Y-145000D02*
X8396500Y55000D01*
G75*
G02*
X8496500Y155000I100000J0D01*
G01*
X9771500Y155000D01*
G75*
G02*
X9871500Y55000I0J-100000D01*
G01*
X9871500Y-145000D01*
G75*
G02*
X9771500Y-245000I-100000J0D01*
G01*
X8496500Y-245000D01*
G75*
G02*
X8396500Y-145000I0J100000D01*
G01*
G37*
%TD.AperFunction*%
%TO.P,U8,5*%
%TO.N,/VIN-*%
%TA.AperFunction,SMDPad,CuDef*%
G36*
G01*
X8396500Y505000D02*
X8396500Y705000D01*
G75*
G02*
X8496500Y805000I100000J0D01*
G01*
X9771500Y805000D01*
G75*
G02*
X9871500Y705000I0J-100000D01*
G01*
X9871500Y505000D01*
G75*
G02*
X9771500Y405000I-100000J0D01*
G01*
X8496500Y405000D01*
G75*
G02*
X8396500Y505000I0J100000D01*
G01*
G37*
%TD.AperFunction*%
%TO.P,U8,4*%
%TO.N,/VIN+*%
%TA.AperFunction,SMDPad,CuDef*%
G36*
G01*
X8396500Y1155000D02*
X8396500Y1355000D01*
G75*
G02*
X8496500Y1455000I100000J0D01*
G01*
X9771500Y1455000D01*
G75*
G02*
X9871500Y1355000I0J-100000D01*
G01*
X9871500Y1155000D01*
G75*
G02*
X9771500Y1055000I-100000J0D01*
G01*
X8496500Y1055000D01*
G75*
G02*
X8396500Y1155000I0J100000D01*
G01*
G37*
%TD.AperFunction*%
%TO.P,U8,3*%
%TO.N,GND*%
%TA.AperFunction,SMDPad,CuDef*%
G36*
G01*
X8396500Y1805000D02*
X8396500Y2005000D01*
G75*
G02*
X8496500Y2105000I100000J0D01*
G01*
X9771500Y2105000D01*
G75*
G02*
X9871500Y2005000I0J-100000D01*
G01*
X9871500Y1805000D01*
G75*
G02*
X9771500Y1705000I-100000J0D01*
G01*
X8496500Y1705000D01*
G75*
G02*
X8396500Y1805000I0J100000D01*
G01*
G37*
%TD.AperFunction*%
%TO.P,U8,2*%
%TO.N,/VREF*%
%TA.AperFunction,SMDPad,CuDef*%
G36*
G01*
X8396500Y2455000D02*
X8396500Y2655000D01*
G75*
G02*
X8496500Y2755000I100000J0D01*
G01*
X9771500Y2755000D01*
G75*
G02*
X9871500Y2655000I0J-100000D01*
G01*
X9871500Y2455000D01*
G75*
G02*
X9771500Y2355000I-100000J0D01*
G01*
X8496500Y2355000D01*
G75*
G02*
X8396500Y2455000I0J100000D01*
G01*
G37*
%TD.AperFunction*%
%TO.P,U8,1*%
%TO.N,/AVDD*%
%TA.AperFunction,SMDPad,CuDef*%
G36*
G01*
X8396500Y3105000D02*
X8396500Y3305000D01*
G75*
G02*
X8496500Y3405000I100000J0D01*
G01*
X9771500Y3405000D01*
G75*
G02*
X9871500Y3305000I0J-100000D01*
G01*
X9871500Y3105000D01*
G75*
G02*
X9771500Y3005000I-100000J0D01*
G01*
X8496500Y3005000D01*
G75*
G02*
X8396500Y3105000I0J100000D01*
G01*
G37*
%TD.AperFunction*%
%TD*%
D23*
%TO.P,U7,9*%
%TO.N,N/C*%
X-5195000Y825500D03*
%TO.P,U7,8*%
%TO.N,/VOS1*%
%TA.AperFunction,SMDPad,CuDef*%
G36*
G01*
X-6950000Y2325500D02*
X-7250000Y2325500D01*
G75*
G02*
X-7400000Y2475500I0J150000D01*
G01*
X-7400000Y4125500D01*
G75*
G02*
X-7250000Y4275500I150000J0D01*
G01*
X-6950000Y4275500D01*
G75*
G02*
X-6800000Y4125500I0J-150000D01*
G01*
X-6800000Y2475500D01*
G75*
G02*
X-6950000Y2325500I-150000J0D01*
G01*
G37*
%TD.AperFunction*%
%TO.P,U7,7*%
%TO.N,GND*%
%TA.AperFunction,SMDPad,CuDef*%
G36*
G01*
X-5680000Y2325500D02*
X-5980000Y2325500D01*
G75*
G02*
X-6130000Y2475500I0J150000D01*
G01*
X-6130000Y4125500D01*
G75*
G02*
X-5980000Y4275500I150000J0D01*
G01*
X-5680000Y4275500D01*
G75*
G02*
X-5530000Y4125500I0J-150000D01*
G01*
X-5530000Y2475500D01*
G75*
G02*
X-5680000Y2325500I-150000J0D01*
G01*
G37*
%TD.AperFunction*%
%TO.P,U7,6*%
%TA.AperFunction,SMDPad,CuDef*%
G36*
G01*
X-4410000Y2325500D02*
X-4710000Y2325500D01*
G75*
G02*
X-4860000Y2475500I0J150000D01*
G01*
X-4860000Y4125500D01*
G75*
G02*
X-4710000Y4275500I150000J0D01*
G01*
X-4410000Y4275500D01*
G75*
G02*
X-4260000Y4125500I0J-150000D01*
G01*
X-4260000Y2475500D01*
G75*
G02*
X-4410000Y2325500I-150000J0D01*
G01*
G37*
%TD.AperFunction*%
%TO.P,U7,5*%
%TO.N,/VO-*%
%TA.AperFunction,SMDPad,CuDef*%
G36*
G01*
X-3140000Y2325500D02*
X-3440000Y2325500D01*
G75*
G02*
X-3590000Y2475500I0J150000D01*
G01*
X-3590000Y4125500D01*
G75*
G02*
X-3440000Y4275500I150000J0D01*
G01*
X-3140000Y4275500D01*
G75*
G02*
X-2990000Y4125500I0J-150000D01*
G01*
X-2990000Y2475500D01*
G75*
G02*
X-3140000Y2325500I-150000J0D01*
G01*
G37*
%TD.AperFunction*%
%TO.P,U7,4*%
%TO.N,/VO+*%
%TA.AperFunction,SMDPad,CuDef*%
G36*
G01*
X-3140000Y-2624500D02*
X-3440000Y-2624500D01*
G75*
G02*
X-3590000Y-2474500I0J150000D01*
G01*
X-3590000Y-824500D01*
G75*
G02*
X-3440000Y-674500I150000J0D01*
G01*
X-3140000Y-674500D01*
G75*
G02*
X-2990000Y-824500I0J-150000D01*
G01*
X-2990000Y-2474500D01*
G75*
G02*
X-3140000Y-2624500I-150000J0D01*
G01*
G37*
%TD.AperFunction*%
%TO.P,U7,3*%
%TO.N,+5V*%
%TA.AperFunction,SMDPad,CuDef*%
G36*
G01*
X-4410000Y-2624500D02*
X-4710000Y-2624500D01*
G75*
G02*
X-4860000Y-2474500I0J150000D01*
G01*
X-4860000Y-824500D01*
G75*
G02*
X-4710000Y-674500I150000J0D01*
G01*
X-4410000Y-674500D01*
G75*
G02*
X-4260000Y-824500I0J-150000D01*
G01*
X-4260000Y-2474500D01*
G75*
G02*
X-4410000Y-2624500I-150000J0D01*
G01*
G37*
%TD.AperFunction*%
%TO.P,U7,2*%
%TO.N,/VOS2*%
%TA.AperFunction,SMDPad,CuDef*%
G36*
G01*
X-5680000Y-2624500D02*
X-5980000Y-2624500D01*
G75*
G02*
X-6130000Y-2474500I0J150000D01*
G01*
X-6130000Y-824500D01*
G75*
G02*
X-5980000Y-674500I150000J0D01*
G01*
X-5680000Y-674500D01*
G75*
G02*
X-5530000Y-824500I0J-150000D01*
G01*
X-5530000Y-2474500D01*
G75*
G02*
X-5680000Y-2624500I-150000J0D01*
G01*
G37*
%TD.AperFunction*%
%TO.P,U7,1*%
%TO.N,Net-(R3-Pad1)*%
%TA.AperFunction,SMDPad,CuDef*%
G36*
G01*
X-6950000Y-2624500D02*
X-7250000Y-2624500D01*
G75*
G02*
X-7400000Y-2474500I0J150000D01*
G01*
X-7400000Y-824500D01*
G75*
G02*
X-7250000Y-674500I150000J0D01*
G01*
X-6950000Y-674500D01*
G75*
G02*
X-6800000Y-824500I0J-150000D01*
G01*
X-6800000Y-2474500D01*
G75*
G02*
X-6950000Y-2624500I-150000J0D01*
G01*
G37*
%TD.AperFunction*%
%TD*%
D24*
%TO.P,U6,5*%
%TO.N,Net-(U6-Pad5)*%
X14224000Y-16063000D03*
%TO.P,U6,6*%
%TO.N,+7.5V*%
X14224000Y-15113000D03*
%TO.P,U6,4*%
%TO.N,GND*%
X14224000Y-17013000D03*
%TO.P,U6,3*%
%TO.N,Net-(U6-Pad3)*%
X11524000Y-17013000D03*
%TO.P,U6,2*%
%TO.N,+7.5V*%
X11524000Y-16063000D03*
%TO.P,U6,1*%
%TO.N,/DVDD_D*%
X11524000Y-15113000D03*
%TD*%
%TO.P,U5,5*%
%TO.N,Net-(U5-Pad5)*%
X8175000Y17827000D03*
%TO.P,U5,6*%
%TO.N,+7.5V*%
X8175000Y16877000D03*
%TO.P,U5,4*%
%TO.N,GND*%
X8175000Y18777000D03*
%TO.P,U5,3*%
%TO.N,Net-(U5-Pad3)*%
X10875000Y18777000D03*
%TO.P,U5,2*%
%TO.N,+7.5V*%
X10875000Y17827000D03*
%TO.P,U5,1*%
%TO.N,/AVDD_D*%
X10875000Y16877000D03*
%TD*%
D25*
%TO.P,U4,5*%
%TO.N,Net-(U4-Pad5)*%
X-14539000Y-14257000D03*
%TO.P,U4,6*%
%TO.N,+7.5V*%
X-13589000Y-14257000D03*
%TO.P,U4,4*%
%TO.N,GND*%
X-15489000Y-14257000D03*
%TO.P,U4,3*%
%TO.N,Net-(U4-Pad3)*%
X-15489000Y-11557000D03*
%TO.P,U4,2*%
%TO.N,+7.5V*%
X-14539000Y-11557000D03*
%TO.P,U4,1*%
%TO.N,Net-(C7-Pad1)*%
X-13589000Y-11557000D03*
%TD*%
D26*
%TO.P,U3,9*%
%TO.N,N/C*%
X-635000Y10668000D03*
%TO.P,U3,8*%
%TO.N,Net-(U3-Pad8)*%
%TA.AperFunction,SMDPad,CuDef*%
G36*
G01*
X865000Y12423000D02*
X865000Y12723000D01*
G75*
G02*
X1015000Y12873000I150000J0D01*
G01*
X2665000Y12873000D01*
G75*
G02*
X2815000Y12723000I0J-150000D01*
G01*
X2815000Y12423000D01*
G75*
G02*
X2665000Y12273000I-150000J0D01*
G01*
X1015000Y12273000D01*
G75*
G02*
X865000Y12423000I0J150000D01*
G01*
G37*
%TD.AperFunction*%
%TO.P,U3,7*%
%TO.N,Net-(U3-Pad7)*%
%TA.AperFunction,SMDPad,CuDef*%
G36*
G01*
X865000Y11153000D02*
X865000Y11453000D01*
G75*
G02*
X1015000Y11603000I150000J0D01*
G01*
X2665000Y11603000D01*
G75*
G02*
X2815000Y11453000I0J-150000D01*
G01*
X2815000Y11153000D01*
G75*
G02*
X2665000Y11003000I-150000J0D01*
G01*
X1015000Y11003000D01*
G75*
G02*
X865000Y11153000I0J150000D01*
G01*
G37*
%TD.AperFunction*%
%TO.P,U3,6*%
%TO.N,/VREF*%
%TA.AperFunction,SMDPad,CuDef*%
G36*
G01*
X865000Y9883000D02*
X865000Y10183000D01*
G75*
G02*
X1015000Y10333000I150000J0D01*
G01*
X2665000Y10333000D01*
G75*
G02*
X2815000Y10183000I0J-150000D01*
G01*
X2815000Y9883000D01*
G75*
G02*
X2665000Y9733000I-150000J0D01*
G01*
X1015000Y9733000D01*
G75*
G02*
X865000Y9883000I0J150000D01*
G01*
G37*
%TD.AperFunction*%
%TO.P,U3,5*%
%TO.N,Net-(U3-Pad5)*%
%TA.AperFunction,SMDPad,CuDef*%
G36*
G01*
X865000Y8613000D02*
X865000Y8913000D01*
G75*
G02*
X1015000Y9063000I150000J0D01*
G01*
X2665000Y9063000D01*
G75*
G02*
X2815000Y8913000I0J-150000D01*
G01*
X2815000Y8613000D01*
G75*
G02*
X2665000Y8463000I-150000J0D01*
G01*
X1015000Y8463000D01*
G75*
G02*
X865000Y8613000I0J150000D01*
G01*
G37*
%TD.AperFunction*%
%TO.P,U3,4*%
%TO.N,GND*%
%TA.AperFunction,SMDPad,CuDef*%
G36*
G01*
X-4085000Y8613000D02*
X-4085000Y8913000D01*
G75*
G02*
X-3935000Y9063000I150000J0D01*
G01*
X-2285000Y9063000D01*
G75*
G02*
X-2135000Y8913000I0J-150000D01*
G01*
X-2135000Y8613000D01*
G75*
G02*
X-2285000Y8463000I-150000J0D01*
G01*
X-3935000Y8463000D01*
G75*
G02*
X-4085000Y8613000I0J150000D01*
G01*
G37*
%TD.AperFunction*%
%TO.P,U3,3*%
%TO.N,Net-(U3-Pad3)*%
%TA.AperFunction,SMDPad,CuDef*%
G36*
G01*
X-4085000Y9883000D02*
X-4085000Y10183000D01*
G75*
G02*
X-3935000Y10333000I150000J0D01*
G01*
X-2285000Y10333000D01*
G75*
G02*
X-2135000Y10183000I0J-150000D01*
G01*
X-2135000Y9883000D01*
G75*
G02*
X-2285000Y9733000I-150000J0D01*
G01*
X-3935000Y9733000D01*
G75*
G02*
X-4085000Y9883000I0J150000D01*
G01*
G37*
%TD.AperFunction*%
%TO.P,U3,2*%
%TO.N,+7.5V*%
%TA.AperFunction,SMDPad,CuDef*%
G36*
G01*
X-4085000Y11153000D02*
X-4085000Y11453000D01*
G75*
G02*
X-3935000Y11603000I150000J0D01*
G01*
X-2285000Y11603000D01*
G75*
G02*
X-2135000Y11453000I0J-150000D01*
G01*
X-2135000Y11153000D01*
G75*
G02*
X-2285000Y11003000I-150000J0D01*
G01*
X-3935000Y11003000D01*
G75*
G02*
X-4085000Y11153000I0J150000D01*
G01*
G37*
%TD.AperFunction*%
%TO.P,U3,1*%
%TO.N,Net-(U3-Pad1)*%
%TA.AperFunction,SMDPad,CuDef*%
G36*
G01*
X-4085000Y12423000D02*
X-4085000Y12723000D01*
G75*
G02*
X-3935000Y12873000I150000J0D01*
G01*
X-2285000Y12873000D01*
G75*
G02*
X-2135000Y12723000I0J-150000D01*
G01*
X-2135000Y12423000D01*
G75*
G02*
X-2285000Y12273000I-150000J0D01*
G01*
X-3935000Y12273000D01*
G75*
G02*
X-4085000Y12423000I0J150000D01*
G01*
G37*
%TD.AperFunction*%
%TD*%
D27*
%TO.P,U2,1*%
%TO.N,GND*%
X3810000Y24892000D03*
%TD*%
%TO.P,U1,1*%
%TO.N,Net-(D1-Pad1)*%
X-8382000Y24257000D03*
%TD*%
%TO.P,R8,2*%
%TO.N,/VO+*%
%TA.AperFunction,SMDPad,CuDef*%
G36*
G01*
X1319000Y196001D02*
X1319000Y-704001D01*
G75*
G02*
X1069001Y-954000I-249999J0D01*
G01*
X418999Y-954000D01*
G75*
G02*
X169000Y-704001I0J249999D01*
G01*
X169000Y196001D01*
G75*
G02*
X418999Y446000I249999J0D01*
G01*
X1069001Y446000D01*
G75*
G02*
X1319000Y196001I0J-249999D01*
G01*
G37*
%TD.AperFunction*%
%TO.P,R8,1*%
%TO.N,/VIN-*%
%TA.AperFunction,SMDPad,CuDef*%
G36*
G01*
X3369000Y196001D02*
X3369000Y-704001D01*
G75*
G02*
X3119001Y-954000I-249999J0D01*
G01*
X2468999Y-954000D01*
G75*
G02*
X2219000Y-704001I0J249999D01*
G01*
X2219000Y196001D01*
G75*
G02*
X2468999Y446000I249999J0D01*
G01*
X3119001Y446000D01*
G75*
G02*
X3369000Y196001I0J-249999D01*
G01*
G37*
%TD.AperFunction*%
%TD*%
%TO.P,R7,2*%
%TO.N,/VO-*%
%TA.AperFunction,SMDPad,CuDef*%
G36*
G01*
X1319000Y2545501D02*
X1319000Y1645499D01*
G75*
G02*
X1069001Y1395500I-249999J0D01*
G01*
X418999Y1395500D01*
G75*
G02*
X169000Y1645499I0J249999D01*
G01*
X169000Y2545501D01*
G75*
G02*
X418999Y2795500I249999J0D01*
G01*
X1069001Y2795500D01*
G75*
G02*
X1319000Y2545501I0J-249999D01*
G01*
G37*
%TD.AperFunction*%
%TO.P,R7,1*%
%TO.N,/VIN+*%
%TA.AperFunction,SMDPad,CuDef*%
G36*
G01*
X3369000Y2545501D02*
X3369000Y1645499D01*
G75*
G02*
X3119001Y1395500I-249999J0D01*
G01*
X2468999Y1395500D01*
G75*
G02*
X2219000Y1645499I0J249999D01*
G01*
X2219000Y2545501D01*
G75*
G02*
X2468999Y2795500I249999J0D01*
G01*
X3119001Y2795500D01*
G75*
G02*
X3369000Y2545501I0J-249999D01*
G01*
G37*
%TD.AperFunction*%
%TD*%
%TO.P,R6,2*%
%TO.N,Net-(R3-Pad1)*%
%TA.AperFunction,SMDPad,CuDef*%
G36*
G01*
X-5648000Y-4121999D02*
X-5648000Y-5022001D01*
G75*
G02*
X-5897999Y-5272000I-249999J0D01*
G01*
X-6548001Y-5272000D01*
G75*
G02*
X-6798000Y-5022001I0J249999D01*
G01*
X-6798000Y-4121999D01*
G75*
G02*
X-6548001Y-3872000I249999J0D01*
G01*
X-5897999Y-3872000D01*
G75*
G02*
X-5648000Y-4121999I0J-249999D01*
G01*
G37*
%TD.AperFunction*%
%TO.P,R6,1*%
%TO.N,/VO+*%
%TA.AperFunction,SMDPad,CuDef*%
G36*
G01*
X-3598000Y-4121999D02*
X-3598000Y-5022001D01*
G75*
G02*
X-3847999Y-5272000I-249999J0D01*
G01*
X-4498001Y-5272000D01*
G75*
G02*
X-4748000Y-5022001I0J249999D01*
G01*
X-4748000Y-4121999D01*
G75*
G02*
X-4498001Y-3872000I249999J0D01*
G01*
X-3847999Y-3872000D01*
G75*
G02*
X-3598000Y-4121999I0J-249999D01*
G01*
G37*
%TD.AperFunction*%
%TD*%
%TO.P,R3,2*%
%TO.N,/VIN*%
%TA.AperFunction,SMDPad,CuDef*%
G36*
G01*
X-10619000Y-1200999D02*
X-10619000Y-2101001D01*
G75*
G02*
X-10868999Y-2351000I-249999J0D01*
G01*
X-11519001Y-2351000D01*
G75*
G02*
X-11769000Y-2101001I0J249999D01*
G01*
X-11769000Y-1200999D01*
G75*
G02*
X-11519001Y-951000I249999J0D01*
G01*
X-10868999Y-951000D01*
G75*
G02*
X-10619000Y-1200999I0J-249999D01*
G01*
G37*
%TD.AperFunction*%
%TO.P,R3,1*%
%TO.N,Net-(R3-Pad1)*%
%TA.AperFunction,SMDPad,CuDef*%
G36*
G01*
X-8569000Y-1200999D02*
X-8569000Y-2101001D01*
G75*
G02*
X-8818999Y-2351000I-249999J0D01*
G01*
X-9469001Y-2351000D01*
G75*
G02*
X-9719000Y-2101001I0J249999D01*
G01*
X-9719000Y-1200999D01*
G75*
G02*
X-9469001Y-951000I249999J0D01*
G01*
X-8818999Y-951000D01*
G75*
G02*
X-8569000Y-1200999I0J-249999D01*
G01*
G37*
%TD.AperFunction*%
%TD*%
D28*
%TO.P,J2,2*%
%TO.N,GND*%
X26289000Y27305000D03*
D29*
%TO.P,J2,1*%
%TO.N,Net-(J2-Pad1)*%
X21209000Y22225000D03*
D28*
%TO.P,J2,2*%
%TO.N,GND*%
X16129000Y27305000D03*
D29*
X18669000Y22225000D03*
%TD*%
D30*
%TO.N,GND*%
%TO.C,J1*%
X-13716000Y-4507000D03*
X-13716000Y1205000D03*
D31*
%TD*%
%TO.P,J1,2*%
%TO.N,GND*%
X-16706000Y-4421000D03*
%TO.P,J1,2*%
%TO.N,GND*%
X-16706000Y1119000D03*
%TO.P,J1,1*%
%TO.N,/VIN*%
X-16706000Y-1651000D03*
%TD*%
%TO.P,CD9,2*%
%TO.N,GND*%
%TA.AperFunction,SMDPad,CuDef*%
G36*
G01*
X16570000Y-3625001D02*
X16570000Y-2724999D01*
G75*
G02*
X16819999Y-2475000I249999J0D01*
G01*
X17470001Y-2475000D01*
G75*
G02*
X17720000Y-2724999I0J-249999D01*
G01*
X17720000Y-3625001D01*
G75*
G02*
X17470001Y-3875000I-249999J0D01*
G01*
X16819999Y-3875000D01*
G75*
G02*
X16570000Y-3625001I0J249999D01*
G01*
G37*
%TD.AperFunction*%
%TO.P,CD9,1*%
%TO.N,/VDRIVE*%
%TA.AperFunction,SMDPad,CuDef*%
G36*
G01*
X14520000Y-3625001D02*
X14520000Y-2724999D01*
G75*
G02*
X14769999Y-2475000I249999J0D01*
G01*
X15420001Y-2475000D01*
G75*
G02*
X15670000Y-2724999I0J-249999D01*
G01*
X15670000Y-3625001D01*
G75*
G02*
X15420001Y-3875000I-249999J0D01*
G01*
X14769999Y-3875000D01*
G75*
G02*
X14520000Y-3625001I0J249999D01*
G01*
G37*
%TD.AperFunction*%
%TD*%
%TO.P,CD8,2*%
%TO.N,GND*%
%TA.AperFunction,SMDPad,CuDef*%
G36*
G01*
X16588000Y-5657001D02*
X16588000Y-4756999D01*
G75*
G02*
X16837999Y-4507000I249999J0D01*
G01*
X17488001Y-4507000D01*
G75*
G02*
X17738000Y-4756999I0J-249999D01*
G01*
X17738000Y-5657001D01*
G75*
G02*
X17488001Y-5907000I-249999J0D01*
G01*
X16837999Y-5907000D01*
G75*
G02*
X16588000Y-5657001I0J249999D01*
G01*
G37*
%TD.AperFunction*%
%TO.P,CD8,1*%
%TO.N,/VDRIVE*%
%TA.AperFunction,SMDPad,CuDef*%
G36*
G01*
X14538000Y-5657001D02*
X14538000Y-4756999D01*
G75*
G02*
X14787999Y-4507000I249999J0D01*
G01*
X15438001Y-4507000D01*
G75*
G02*
X15688000Y-4756999I0J-249999D01*
G01*
X15688000Y-5657001D01*
G75*
G02*
X15438001Y-5907000I-249999J0D01*
G01*
X14787999Y-5907000D01*
G75*
G02*
X14538000Y-5657001I0J249999D01*
G01*
G37*
%TD.AperFunction*%
%TD*%
%TO.P,CD7,2*%
%TO.N,GND*%
%TA.AperFunction,SMDPad,CuDef*%
G36*
G01*
X10947000Y8566999D02*
X10947000Y9467001D01*
G75*
G02*
X11196999Y9717000I249999J0D01*
G01*
X11847001Y9717000D01*
G75*
G02*
X12097000Y9467001I0J-249999D01*
G01*
X12097000Y8566999D01*
G75*
G02*
X11847001Y8317000I-249999J0D01*
G01*
X11196999Y8317000D01*
G75*
G02*
X10947000Y8566999I0J249999D01*
G01*
G37*
%TD.AperFunction*%
%TO.P,CD7,1*%
%TO.N,/AVDD*%
%TA.AperFunction,SMDPad,CuDef*%
G36*
G01*
X8897000Y8566999D02*
X8897000Y9467001D01*
G75*
G02*
X9146999Y9717000I249999J0D01*
G01*
X9797001Y9717000D01*
G75*
G02*
X10047000Y9467001I0J-249999D01*
G01*
X10047000Y8566999D01*
G75*
G02*
X9797001Y8317000I-249999J0D01*
G01*
X9146999Y8317000D01*
G75*
G02*
X8897000Y8566999I0J249999D01*
G01*
G37*
%TD.AperFunction*%
%TD*%
%TO.P,CD6,2*%
%TO.N,GND*%
%TA.AperFunction,SMDPad,CuDef*%
G36*
G01*
X16570000Y-7689001D02*
X16570000Y-6788999D01*
G75*
G02*
X16819999Y-6539000I249999J0D01*
G01*
X17470001Y-6539000D01*
G75*
G02*
X17720000Y-6788999I0J-249999D01*
G01*
X17720000Y-7689001D01*
G75*
G02*
X17470001Y-7939000I-249999J0D01*
G01*
X16819999Y-7939000D01*
G75*
G02*
X16570000Y-7689001I0J249999D01*
G01*
G37*
%TD.AperFunction*%
%TO.P,CD6,1*%
%TO.N,/VDRIVE*%
%TA.AperFunction,SMDPad,CuDef*%
G36*
G01*
X14520000Y-7689001D02*
X14520000Y-6788999D01*
G75*
G02*
X14769999Y-6539000I249999J0D01*
G01*
X15420001Y-6539000D01*
G75*
G02*
X15670000Y-6788999I0J-249999D01*
G01*
X15670000Y-7689001D01*
G75*
G02*
X15420001Y-7939000I-249999J0D01*
G01*
X14769999Y-7939000D01*
G75*
G02*
X14520000Y-7689001I0J249999D01*
G01*
G37*
%TD.AperFunction*%
%TD*%
%TO.P,CD5,2*%
%TO.N,GND*%
%TA.AperFunction,SMDPad,CuDef*%
G36*
G01*
X10982000Y6534999D02*
X10982000Y7435001D01*
G75*
G02*
X11231999Y7685000I249999J0D01*
G01*
X11882001Y7685000D01*
G75*
G02*
X12132000Y7435001I0J-249999D01*
G01*
X12132000Y6534999D01*
G75*
G02*
X11882001Y6285000I-249999J0D01*
G01*
X11231999Y6285000D01*
G75*
G02*
X10982000Y6534999I0J249999D01*
G01*
G37*
%TD.AperFunction*%
%TO.P,CD5,1*%
%TO.N,/AVDD*%
%TA.AperFunction,SMDPad,CuDef*%
G36*
G01*
X8932000Y6534999D02*
X8932000Y7435001D01*
G75*
G02*
X9181999Y7685000I249999J0D01*
G01*
X9832001Y7685000D01*
G75*
G02*
X10082000Y7435001I0J-249999D01*
G01*
X10082000Y6534999D01*
G75*
G02*
X9832001Y6285000I-249999J0D01*
G01*
X9181999Y6285000D01*
G75*
G02*
X8932000Y6534999I0J249999D01*
G01*
G37*
%TD.AperFunction*%
%TD*%
%TO.P,CD4,2*%
%TO.N,GND*%
%TA.AperFunction,SMDPad,CuDef*%
G36*
G01*
X10991000Y4502999D02*
X10991000Y5403001D01*
G75*
G02*
X11240999Y5653000I249999J0D01*
G01*
X11891001Y5653000D01*
G75*
G02*
X12141000Y5403001I0J-249999D01*
G01*
X12141000Y4502999D01*
G75*
G02*
X11891001Y4253000I-249999J0D01*
G01*
X11240999Y4253000D01*
G75*
G02*
X10991000Y4502999I0J249999D01*
G01*
G37*
%TD.AperFunction*%
%TO.P,CD4,1*%
%TO.N,/AVDD*%
%TA.AperFunction,SMDPad,CuDef*%
G36*
G01*
X8941000Y4502999D02*
X8941000Y5403001D01*
G75*
G02*
X9190999Y5653000I249999J0D01*
G01*
X9841001Y5653000D01*
G75*
G02*
X10091000Y5403001I0J-249999D01*
G01*
X10091000Y4502999D01*
G75*
G02*
X9841001Y4253000I-249999J0D01*
G01*
X9190999Y4253000D01*
G75*
G02*
X8941000Y4502999I0J249999D01*
G01*
G37*
%TD.AperFunction*%
%TD*%
%TO.P,CD3,2*%
%TO.N,GND*%
%TA.AperFunction,SMDPad,CuDef*%
G36*
G01*
X10492000Y-3625001D02*
X10492000Y-2724999D01*
G75*
G02*
X10741999Y-2475000I249999J0D01*
G01*
X11392001Y-2475000D01*
G75*
G02*
X11642000Y-2724999I0J-249999D01*
G01*
X11642000Y-3625001D01*
G75*
G02*
X11392001Y-3875000I-249999J0D01*
G01*
X10741999Y-3875000D01*
G75*
G02*
X10492000Y-3625001I0J249999D01*
G01*
G37*
%TD.AperFunction*%
%TO.P,CD3,1*%
%TO.N,/DVDD*%
%TA.AperFunction,SMDPad,CuDef*%
G36*
G01*
X8442000Y-3625001D02*
X8442000Y-2724999D01*
G75*
G02*
X8691999Y-2475000I249999J0D01*
G01*
X9342001Y-2475000D01*
G75*
G02*
X9592000Y-2724999I0J-249999D01*
G01*
X9592000Y-3625001D01*
G75*
G02*
X9342001Y-3875000I-249999J0D01*
G01*
X8691999Y-3875000D01*
G75*
G02*
X8442000Y-3625001I0J249999D01*
G01*
G37*
%TD.AperFunction*%
%TD*%
%TO.P,CD2,2*%
%TO.N,GND*%
%TA.AperFunction,SMDPad,CuDef*%
G36*
G01*
X10474000Y-5657001D02*
X10474000Y-4756999D01*
G75*
G02*
X10723999Y-4507000I249999J0D01*
G01*
X11374001Y-4507000D01*
G75*
G02*
X11624000Y-4756999I0J-249999D01*
G01*
X11624000Y-5657001D01*
G75*
G02*
X11374001Y-5907000I-249999J0D01*
G01*
X10723999Y-5907000D01*
G75*
G02*
X10474000Y-5657001I0J249999D01*
G01*
G37*
%TD.AperFunction*%
%TO.P,CD2,1*%
%TO.N,/DVDD*%
%TA.AperFunction,SMDPad,CuDef*%
G36*
G01*
X8424000Y-5657001D02*
X8424000Y-4756999D01*
G75*
G02*
X8673999Y-4507000I249999J0D01*
G01*
X9324001Y-4507000D01*
G75*
G02*
X9574000Y-4756999I0J-249999D01*
G01*
X9574000Y-5657001D01*
G75*
G02*
X9324001Y-5907000I-249999J0D01*
G01*
X8673999Y-5907000D01*
G75*
G02*
X8424000Y-5657001I0J249999D01*
G01*
G37*
%TD.AperFunction*%
%TD*%
%TO.P,CD1,2*%
%TO.N,GND*%
%TA.AperFunction,SMDPad,CuDef*%
G36*
G01*
X10492000Y-7689001D02*
X10492000Y-6788999D01*
G75*
G02*
X10741999Y-6539000I249999J0D01*
G01*
X11392001Y-6539000D01*
G75*
G02*
X11642000Y-6788999I0J-249999D01*
G01*
X11642000Y-7689001D01*
G75*
G02*
X11392001Y-7939000I-249999J0D01*
G01*
X10741999Y-7939000D01*
G75*
G02*
X10492000Y-7689001I0J249999D01*
G01*
G37*
%TD.AperFunction*%
%TO.P,CD1,1*%
%TO.N,/DVDD*%
%TA.AperFunction,SMDPad,CuDef*%
G36*
G01*
X8442000Y-7689001D02*
X8442000Y-6788999D01*
G75*
G02*
X8691999Y-6539000I249999J0D01*
G01*
X9342001Y-6539000D01*
G75*
G02*
X9592000Y-6788999I0J-249999D01*
G01*
X9592000Y-7689001D01*
G75*
G02*
X9342001Y-7939000I-249999J0D01*
G01*
X8691999Y-7939000D01*
G75*
G02*
X8442000Y-7689001I0J249999D01*
G01*
G37*
%TD.AperFunction*%
%TD*%
%TO.P,C12,2*%
%TO.N,GND*%
%TA.AperFunction,SMDPad,CuDef*%
G36*
G01*
X4549999Y-1602000D02*
X5450001Y-1602000D01*
G75*
G02*
X5700000Y-1851999I0J-249999D01*
G01*
X5700000Y-2502001D01*
G75*
G02*
X5450001Y-2752000I-249999J0D01*
G01*
X4549999Y-2752000D01*
G75*
G02*
X4300000Y-2502001I0J249999D01*
G01*
X4300000Y-1851999D01*
G75*
G02*
X4549999Y-1602000I249999J0D01*
G01*
G37*
%TD.AperFunction*%
%TO.P,C12,1*%
%TO.N,/VIN-*%
%TA.AperFunction,SMDPad,CuDef*%
G36*
G01*
X4549999Y448000D02*
X5450001Y448000D01*
G75*
G02*
X5700000Y198001I0J-249999D01*
G01*
X5700000Y-452001D01*
G75*
G02*
X5450001Y-702000I-249999J0D01*
G01*
X4549999Y-702000D01*
G75*
G02*
X4300000Y-452001I0J249999D01*
G01*
X4300000Y198001D01*
G75*
G02*
X4549999Y448000I249999J0D01*
G01*
G37*
%TD.AperFunction*%
%TD*%
%TO.P,C11,2*%
%TO.N,/VIN+*%
%TA.AperFunction,SMDPad,CuDef*%
G36*
G01*
X4549999Y2550000D02*
X5450001Y2550000D01*
G75*
G02*
X5700000Y2300001I0J-249999D01*
G01*
X5700000Y1649999D01*
G75*
G02*
X5450001Y1400000I-249999J0D01*
G01*
X4549999Y1400000D01*
G75*
G02*
X4300000Y1649999I0J249999D01*
G01*
X4300000Y2300001D01*
G75*
G02*
X4549999Y2550000I249999J0D01*
G01*
G37*
%TD.AperFunction*%
%TO.P,C11,1*%
%TO.N,GND*%
%TA.AperFunction,SMDPad,CuDef*%
G36*
G01*
X4549999Y4600000D02*
X5450001Y4600000D01*
G75*
G02*
X5700000Y4350001I0J-249999D01*
G01*
X5700000Y3699999D01*
G75*
G02*
X5450001Y3450000I-249999J0D01*
G01*
X4549999Y3450000D01*
G75*
G02*
X4300000Y3699999I0J249999D01*
G01*
X4300000Y4350001D01*
G75*
G02*
X4549999Y4600000I249999J0D01*
G01*
G37*
%TD.AperFunction*%
%TD*%
%TO.P,C9,2*%
%TO.N,GND*%
%TA.AperFunction,SMDPad,CuDef*%
G36*
G01*
X7814000Y-13265999D02*
X7814000Y-14166001D01*
G75*
G02*
X7564001Y-14416000I-249999J0D01*
G01*
X6913999Y-14416000D01*
G75*
G02*
X6664000Y-14166001I0J249999D01*
G01*
X6664000Y-13265999D01*
G75*
G02*
X6913999Y-13016000I249999J0D01*
G01*
X7564001Y-13016000D01*
G75*
G02*
X7814000Y-13265999I0J-249999D01*
G01*
G37*
%TD.AperFunction*%
%TO.P,C9,1*%
%TO.N,/DVDD_D*%
%TA.AperFunction,SMDPad,CuDef*%
G36*
G01*
X9864000Y-13265999D02*
X9864000Y-14166001D01*
G75*
G02*
X9614001Y-14416000I-249999J0D01*
G01*
X8963999Y-14416000D01*
G75*
G02*
X8714000Y-14166001I0J249999D01*
G01*
X8714000Y-13265999D01*
G75*
G02*
X8963999Y-13016000I249999J0D01*
G01*
X9614001Y-13016000D01*
G75*
G02*
X9864000Y-13265999I0J-249999D01*
G01*
G37*
%TD.AperFunction*%
%TD*%
%TO.P,C8,2*%
%TO.N,GND*%
%TA.AperFunction,SMDPad,CuDef*%
G36*
G01*
X8322000Y14928001D02*
X8322000Y14027999D01*
G75*
G02*
X8072001Y13778000I-249999J0D01*
G01*
X7421999Y13778000D01*
G75*
G02*
X7172000Y14027999I0J249999D01*
G01*
X7172000Y14928001D01*
G75*
G02*
X7421999Y15178000I249999J0D01*
G01*
X8072001Y15178000D01*
G75*
G02*
X8322000Y14928001I0J-249999D01*
G01*
G37*
%TD.AperFunction*%
%TO.P,C8,1*%
%TO.N,/AVDD_D*%
%TA.AperFunction,SMDPad,CuDef*%
G36*
G01*
X10372000Y14928001D02*
X10372000Y14027999D01*
G75*
G02*
X10122001Y13778000I-249999J0D01*
G01*
X9471999Y13778000D01*
G75*
G02*
X9222000Y14027999I0J249999D01*
G01*
X9222000Y14928001D01*
G75*
G02*
X9471999Y15178000I249999J0D01*
G01*
X10122001Y15178000D01*
G75*
G02*
X10372000Y14928001I0J-249999D01*
G01*
G37*
%TD.AperFunction*%
%TD*%
%TO.P,C7,2*%
%TO.N,GND*%
%TA.AperFunction,SMDPad,CuDef*%
G36*
G01*
X-11372001Y-13286000D02*
X-10471999Y-13286000D01*
G75*
G02*
X-10222000Y-13535999I0J-249999D01*
G01*
X-10222000Y-14186001D01*
G75*
G02*
X-10471999Y-14436000I-249999J0D01*
G01*
X-11372001Y-14436000D01*
G75*
G02*
X-11622000Y-14186001I0J249999D01*
G01*
X-11622000Y-13535999D01*
G75*
G02*
X-11372001Y-13286000I249999J0D01*
G01*
G37*
%TD.AperFunction*%
%TO.P,C7,1*%
%TO.N,Net-(C7-Pad1)*%
%TA.AperFunction,SMDPad,CuDef*%
G36*
G01*
X-11372001Y-11236000D02*
X-10471999Y-11236000D01*
G75*
G02*
X-10222000Y-11485999I0J-249999D01*
G01*
X-10222000Y-12136001D01*
G75*
G02*
X-10471999Y-12386000I-249999J0D01*
G01*
X-11372001Y-12386000D01*
G75*
G02*
X-11622000Y-12136001I0J249999D01*
G01*
X-11622000Y-11485999D01*
G75*
G02*
X-11372001Y-11236000I249999J0D01*
G01*
G37*
%TD.AperFunction*%
%TD*%
%TO.P,C6,2*%
%TO.N,GND*%
%TA.AperFunction,SMDPad,CuDef*%
G36*
G01*
X5521000Y9836999D02*
X5521000Y10737001D01*
G75*
G02*
X5770999Y10987000I249999J0D01*
G01*
X6421001Y10987000D01*
G75*
G02*
X6671000Y10737001I0J-249999D01*
G01*
X6671000Y9836999D01*
G75*
G02*
X6421001Y9587000I-249999J0D01*
G01*
X5770999Y9587000D01*
G75*
G02*
X5521000Y9836999I0J249999D01*
G01*
G37*
%TD.AperFunction*%
%TO.P,C6,1*%
%TO.N,/VREF*%
%TA.AperFunction,SMDPad,CuDef*%
G36*
G01*
X3471000Y9836999D02*
X3471000Y10737001D01*
G75*
G02*
X3720999Y10987000I249999J0D01*
G01*
X4371001Y10987000D01*
G75*
G02*
X4621000Y10737001I0J-249999D01*
G01*
X4621000Y9836999D01*
G75*
G02*
X4371001Y9587000I-249999J0D01*
G01*
X3720999Y9587000D01*
G75*
G02*
X3471000Y9836999I0J249999D01*
G01*
G37*
%TD.AperFunction*%
%TD*%
%TO.P,C5,2*%
%TO.N,GND*%
%TA.AperFunction,SMDPad,CuDef*%
G36*
G01*
X8185999Y-17477000D02*
X9086001Y-17477000D01*
G75*
G02*
X9336000Y-17726999I0J-249999D01*
G01*
X9336000Y-18377001D01*
G75*
G02*
X9086001Y-18627000I-249999J0D01*
G01*
X8185999Y-18627000D01*
G75*
G02*
X7936000Y-18377001I0J249999D01*
G01*
X7936000Y-17726999D01*
G75*
G02*
X8185999Y-17477000I249999J0D01*
G01*
G37*
%TD.AperFunction*%
%TO.P,C5,1*%
%TO.N,+7.5V*%
%TA.AperFunction,SMDPad,CuDef*%
G36*
G01*
X8185999Y-15427000D02*
X9086001Y-15427000D01*
G75*
G02*
X9336000Y-15676999I0J-249999D01*
G01*
X9336000Y-16327001D01*
G75*
G02*
X9086001Y-16577000I-249999J0D01*
G01*
X8185999Y-16577000D01*
G75*
G02*
X7936000Y-16327001I0J249999D01*
G01*
X7936000Y-15676999D01*
G75*
G02*
X8185999Y-15427000I249999J0D01*
G01*
G37*
%TD.AperFunction*%
%TD*%
%TO.P,C4,2*%
%TO.N,GND*%
%TA.AperFunction,SMDPad,CuDef*%
G36*
G01*
X13011999Y16178000D02*
X13912001Y16178000D01*
G75*
G02*
X14162000Y15928001I0J-249999D01*
G01*
X14162000Y15277999D01*
G75*
G02*
X13912001Y15028000I-249999J0D01*
G01*
X13011999Y15028000D01*
G75*
G02*
X12762000Y15277999I0J249999D01*
G01*
X12762000Y15928001D01*
G75*
G02*
X13011999Y16178000I249999J0D01*
G01*
G37*
%TD.AperFunction*%
%TO.P,C4,1*%
%TO.N,+7.5V*%
%TA.AperFunction,SMDPad,CuDef*%
G36*
G01*
X13011999Y18228000D02*
X13912001Y18228000D01*
G75*
G02*
X14162000Y17978001I0J-249999D01*
G01*
X14162000Y17327999D01*
G75*
G02*
X13912001Y17078000I-249999J0D01*
G01*
X13011999Y17078000D01*
G75*
G02*
X12762000Y17327999I0J249999D01*
G01*
X12762000Y17978001D01*
G75*
G02*
X13011999Y18228000I249999J0D01*
G01*
G37*
%TD.AperFunction*%
%TD*%
%TO.P,C3,2*%
%TO.N,GND*%
%TA.AperFunction,SMDPad,CuDef*%
G36*
G01*
X-6038001Y8812000D02*
X-5137999Y8812000D01*
G75*
G02*
X-4888000Y8562001I0J-249999D01*
G01*
X-4888000Y7911999D01*
G75*
G02*
X-5137999Y7662000I-249999J0D01*
G01*
X-6038001Y7662000D01*
G75*
G02*
X-6288000Y7911999I0J249999D01*
G01*
X-6288000Y8562001D01*
G75*
G02*
X-6038001Y8812000I249999J0D01*
G01*
G37*
%TD.AperFunction*%
%TO.P,C3,1*%
%TO.N,+7.5V*%
%TA.AperFunction,SMDPad,CuDef*%
G36*
G01*
X-6038001Y10862000D02*
X-5137999Y10862000D01*
G75*
G02*
X-4888000Y10612001I0J-249999D01*
G01*
X-4888000Y9961999D01*
G75*
G02*
X-5137999Y9712000I-249999J0D01*
G01*
X-6038001Y9712000D01*
G75*
G02*
X-6288000Y9961999I0J249999D01*
G01*
X-6288000Y10612001D01*
G75*
G02*
X-6038001Y10862000I249999J0D01*
G01*
G37*
%TD.AperFunction*%
%TD*%
%TO.P,C2,2*%
%TO.N,GND*%
%TA.AperFunction,SMDPad,CuDef*%
G36*
G01*
X-13783000Y-9721001D02*
X-13783000Y-8820999D01*
G75*
G02*
X-13533001Y-8571000I249999J0D01*
G01*
X-12882999Y-8571000D01*
G75*
G02*
X-12633000Y-8820999I0J-249999D01*
G01*
X-12633000Y-9721001D01*
G75*
G02*
X-12882999Y-9971000I-249999J0D01*
G01*
X-13533001Y-9971000D01*
G75*
G02*
X-13783000Y-9721001I0J249999D01*
G01*
G37*
%TD.AperFunction*%
%TO.P,C2,1*%
%TO.N,+7.5V*%
%TA.AperFunction,SMDPad,CuDef*%
G36*
G01*
X-15833000Y-9721001D02*
X-15833000Y-8820999D01*
G75*
G02*
X-15583001Y-8571000I249999J0D01*
G01*
X-14932999Y-8571000D01*
G75*
G02*
X-14683000Y-8820999I0J-249999D01*
G01*
X-14683000Y-9721001D01*
G75*
G02*
X-14932999Y-9971000I-249999J0D01*
G01*
X-15583001Y-9971000D01*
G75*
G02*
X-15833000Y-9721001I0J249999D01*
G01*
G37*
%TD.AperFunction*%
%TD*%
%TO.P,C1,2*%
%TO.N,GND*%
%TA.AperFunction,SMDPad,CuDef*%
G36*
G01*
X-8197001Y8812000D02*
X-7296999Y8812000D01*
G75*
G02*
X-7047000Y8562001I0J-249999D01*
G01*
X-7047000Y7911999D01*
G75*
G02*
X-7296999Y7662000I-249999J0D01*
G01*
X-8197001Y7662000D01*
G75*
G02*
X-8447000Y7911999I0J249999D01*
G01*
X-8447000Y8562001D01*
G75*
G02*
X-8197001Y8812000I249999J0D01*
G01*
G37*
%TD.AperFunction*%
%TO.P,C1,1*%
%TO.N,+7.5V*%
%TA.AperFunction,SMDPad,CuDef*%
G36*
G01*
X-8197001Y10862000D02*
X-7296999Y10862000D01*
G75*
G02*
X-7047000Y10612001I0J-249999D01*
G01*
X-7047000Y9961999D01*
G75*
G02*
X-7296999Y9712000I-249999J0D01*
G01*
X-8197001Y9712000D01*
G75*
G02*
X-8447000Y9961999I0J249999D01*
G01*
X-8447000Y10612001D01*
G75*
G02*
X-8197001Y10862000I249999J0D01*
G01*
G37*
%TD.AperFunction*%
%TD*%
D32*
%TO.N,GND*%
X-5846710Y5783993D03*
X-4572000Y5715000D03*
X-10922000Y-14859000D03*
X-15494000Y-15621000D03*
X-8001000Y-13716000D03*
X-8001000Y-10033000D03*
X-5588000Y7112000D03*
X7112000Y10287000D03*
X-13208000Y1143000D03*
X-13208000Y-4572000D03*
X-11811000Y-9271000D03*
X6731000Y18796000D03*
X6604000Y14478000D03*
X8001000Y11811000D03*
X-7620000Y7112000D03*
X7747000Y-120000D03*
X4953000Y-3429000D03*
X4924068Y5051068D03*
X16309743Y-41885D03*
X12192000Y-3175000D03*
X12192000Y-5207000D03*
X12192000Y-7239000D03*
X18288000Y-7239000D03*
X18288000Y-5207000D03*
X18288000Y-3175000D03*
X7620000Y-11049000D03*
X10668000Y-11049000D03*
X15494000Y-17018000D03*
X27940000Y17399000D03*
X11684000Y10668000D03*
X11684000Y3556000D03*
X7620000Y2032000D03*
X-4064000Y7874000D03*
X7239000Y-14859000D03*
X7239000Y-18034000D03*
X-12319000Y8763000D03*
X13970000Y13970000D03*
X11303000Y12700000D03*
%TO.N,+7.5V*%
X19812000Y5588000D03*
X18796000Y-10160000D03*
%TO.N,/VREF*%
X-2159000Y3810000D03*
%TO.N,+5V*%
X-4572000Y-3175000D03*
%TO.N,/VOS1*%
X-7239000Y4953000D03*
%TO.N,/VOS2*%
X-5842000Y-3175000D03*
%TO.N,/MCLK*%
X25654000Y1830000D03*
%TO.N,/DRDY*%
X22860000Y508000D03*
%TO.N,Net-(U3-Pad5)*%
X2413000Y8001000D03*
%TD*%
D33*
%TO.N,GND*%
X-5830000Y5767283D02*
X-5846710Y5783993D01*
X-5830000Y3300500D02*
X-5830000Y5767283D01*
X-4560000Y5703000D02*
X-4572000Y5715000D01*
X-4560000Y3300500D02*
X-4560000Y5703000D01*
X-10922000Y-13861000D02*
X-10922000Y-14859000D01*
X-15489000Y-15616000D02*
X-15494000Y-15621000D01*
X-15489000Y-14257000D02*
X-15489000Y-15616000D01*
X-8001000Y-12386000D02*
X-8001000Y-13335000D01*
X-8001000Y-11236000D02*
X-8001000Y-10414000D01*
X-7747000Y7239000D02*
X-7620000Y7112000D01*
X-7747000Y8237000D02*
X-7747000Y7239000D01*
X-5588000Y8237000D02*
X-5588000Y7112000D01*
X6096000Y10287000D02*
X7112000Y10287000D01*
X-13232000Y1119000D02*
X-13208000Y1143000D01*
X-16706000Y1119000D02*
X-13232000Y1119000D01*
X-13359000Y-4421000D02*
X-13208000Y-4572000D01*
X-16706000Y-4421000D02*
X-13359000Y-4421000D01*
X-13208000Y-9271000D02*
X-11811000Y-9271000D01*
X13462000Y15603000D02*
X13462000Y14478000D01*
X6750000Y18777000D02*
X6731000Y18796000D01*
X8175000Y18777000D02*
X6750000Y18777000D01*
X7747000Y14478000D02*
X6604000Y14478000D01*
X8287000Y11779000D02*
X8255000Y11811000D01*
X9077000Y11779000D02*
X8287000Y11779000D01*
X7822000Y-45000D02*
X7747000Y-120000D01*
X9134000Y-45000D02*
X7822000Y-45000D01*
X5000000Y-3382000D02*
X4953000Y-3429000D01*
X5000000Y-2177000D02*
X5000000Y-3382000D01*
X5000000Y4025000D02*
X5000000Y4111000D01*
X4924068Y4186932D02*
X4924068Y5051068D01*
X5000000Y4111000D02*
X4924068Y4186932D01*
X16306628Y-45000D02*
X16309743Y-41885D01*
X14859000Y-45000D02*
X16306628Y-45000D01*
X11067000Y-3175000D02*
X12192000Y-3175000D01*
X11049000Y-5207000D02*
X12192000Y-5207000D01*
X11067000Y-7239000D02*
X12192000Y-7239000D01*
X17145000Y-7239000D02*
X18288000Y-7239000D01*
X17163000Y-5207000D02*
X18288000Y-5207000D01*
X17145000Y-3175000D02*
X18288000Y-3175000D01*
X11557000Y9652000D02*
X11557000Y9565000D01*
X8569000Y-11049000D02*
X8001000Y-11049000D01*
X8001000Y-11049000D02*
X7620000Y-11049000D01*
X9719000Y-11049000D02*
X10668000Y-11049000D01*
X15489000Y-17013000D02*
X15494000Y-17018000D01*
X14224000Y-17013000D02*
X15489000Y-17013000D01*
X27852000Y17487000D02*
X27940000Y17399000D01*
X26858000Y17487000D02*
X27852000Y17487000D01*
X11522000Y10506000D02*
X11684000Y10668000D01*
X11522000Y9017000D02*
X11522000Y10506000D01*
X11566000Y3674000D02*
X11684000Y3556000D01*
X11566000Y4953000D02*
X11566000Y3674000D01*
X11557000Y4962000D02*
X11566000Y4953000D01*
X11557000Y6985000D02*
X11557000Y4962000D01*
X7747000Y1905000D02*
X7620000Y2032000D01*
X9134000Y1905000D02*
X7747000Y1905000D01*
X-3175000Y8763000D02*
X-4064000Y7874000D01*
X-3110000Y8763000D02*
X-3175000Y8763000D01*
X7239000Y-13716000D02*
X7239000Y-14859000D01*
X7257000Y-18052000D02*
X7239000Y-18034000D01*
X8636000Y-18052000D02*
X7257000Y-18052000D01*
X-13208000Y8890000D02*
X-13081000Y8763000D01*
X-13081000Y8763000D02*
X-12319000Y8763000D01*
X13462000Y14478000D02*
X13970000Y13970000D01*
X10382000Y11779000D02*
X11303000Y12700000D01*
X10227000Y11779000D02*
X10382000Y11779000D01*
%TO.N,+7.5V*%
X-14539000Y-9990000D02*
X-14539000Y-11557000D01*
X-15258000Y-9271000D02*
X-14539000Y-9990000D01*
X-13589000Y-13537000D02*
X-13589000Y-14257000D01*
X-14539000Y-12587000D02*
X-13589000Y-13537000D01*
X-14539000Y-11557000D02*
X-14539000Y-12587000D01*
D34*
X-7747000Y10287000D02*
X-5588000Y10287000D01*
D33*
X13288000Y17827000D02*
X13462000Y17653000D01*
X10875000Y17827000D02*
X13288000Y17827000D01*
X10155000Y17827000D02*
X10875000Y17827000D01*
X9205000Y16877000D02*
X10155000Y17827000D01*
X8175000Y16877000D02*
X9205000Y16877000D01*
X13194000Y-15113000D02*
X14224000Y-15113000D01*
X12244000Y-16063000D02*
X13194000Y-15113000D01*
X11524000Y-16063000D02*
X12244000Y-16063000D01*
X11463000Y-16002000D02*
X11524000Y-16063000D01*
D35*
X8636000Y-16002000D02*
X11463000Y-16002000D01*
D34*
X-9765000Y12206000D02*
X-5842000Y16129000D01*
X-9207500Y11747500D02*
X-7747000Y10287000D01*
D33*
X8218001Y-15584001D02*
X8636000Y-16002000D01*
D34*
X-12319000Y-16002000D02*
X8161000Y-16002000D01*
X-13392001Y-14674999D02*
X-12065000Y-16002000D01*
D33*
X13462000Y17653000D02*
X13335000Y17653000D01*
D34*
X13716000Y17653000D02*
X20193000Y11176000D01*
X19812000Y11176000D02*
X19812000Y5588000D01*
D33*
X14224000Y-14732000D02*
X14224000Y-15113000D01*
D34*
X18796000Y-10160000D02*
X14224000Y-14732000D01*
D33*
X-5842000Y16129000D02*
X-5715000Y16129000D01*
X-4572000Y11303000D02*
X-3110000Y11303000D01*
X-5588000Y10287000D02*
X-4572000Y11303000D01*
X-5842000Y16129000D02*
X-5842000Y16256000D01*
D34*
X-5842000Y16256000D02*
X-4318000Y17780000D01*
X-4318000Y17780000D02*
X4064000Y17780000D01*
D36*
X4967000Y16877000D02*
X8175000Y16877000D01*
D34*
X4064000Y17780000D02*
X4967000Y16877000D01*
D33*
X-13904000Y10861000D02*
X-11811000Y12954000D01*
X-13904000Y10079002D02*
X-13904000Y10861000D01*
X-14158000Y9825002D02*
X-13904000Y10079002D01*
X-14158000Y5590000D02*
X-14158000Y9825002D01*
X-9779000Y12319000D02*
X-9207500Y11747500D01*
X-11324000Y12319000D02*
X-9779000Y12319000D01*
X-10160000Y15875000D02*
X-9525000Y16510000D01*
X-10160000Y13208000D02*
X-10160000Y15875000D01*
X-10414000Y12954000D02*
X-10160000Y13208000D01*
%TO.N,/VREF*%
X8445442Y2555000D02*
X9134000Y2555000D01*
X4674721Y6325721D02*
X8445442Y2555000D01*
X2094000Y10287000D02*
X1840000Y10033000D01*
X4046000Y10287000D02*
X2094000Y10287000D01*
X4103221Y6897221D02*
X4674721Y6325721D01*
X4046000Y6954442D02*
X4103221Y6897221D01*
X3338999Y7275999D02*
X4046000Y7983000D01*
X2703999Y7275999D02*
X3338999Y7275999D01*
X-762000Y3810000D02*
X2703999Y7275999D01*
X4046000Y7983000D02*
X4046000Y6954442D01*
X-2159000Y3810000D02*
X-762000Y3810000D01*
X4046000Y10287000D02*
X4046000Y7983000D01*
X2343768Y13716000D02*
X4046000Y12013768D01*
X508000Y13716000D02*
X2343768Y13716000D01*
X-381000Y14605000D02*
X508000Y13716000D01*
X4046000Y12013768D02*
X4046000Y10287000D01*
X-381000Y15367000D02*
X-381000Y14605000D01*
%TO.N,Net-(C7-Pad1)*%
X-11176000Y-11557000D02*
X-10922000Y-11811000D01*
X-13589000Y-11557000D02*
X-11176000Y-11557000D01*
X-10922000Y-11811000D02*
X-9017000Y-11811000D01*
%TO.N,/AVDD_D*%
X10875000Y15556000D02*
X9797000Y14478000D01*
X10875000Y16877000D02*
X10875000Y15556000D01*
X9797000Y12940000D02*
X9652000Y12795000D01*
X9797000Y14478000D02*
X9797000Y12940000D01*
%TO.N,/DVDD_D*%
X9144000Y-13571000D02*
X9289000Y-13716000D01*
X9144000Y-12065000D02*
X9144000Y-13571000D01*
X9289000Y-13716000D02*
X9398000Y-13716000D01*
X10795000Y-15113000D02*
X11524000Y-15113000D01*
X9398000Y-13716000D02*
X10795000Y-15113000D01*
%TO.N,+5V*%
X-4560000Y-1649500D02*
X-4560000Y-3163000D01*
D34*
X-5322990Y-10116990D02*
X-5322990Y-6361010D01*
D33*
X-5322990Y-3925990D02*
X-4572000Y-3175000D01*
X-5322990Y-6361010D02*
X-5322990Y-3925990D01*
X-4560000Y-3163000D02*
X-4572000Y-3175000D01*
X-4191000Y-12827000D02*
X-5985000Y-11033000D01*
X-5985000Y-11033000D02*
X-6239000Y-11033000D01*
D34*
X-6239000Y-11033000D02*
X-7017000Y-11811000D01*
X-5322990Y-10116990D02*
X-6239000Y-11033000D01*
D33*
%TO.N,/VIN+*%
X5720000Y1255000D02*
X9134000Y1255000D01*
X5000000Y1975000D02*
X5720000Y1255000D01*
X4816000Y2159000D02*
X5000000Y1975000D01*
X2812000Y2032000D02*
X4816000Y2032000D01*
X2286000Y2603500D02*
X2794000Y2095500D01*
X2286000Y4826000D02*
X2286000Y2603500D01*
%TO.N,/VIN-*%
X5732000Y605000D02*
X5000000Y-127000D01*
X9134000Y605000D02*
X5732000Y605000D01*
X4873000Y-254000D02*
X5000000Y-127000D01*
X2794000Y-127000D02*
X4864000Y-127000D01*
X2286000Y-762000D02*
X2794000Y-254000D01*
X2286000Y-3048000D02*
X2286000Y-762000D01*
%TO.N,/DVDD*%
X9134000Y-1345000D02*
X9134000Y-1387000D01*
D36*
X9017000Y-1504000D02*
X9017000Y-3175000D01*
D33*
X9134000Y-1387000D02*
X9017000Y-1504000D01*
X9017000Y-5189000D02*
X8999000Y-5207000D01*
D34*
X9017000Y-3175000D02*
X9017000Y-5189000D01*
D33*
X8999000Y-7221000D02*
X9017000Y-7239000D01*
D34*
X8999000Y-5207000D02*
X8999000Y-7221000D01*
D33*
X9144000Y-7366000D02*
X9017000Y-7239000D01*
X9144000Y-10065000D02*
X9144000Y-7366000D01*
X11716000Y-10065000D02*
X13081000Y-11430000D01*
X9144000Y-10065000D02*
X11716000Y-10065000D01*
%TO.N,/AVDD*%
X9134000Y4571000D02*
X9516000Y4953000D01*
D36*
X9144000Y3333000D02*
X9144000Y4699000D01*
D33*
X9516000Y6976000D02*
X9507000Y6985000D01*
D34*
X9516000Y4953000D02*
X9516000Y6976000D01*
D33*
X9472000Y7020000D02*
X9507000Y6985000D01*
D34*
X9472000Y9017000D02*
X9472000Y7020000D01*
D33*
X9652000Y9197000D02*
X9472000Y9017000D01*
D37*
X9652000Y10795000D02*
X9652000Y9197000D01*
D33*
X6959189Y11012001D02*
X4636190Y13335000D01*
X4636190Y13335000D02*
X4572000Y13335000D01*
X9434999Y11012001D02*
X6959189Y11012001D01*
X9652000Y10795000D02*
X9434999Y11012001D01*
%TO.N,/VDRIVE*%
X15095000Y-3175000D02*
X15113000Y-3175000D01*
X15113000Y-3175000D02*
X15113000Y-5207000D01*
X15113000Y-7221000D02*
X15095000Y-7239000D01*
X15113000Y-5207000D02*
X15113000Y-7221000D01*
X14859000Y-2939000D02*
X15095000Y-3175000D01*
X14859000Y-1345000D02*
X14859000Y-2939000D01*
X16120010Y-8264010D02*
X15095000Y-7239000D01*
X30597990Y-8264010D02*
X16120010Y-8264010D01*
X32512000Y-6350000D02*
X30597990Y-8264010D01*
X33926999Y-4935001D02*
X32512000Y-6350000D01*
X53865999Y-4935001D02*
X33926999Y-4935001D01*
X54102000Y-4699000D02*
X53865999Y-4935001D01*
X32004000Y-5842000D02*
X32512000Y-6350000D01*
%TO.N,Net-(D1-Pad1)*%
X-16401000Y12319000D02*
X-15766000Y12954000D01*
X-17124000Y12319000D02*
X-16401000Y12319000D01*
D34*
X-17124000Y15515000D02*
X-17124000Y12319000D01*
X-8382000Y24257000D02*
X-17124000Y15515000D01*
D33*
%TO.N,/VIN*%
X-16706000Y-1651000D02*
X-11194000Y-1651000D01*
X-12004000Y-841000D02*
X-11194000Y-1651000D01*
X-12004000Y4192000D02*
X-12004000Y-841000D01*
X-12258000Y4446000D02*
X-12004000Y4192000D01*
X-12258000Y5590000D02*
X-12258000Y4446000D01*
%TO.N,/VOS1*%
X-7100000Y4814000D02*
X-7239000Y4953000D01*
X-7100000Y3300500D02*
X-7100000Y4814000D01*
X-9398000Y4953000D02*
X-9906000Y5461000D01*
X-7239000Y4953000D02*
X-9398000Y4953000D01*
%TO.N,Net-(R3-Pad1)*%
X-7101500Y-1651000D02*
X-7100000Y-1649500D01*
X-9144000Y-1651000D02*
X-7101500Y-1651000D01*
X-7100000Y-3695000D02*
X-6223000Y-4572000D01*
X-7100000Y-1649500D02*
X-7100000Y-3695000D01*
%TO.N,/VOS2*%
X-5830000Y-3163000D02*
X-5842000Y-3175000D01*
X-5830000Y-1649500D02*
X-5830000Y-3163000D01*
%TO.N,/VO+*%
X-2095500Y-370500D02*
X-3300500Y-1575500D01*
X627500Y-370500D02*
X744000Y-254000D01*
X-2095500Y-370500D02*
X627500Y-370500D01*
X-3290000Y-3689000D02*
X-3290000Y-1649500D01*
X-4173000Y-4572000D02*
X-3290000Y-3689000D01*
X-4173000Y-4590000D02*
X-1651000Y-7112000D01*
X-4173000Y-4572000D02*
X-4173000Y-4590000D01*
%TO.N,/VO-*%
X-1894500Y2095500D02*
X-3099500Y3300500D01*
X744000Y2095500D02*
X-1894500Y2095500D01*
X-3290000Y3949000D02*
X-3290000Y3300500D01*
X-1270000Y5969000D02*
X-3290000Y3949000D01*
%TO.N,/CS*%
X31907000Y3205000D02*
X32512000Y3810000D01*
X14859000Y3205000D02*
X31907000Y3205000D01*
%TO.N,/MOSI*%
X28687000Y2555000D02*
X32512000Y-1270000D01*
X14859000Y2555000D02*
X28687000Y2555000D01*
%TO.N,/MCLK*%
X25579000Y1905000D02*
X25654000Y1830000D01*
X14859000Y1905000D02*
X25579000Y1905000D01*
%TO.N,/SCK*%
X46626999Y-2684999D02*
X47752000Y-3810000D01*
X32261997Y-2684999D02*
X46626999Y-2684999D01*
X31276978Y-1699980D02*
X32261997Y-2684999D01*
X26810978Y-1699980D02*
X31276978Y-1699980D01*
X23855998Y1255000D02*
X26810978Y-1699980D01*
X14859000Y1255000D02*
X23855998Y1255000D01*
%TO.N,/DRDY*%
X14859000Y605000D02*
X14937116Y683116D01*
X22684884Y683116D02*
X22860000Y508000D01*
X14937116Y683116D02*
X22684884Y683116D01*
%TO.N,/MISO*%
X30851990Y-2149990D02*
X32512000Y-3810000D01*
X17344846Y-2149990D02*
X30851990Y-2149990D01*
X15889856Y-695000D02*
X17344846Y-2149990D01*
X14859000Y-695000D02*
X15889856Y-695000D01*
%TO.N,/SYNCPD*%
X9871500Y-695000D02*
X9134000Y-695000D01*
X13796490Y3229990D02*
X9871500Y-695000D01*
X13796490Y3481048D02*
X13796490Y3229990D01*
X24892000Y3810000D02*
X14125442Y3810000D01*
X14125442Y3810000D02*
X13796490Y3481048D01*
X32512000Y11430000D02*
X24892000Y3810000D01*
%TO.N,Net-(J2-Pad1)*%
X21209000Y17925000D02*
X20810000Y17526000D01*
X21209000Y22225000D02*
X21209000Y17925000D01*
%TO.N,/EXTSYNC*%
X24769000Y17526000D02*
X24808000Y17487000D01*
X22860000Y17526000D02*
X24769000Y17526000D01*
X27625000Y13970000D02*
X32512000Y13970000D01*
X24808000Y16787000D02*
X27625000Y13970000D01*
X24808000Y17487000D02*
X24808000Y16787000D01*
X23749000Y16428000D02*
X24808000Y17487000D01*
X23749000Y14351000D02*
X23749000Y16428000D01*
%TO.N,Net-(U3-Pad5)*%
X1840000Y8574000D02*
X2413000Y8001000D01*
X1840000Y8763000D02*
X1840000Y8574000D01*
%TD*%
M02*
