%TF.GenerationSoftware,KiCad,Pcbnew,(5.1.6-0-10_14)*%
%TF.CreationDate,2021-01-11T17:17:34-08:00*%
%TF.ProjectId,AD7766_dev_board,41443737-3636-45f6-9465-765f626f6172,rev?*%
%TF.SameCoordinates,Original*%
%TF.FileFunction,Soldermask,Bot*%
%TF.FilePolarity,Negative*%
%FSLAX46Y46*%
G04 Gerber Fmt 4.6, Leading zero omitted, Abs format (unit mm)*
G04 Created by KiCad (PCBNEW (5.1.6-0-10_14)) date 2021-01-11 17:17:34*
%MOMM*%
%LPD*%
G01*
G04 APERTURE LIST*
%ADD10C,4.100000*%
%ADD11C,2.100000*%
%ADD12O,1.800000X1.800000*%
%ADD13R,1.800000X1.800000*%
%ADD14C,1.400000*%
%ADD15C,1.700000*%
%ADD16R,1.400000X1.400000*%
%ADD17R,1.700000X1.700000*%
%ADD18C,10.260000*%
%ADD19O,3.600000X7.100000*%
%ADD20O,1.700000X2.600000*%
%ADD21R,5.180000X1.700000*%
G04 APERTURE END LIST*
%TO.C,R14*%
G36*
G01*
X28162500Y11400262D02*
X28162500Y10443738D01*
G75*
G02*
X27890762Y10172000I-271738J0D01*
G01*
X27184238Y10172000D01*
G75*
G02*
X26912500Y10443738I0J271738D01*
G01*
X26912500Y11400262D01*
G75*
G02*
X27184238Y11672000I271738J0D01*
G01*
X27890762Y11672000D01*
G75*
G02*
X28162500Y11400262I0J-271738D01*
G01*
G37*
G36*
G01*
X30212500Y11400262D02*
X30212500Y10443738D01*
G75*
G02*
X29940762Y10172000I-271738J0D01*
G01*
X29234238Y10172000D01*
G75*
G02*
X28962500Y10443738I0J271738D01*
G01*
X28962500Y11400262D01*
G75*
G02*
X29234238Y11672000I271738J0D01*
G01*
X29940762Y11672000D01*
G75*
G02*
X30212500Y11400262I0J-271738D01*
G01*
G37*
%TD*%
%TO.C,R13*%
G36*
G01*
X21879500Y11336762D02*
X21879500Y10380238D01*
G75*
G02*
X21607762Y10108500I-271738J0D01*
G01*
X20901238Y10108500D01*
G75*
G02*
X20629500Y10380238I0J271738D01*
G01*
X20629500Y11336762D01*
G75*
G02*
X20901238Y11608500I271738J0D01*
G01*
X21607762Y11608500D01*
G75*
G02*
X21879500Y11336762I0J-271738D01*
G01*
G37*
G36*
G01*
X23929500Y11336762D02*
X23929500Y10380238D01*
G75*
G02*
X23657762Y10108500I-271738J0D01*
G01*
X22951238Y10108500D01*
G75*
G02*
X22679500Y10380238I0J271738D01*
G01*
X22679500Y11336762D01*
G75*
G02*
X22951238Y11608500I271738J0D01*
G01*
X23657762Y11608500D01*
G75*
G02*
X23929500Y11336762I0J-271738D01*
G01*
G37*
%TD*%
%TO.C,R12*%
G36*
G01*
X28039000Y8860262D02*
X28039000Y7903738D01*
G75*
G02*
X27767262Y7632000I-271738J0D01*
G01*
X27060738Y7632000D01*
G75*
G02*
X26789000Y7903738I0J271738D01*
G01*
X26789000Y8860262D01*
G75*
G02*
X27060738Y9132000I271738J0D01*
G01*
X27767262Y9132000D01*
G75*
G02*
X28039000Y8860262I0J-271738D01*
G01*
G37*
G36*
G01*
X30089000Y8860262D02*
X30089000Y7903738D01*
G75*
G02*
X29817262Y7632000I-271738J0D01*
G01*
X29110738Y7632000D01*
G75*
G02*
X28839000Y7903738I0J271738D01*
G01*
X28839000Y8860262D01*
G75*
G02*
X29110738Y9132000I271738J0D01*
G01*
X29817262Y9132000D01*
G75*
G02*
X30089000Y8860262I0J-271738D01*
G01*
G37*
%TD*%
%TO.C,R11*%
G36*
G01*
X25869262Y7766000D02*
X24912738Y7766000D01*
G75*
G02*
X24641000Y8037738I0J271738D01*
G01*
X24641000Y8744262D01*
G75*
G02*
X24912738Y9016000I271738J0D01*
G01*
X25869262Y9016000D01*
G75*
G02*
X26141000Y8744262I0J-271738D01*
G01*
X26141000Y8037738D01*
G75*
G02*
X25869262Y7766000I-271738J0D01*
G01*
G37*
G36*
G01*
X25869262Y5716000D02*
X24912738Y5716000D01*
G75*
G02*
X24641000Y5987738I0J271738D01*
G01*
X24641000Y6694262D01*
G75*
G02*
X24912738Y6966000I271738J0D01*
G01*
X25869262Y6966000D01*
G75*
G02*
X26141000Y6694262I0J-271738D01*
G01*
X26141000Y5987738D01*
G75*
G02*
X25869262Y5716000I-271738J0D01*
G01*
G37*
%TD*%
D10*
%TO.C,H4*%
X59055000Y28575000D03*
%TD*%
%TO.C,H3*%
X59055000Y-28575000D03*
%TD*%
%TO.C,H2*%
X-17145000Y28575000D03*
%TD*%
%TO.C,H1*%
X-17399000Y-28829000D03*
%TD*%
D11*
%TO.C,TP19*%
X2286000Y-3048000D03*
%TD*%
%TO.C,TP18*%
X2286000Y4826000D03*
%TD*%
%TO.C,TP14*%
X-1651000Y-7112000D03*
%TD*%
%TO.C,TP12*%
X-1270000Y6096000D03*
%TD*%
%TO.C,TP8*%
X23749000Y14351000D03*
%TD*%
%TO.C,TP7*%
X13081000Y-11430000D03*
%TD*%
%TO.C,TP6*%
X4826000Y13335000D03*
%TD*%
%TO.C,TP5*%
X-8890000Y-4318000D03*
%TD*%
%TO.C,TP4*%
X-4191000Y-12827000D03*
%TD*%
%TO.C,TP3*%
X-9652000Y5461000D03*
%TD*%
%TO.C,TP2*%
X-381000Y15367000D03*
%TD*%
%TO.C,TP1*%
X-9525000Y16510000D03*
%TD*%
D12*
%TO.C,J4*%
X54102000Y-27559000D03*
X54102000Y-25019000D03*
X54102000Y-22479000D03*
X54102000Y-19939000D03*
X54102000Y-17399000D03*
X54102000Y-14859000D03*
X54102000Y-12319000D03*
X54102000Y-9779000D03*
X54102000Y-7239000D03*
D13*
X54102000Y-4699000D03*
%TD*%
D12*
%TO.C,J3*%
X54229000Y-127000D03*
X54229000Y2413000D03*
X54229000Y4953000D03*
X54229000Y7493000D03*
X54229000Y10033000D03*
D13*
X54229000Y12573000D03*
%TD*%
D14*
%TO.C,U9*%
X41402000Y28480000D03*
X38862000Y28480000D03*
D15*
X45212000Y-16510000D03*
X42672000Y-16510000D03*
X40132000Y-16510000D03*
X37592000Y-16510000D03*
X35052000Y-16510000D03*
D14*
X41313600Y16240000D03*
X41313600Y14240000D03*
X43313600Y14240000D03*
X43313600Y16240000D03*
X45313600Y14240000D03*
D16*
X45313600Y16240000D03*
D15*
X32512000Y-11430000D03*
X32512000Y-13970000D03*
X32512000Y-16510000D03*
X32512000Y-19050000D03*
X32512000Y-8890000D03*
X32512000Y-6350000D03*
X32512000Y-3810000D03*
X32512000Y-21590000D03*
X32512000Y-24130000D03*
X32512000Y-26670000D03*
X32512000Y-29210000D03*
X47752000Y-29210000D03*
X47752000Y-26670000D03*
X47752000Y-24130000D03*
X47752000Y-21590000D03*
X47752000Y-19050000D03*
X47752000Y-16510000D03*
X47752000Y-13970000D03*
X47752000Y-11430000D03*
X47752000Y-8890000D03*
X47752000Y-6350000D03*
X32512000Y-1270000D03*
X32512000Y1270000D03*
X32512000Y3810000D03*
X32512000Y6350000D03*
X32512000Y8890000D03*
X32512000Y11430000D03*
X32512000Y13970000D03*
X32512000Y16510000D03*
X32512000Y19050000D03*
X32512000Y21590000D03*
X32512000Y24130000D03*
X32512000Y26670000D03*
D17*
X32512000Y29210000D03*
D15*
X47752000Y-3810000D03*
X47752000Y-1270000D03*
X47752000Y1270000D03*
X47752000Y3810000D03*
X47752000Y6350000D03*
X47752000Y8890000D03*
X47752000Y11430000D03*
X47752000Y13970000D03*
X47752000Y16510000D03*
X47752000Y19050000D03*
X47752000Y21590000D03*
X47752000Y24130000D03*
X47752000Y26670000D03*
X47752000Y29210000D03*
D17*
X35562800Y22910800D03*
D15*
X35562800Y20370800D03*
X35562800Y17830800D03*
X35562800Y15290800D03*
X35562800Y12750800D03*
X45212000Y26670000D03*
%TD*%
D18*
%TO.C,U2*%
X3810000Y24892000D03*
%TD*%
%TO.C,U1*%
X-8382000Y24257000D03*
%TD*%
%TO.C,R5*%
G36*
G01*
X-3458738Y-371000D02*
X-4415262Y-371000D01*
G75*
G02*
X-4687000Y-99262I0J271738D01*
G01*
X-4687000Y607262D01*
G75*
G02*
X-4415262Y879000I271738J0D01*
G01*
X-3458738Y879000D01*
G75*
G02*
X-3187000Y607262I0J-271738D01*
G01*
X-3187000Y-99262D01*
G75*
G02*
X-3458738Y-371000I-271738J0D01*
G01*
G37*
G36*
G01*
X-3458738Y-2421000D02*
X-4415262Y-2421000D01*
G75*
G02*
X-4687000Y-2149262I0J271738D01*
G01*
X-4687000Y-1442738D01*
G75*
G02*
X-4415262Y-1171000I271738J0D01*
G01*
X-3458738Y-1171000D01*
G75*
G02*
X-3187000Y-1442738I0J-271738D01*
G01*
X-3187000Y-2149262D01*
G75*
G02*
X-3458738Y-2421000I-271738J0D01*
G01*
G37*
%TD*%
%TO.C,R4*%
G36*
G01*
X-6565262Y-1162000D02*
X-5608738Y-1162000D01*
G75*
G02*
X-5337000Y-1433738I0J-271738D01*
G01*
X-5337000Y-2140262D01*
G75*
G02*
X-5608738Y-2412000I-271738J0D01*
G01*
X-6565262Y-2412000D01*
G75*
G02*
X-6837000Y-2140262I0J271738D01*
G01*
X-6837000Y-1433738D01*
G75*
G02*
X-6565262Y-1162000I271738J0D01*
G01*
G37*
G36*
G01*
X-6565262Y888000D02*
X-5608738Y888000D01*
G75*
G02*
X-5337000Y616262I0J-271738D01*
G01*
X-5337000Y-90262D01*
G75*
G02*
X-5608738Y-362000I-271738J0D01*
G01*
X-6565262Y-362000D01*
G75*
G02*
X-6837000Y-90262I0J271738D01*
G01*
X-6837000Y616262D01*
G75*
G02*
X-6565262Y888000I271738J0D01*
G01*
G37*
%TD*%
%TO.C,R2*%
G36*
G01*
X-4415262Y2784000D02*
X-3458738Y2784000D01*
G75*
G02*
X-3187000Y2512262I0J-271738D01*
G01*
X-3187000Y1805738D01*
G75*
G02*
X-3458738Y1534000I-271738J0D01*
G01*
X-4415262Y1534000D01*
G75*
G02*
X-4687000Y1805738I0J271738D01*
G01*
X-4687000Y2512262D01*
G75*
G02*
X-4415262Y2784000I271738J0D01*
G01*
G37*
G36*
G01*
X-4415262Y4834000D02*
X-3458738Y4834000D01*
G75*
G02*
X-3187000Y4562262I0J-271738D01*
G01*
X-3187000Y3855738D01*
G75*
G02*
X-3458738Y3584000I-271738J0D01*
G01*
X-4415262Y3584000D01*
G75*
G02*
X-4687000Y3855738I0J271738D01*
G01*
X-4687000Y4562262D01*
G75*
G02*
X-4415262Y4834000I271738J0D01*
G01*
G37*
%TD*%
%TO.C,R1*%
G36*
G01*
X-5617738Y3584000D02*
X-6574262Y3584000D01*
G75*
G02*
X-6846000Y3855738I0J271738D01*
G01*
X-6846000Y4562262D01*
G75*
G02*
X-6574262Y4834000I271738J0D01*
G01*
X-5617738Y4834000D01*
G75*
G02*
X-5346000Y4562262I0J-271738D01*
G01*
X-5346000Y3855738D01*
G75*
G02*
X-5617738Y3584000I-271738J0D01*
G01*
G37*
G36*
G01*
X-5617738Y1534000D02*
X-6574262Y1534000D01*
G75*
G02*
X-6846000Y1805738I0J271738D01*
G01*
X-6846000Y2512262D01*
G75*
G02*
X-6574262Y2784000I271738J0D01*
G01*
X-5617738Y2784000D01*
G75*
G02*
X-5346000Y2512262I0J-271738D01*
G01*
X-5346000Y1805738D01*
G75*
G02*
X-5617738Y1534000I-271738J0D01*
G01*
G37*
%TD*%
D19*
%TO.C,J2*%
X26289000Y27305000D03*
D20*
X21209000Y22225000D03*
D19*
X16129000Y27305000D03*
D20*
X18669000Y22225000D03*
%TD*%
D21*
%TO.C,J1*%
X-16706000Y-4421000D03*
X-16706000Y1119000D03*
%TD*%
%TO.C,C10*%
G36*
G01*
X-2766000Y-5050262D02*
X-2766000Y-4093738D01*
G75*
G02*
X-2494262Y-3822000I271738J0D01*
G01*
X-1787738Y-3822000D01*
G75*
G02*
X-1516000Y-4093738I0J-271738D01*
G01*
X-1516000Y-5050262D01*
G75*
G02*
X-1787738Y-5322000I-271738J0D01*
G01*
X-2494262Y-5322000D01*
G75*
G02*
X-2766000Y-5050262I0J271738D01*
G01*
G37*
G36*
G01*
X-4816000Y-5050262D02*
X-4816000Y-4093738D01*
G75*
G02*
X-4544262Y-3822000I271738J0D01*
G01*
X-3837738Y-3822000D01*
G75*
G02*
X-3566000Y-4093738I0J-271738D01*
G01*
X-3566000Y-5050262D01*
G75*
G02*
X-3837738Y-5322000I-271738J0D01*
G01*
X-4544262Y-5322000D01*
G75*
G02*
X-4816000Y-5050262I0J271738D01*
G01*
G37*
%TD*%
M02*
