M48
; DRILL file {KiCad (5.1.6-0-10_14)} date Monday, January 11, 2021 at 05:17:36 PM
; FORMAT={-:-/ absolute / inch / decimal}
; #@! TF.CreationDate,2021-01-11T17:17:36-08:00
; #@! TF.GenerationSoftware,Kicad,Pcbnew,(5.1.6-0-10_14)
; #@! TF.FileFunction,Plated,1,2,PTH
FMAT,2
INCH
T1C0.0157
T2C0.0315
T3C0.0350
T4C0.0394
T5C0.0433
T6C0.0791
T7C0.1213
T8C0.2402
%
G90
G05
T1
X-0.61Y-0.615
X-0.52Y0.045
X-0.52Y-0.18
X-0.485Y0.345
X-0.465Y-0.365
X-0.43Y-0.585
X-0.315Y-0.395
X-0.315Y-0.54
X-0.3Y0.28
X-0.285Y0.195
X-0.2302Y0.2277
X-0.23Y-0.125
X-0.22Y0.28
X-0.18Y0.225
X-0.18Y-0.125
X-0.16Y0.31
X-0.085Y0.15
X0.095Y0.315
X0.1939Y0.1989
X0.195Y-0.135
X0.26Y0.57
X0.265Y0.74
X0.28Y0.405
X0.285Y-0.585
X0.285Y-0.71
X0.3Y0.08
X0.3Y-0.435
X0.305Y-0.0047
X0.315Y0.465
X0.42Y-0.435
X0.445Y0.5
X0.46Y0.42
X0.46Y0.14
X0.48Y-0.125
X0.48Y-0.205
X0.48Y-0.285
X0.55Y0.55
X0.61Y-0.67
X0.6421Y-0.0016
X0.72Y-0.125
X0.72Y-0.205
X0.72Y-0.285
X0.74Y-0.4
X0.78Y0.22
X0.8475Y0.1547
X0.9Y0.02
X1.01Y0.072
X1.1Y0.685
T2
X1.53Y1.1213
X1.6265Y0.6394
X1.6265Y0.5606
X1.63Y1.1213
X1.7053Y0.6394
X1.7053Y0.5606
X1.784Y0.6394
X1.784Y0.5606
T3
X0.735Y0.875
X0.835Y0.875
T4
X2.135Y0.495
X2.135Y0.395
X2.135Y0.295
X2.135Y0.195
X2.135Y0.095
X2.135Y-0.005
X-0.38Y0.215
X-0.35Y-0.17
X-0.05Y0.24
X0.935Y0.565
X-0.015Y0.605
X0.515Y-0.45
X-0.065Y-0.28
X0.09Y0.19
X0.09Y-0.12
X-0.375Y0.65
X-0.165Y-0.505
X2.13Y-0.185
X2.13Y-0.285
X2.13Y-0.385
X2.13Y-0.485
X2.13Y-0.585
X2.13Y-0.685
X2.13Y-0.785
X2.13Y-0.885
X2.13Y-0.985
X2.13Y-1.085
X0.19Y0.525
T5
X1.28Y1.15
X1.28Y1.05
X1.28Y0.95
X1.28Y0.85
X1.28Y0.75
X1.28Y0.65
X1.28Y0.55
X1.28Y0.45
X1.28Y0.35
X1.28Y0.25
X1.28Y0.15
X1.28Y0.05
X1.28Y-0.05
X1.28Y-0.15
X1.28Y-0.25
X1.28Y-0.35
X1.28Y-0.45
X1.28Y-0.55
X1.28Y-0.65
X1.28Y-0.75
X1.28Y-0.85
X1.28Y-0.95
X1.28Y-1.05
X1.28Y-1.15
X1.38Y-0.65
X1.4001Y0.902
X1.4001Y0.802
X1.4001Y0.702
X1.4001Y0.602
X1.4001Y0.502
X1.48Y-0.65
X1.58Y-0.65
X1.68Y-0.65
X1.78Y1.05
X1.78Y-0.65
X1.88Y1.15
X1.88Y1.05
X1.88Y0.95
X1.88Y0.85
X1.88Y0.75
X1.88Y0.65
X1.88Y0.55
X1.88Y0.45
X1.88Y0.35
X1.88Y0.25
X1.88Y0.15
X1.88Y0.05
X1.88Y-0.05
X1.88Y-0.15
X1.88Y-0.25
X1.88Y-0.35
X1.88Y-0.45
X1.88Y-0.55
X1.88Y-0.65
X1.88Y-0.75
X1.88Y-0.85
X1.88Y-0.95
X1.88Y-1.05
X1.88Y-1.15
T6
X0.635Y1.075
X1.035Y1.075
T7
X2.325Y1.125
X2.325Y-1.125
X-0.685Y-1.135
X-0.675Y1.125
T8
X0.15Y0.98
X-0.33Y0.955
T0
M30
