%TF.GenerationSoftware,KiCad,Pcbnew,(5.1.6-0-10_14)*%
%TF.CreationDate,2021-01-11T17:17:34-08:00*%
%TF.ProjectId,AD7766_dev_board,41443737-3636-45f6-9465-765f626f6172,rev?*%
%TF.SameCoordinates,Original*%
%TF.FileFunction,Legend,Bot*%
%TF.FilePolarity,Positive*%
%FSLAX46Y46*%
G04 Gerber Fmt 4.6, Leading zero omitted, Abs format (unit mm)*
G04 Created by KiCad (PCBNEW (5.1.6-0-10_14)) date 2021-01-11 17:17:34*
%MOMM*%
%LPD*%
G01*
G04 APERTURE LIST*
%ADD10C,0.120000*%
%ADD11C,0.150000*%
G04 APERTURE END LIST*
D10*
%TO.C,R14*%
X28823752Y11632000D02*
X28301248Y11632000D01*
X28823752Y10212000D02*
X28301248Y10212000D01*
%TO.C,R13*%
X22540752Y11568500D02*
X22018248Y11568500D01*
X22540752Y10148500D02*
X22018248Y10148500D01*
%TO.C,R12*%
X28700252Y9092000D02*
X28177748Y9092000D01*
X28700252Y7672000D02*
X28177748Y7672000D01*
%TO.C,R11*%
X26101000Y7104748D02*
X26101000Y7627252D01*
X24681000Y7104748D02*
X24681000Y7627252D01*
%TO.C,R5*%
X-3227000Y-1032252D02*
X-3227000Y-509748D01*
X-4647000Y-1032252D02*
X-4647000Y-509748D01*
%TO.C,R4*%
X-6797000Y-500748D02*
X-6797000Y-1023252D01*
X-5377000Y-500748D02*
X-5377000Y-1023252D01*
%TO.C,R2*%
X-4647000Y3445252D02*
X-4647000Y2922748D01*
X-3227000Y3445252D02*
X-3227000Y2922748D01*
%TO.C,R1*%
X-5386000Y2922748D02*
X-5386000Y3445252D01*
X-6806000Y2922748D02*
X-6806000Y3445252D01*
%TO.C,C10*%
X-3427252Y-5282000D02*
X-2904748Y-5282000D01*
X-3427252Y-3862000D02*
X-2904748Y-3862000D01*
%TO.C,R14*%
D11*
X29205357Y12119619D02*
X29538690Y12595809D01*
X29776785Y12119619D02*
X29776785Y13119619D01*
X29395833Y13119619D01*
X29300595Y13072000D01*
X29252976Y13024380D01*
X29205357Y12929142D01*
X29205357Y12786285D01*
X29252976Y12691047D01*
X29300595Y12643428D01*
X29395833Y12595809D01*
X29776785Y12595809D01*
X28252976Y12119619D02*
X28824404Y12119619D01*
X28538690Y12119619D02*
X28538690Y13119619D01*
X28633928Y12976761D01*
X28729166Y12881523D01*
X28824404Y12833904D01*
X27395833Y12786285D02*
X27395833Y12119619D01*
X27633928Y13167238D02*
X27872023Y12452952D01*
X27252976Y12452952D01*
%TO.C,R13*%
X22922357Y12056119D02*
X23255690Y12532309D01*
X23493785Y12056119D02*
X23493785Y13056119D01*
X23112833Y13056119D01*
X23017595Y13008500D01*
X22969976Y12960880D01*
X22922357Y12865642D01*
X22922357Y12722785D01*
X22969976Y12627547D01*
X23017595Y12579928D01*
X23112833Y12532309D01*
X23493785Y12532309D01*
X21969976Y12056119D02*
X22541404Y12056119D01*
X22255690Y12056119D02*
X22255690Y13056119D01*
X22350928Y12913261D01*
X22446166Y12818023D01*
X22541404Y12770404D01*
X21636642Y13056119D02*
X21017595Y13056119D01*
X21350928Y12675166D01*
X21208071Y12675166D01*
X21112833Y12627547D01*
X21065214Y12579928D01*
X21017595Y12484690D01*
X21017595Y12246595D01*
X21065214Y12151357D01*
X21112833Y12103738D01*
X21208071Y12056119D01*
X21493785Y12056119D01*
X21589023Y12103738D01*
X21636642Y12151357D01*
%TO.C,R12*%
X29081857Y9579619D02*
X29415190Y10055809D01*
X29653285Y9579619D02*
X29653285Y10579619D01*
X29272333Y10579619D01*
X29177095Y10532000D01*
X29129476Y10484380D01*
X29081857Y10389142D01*
X29081857Y10246285D01*
X29129476Y10151047D01*
X29177095Y10103428D01*
X29272333Y10055809D01*
X29653285Y10055809D01*
X28129476Y9579619D02*
X28700904Y9579619D01*
X28415190Y9579619D02*
X28415190Y10579619D01*
X28510428Y10436761D01*
X28605666Y10341523D01*
X28700904Y10293904D01*
X27748523Y10484380D02*
X27700904Y10532000D01*
X27605666Y10579619D01*
X27367571Y10579619D01*
X27272333Y10532000D01*
X27224714Y10484380D01*
X27177095Y10389142D01*
X27177095Y10293904D01*
X27224714Y10151047D01*
X27796142Y9579619D01*
X27177095Y9579619D01*
%TO.C,R11*%
X24074380Y8008857D02*
X23598190Y8342190D01*
X24074380Y8580285D02*
X23074380Y8580285D01*
X23074380Y8199333D01*
X23122000Y8104095D01*
X23169619Y8056476D01*
X23264857Y8008857D01*
X23407714Y8008857D01*
X23502952Y8056476D01*
X23550571Y8104095D01*
X23598190Y8199333D01*
X23598190Y8580285D01*
X24074380Y7056476D02*
X24074380Y7627904D01*
X24074380Y7342190D02*
X23074380Y7342190D01*
X23217238Y7437428D01*
X23312476Y7532666D01*
X23360095Y7627904D01*
X24074380Y6104095D02*
X24074380Y6675523D01*
X24074380Y6389809D02*
X23074380Y6389809D01*
X23217238Y6485047D01*
X23312476Y6580285D01*
X23360095Y6675523D01*
%TO.C,R5*%
X-1834619Y-604333D02*
X-2310809Y-271000D01*
X-1834619Y-32904D02*
X-2834619Y-32904D01*
X-2834619Y-413857D01*
X-2787000Y-509095D01*
X-2739380Y-556714D01*
X-2644142Y-604333D01*
X-2501285Y-604333D01*
X-2406047Y-556714D01*
X-2358428Y-509095D01*
X-2310809Y-413857D01*
X-2310809Y-32904D01*
X-2834619Y-1509095D02*
X-2834619Y-1032904D01*
X-2358428Y-985285D01*
X-2406047Y-1032904D01*
X-2453666Y-1128142D01*
X-2453666Y-1366238D01*
X-2406047Y-1461476D01*
X-2358428Y-1509095D01*
X-2263190Y-1556714D01*
X-2025095Y-1556714D01*
X-1929857Y-1509095D01*
X-1882238Y-1461476D01*
X-1834619Y-1366238D01*
X-1834619Y-1128142D01*
X-1882238Y-1032904D01*
X-1929857Y-985285D01*
%TO.C,R4*%
X-7284619Y-595333D02*
X-7760809Y-262000D01*
X-7284619Y-23904D02*
X-8284619Y-23904D01*
X-8284619Y-404857D01*
X-8237000Y-500095D01*
X-8189380Y-547714D01*
X-8094142Y-595333D01*
X-7951285Y-595333D01*
X-7856047Y-547714D01*
X-7808428Y-500095D01*
X-7760809Y-404857D01*
X-7760809Y-23904D01*
X-7951285Y-1452476D02*
X-7284619Y-1452476D01*
X-8332238Y-1214380D02*
X-7617952Y-976285D01*
X-7617952Y-1595333D01*
%TO.C,R2*%
X-1579619Y3350666D02*
X-2055809Y3684000D01*
X-1579619Y3922095D02*
X-2579619Y3922095D01*
X-2579619Y3541142D01*
X-2532000Y3445904D01*
X-2484380Y3398285D01*
X-2389142Y3350666D01*
X-2246285Y3350666D01*
X-2151047Y3398285D01*
X-2103428Y3445904D01*
X-2055809Y3541142D01*
X-2055809Y3922095D01*
X-2484380Y2969714D02*
X-2532000Y2922095D01*
X-2579619Y2826857D01*
X-2579619Y2588761D01*
X-2532000Y2493523D01*
X-2484380Y2445904D01*
X-2389142Y2398285D01*
X-2293904Y2398285D01*
X-2151047Y2445904D01*
X-1579619Y3017333D01*
X-1579619Y2398285D01*
%TO.C,R1*%
X-7421619Y3214666D02*
X-7897809Y3548000D01*
X-7421619Y3786095D02*
X-8421619Y3786095D01*
X-8421619Y3405142D01*
X-8374000Y3309904D01*
X-8326380Y3262285D01*
X-8231142Y3214666D01*
X-8088285Y3214666D01*
X-7993047Y3262285D01*
X-7945428Y3309904D01*
X-7897809Y3405142D01*
X-7897809Y3786095D01*
X-7421619Y2262285D02*
X-7421619Y2833714D01*
X-7421619Y2548000D02*
X-8421619Y2548000D01*
X-8278761Y2643238D01*
X-8183523Y2738476D01*
X-8135904Y2833714D01*
%TO.C,C10*%
X-2523142Y-6579142D02*
X-2475523Y-6626761D01*
X-2332666Y-6674380D01*
X-2237428Y-6674380D01*
X-2094571Y-6626761D01*
X-1999333Y-6531523D01*
X-1951714Y-6436285D01*
X-1904095Y-6245809D01*
X-1904095Y-6102952D01*
X-1951714Y-5912476D01*
X-1999333Y-5817238D01*
X-2094571Y-5722000D01*
X-2237428Y-5674380D01*
X-2332666Y-5674380D01*
X-2475523Y-5722000D01*
X-2523142Y-5769619D01*
X-3475523Y-6674380D02*
X-2904095Y-6674380D01*
X-3189809Y-6674380D02*
X-3189809Y-5674380D01*
X-3094571Y-5817238D01*
X-2999333Y-5912476D01*
X-2904095Y-5960095D01*
X-4094571Y-5674380D02*
X-4189809Y-5674380D01*
X-4285047Y-5722000D01*
X-4332666Y-5769619D01*
X-4380285Y-5864857D01*
X-4427904Y-6055333D01*
X-4427904Y-6293428D01*
X-4380285Y-6483904D01*
X-4332666Y-6579142D01*
X-4285047Y-6626761D01*
X-4189809Y-6674380D01*
X-4094571Y-6674380D01*
X-3999333Y-6626761D01*
X-3951714Y-6579142D01*
X-3904095Y-6483904D01*
X-3856476Y-6293428D01*
X-3856476Y-6055333D01*
X-3904095Y-5864857D01*
X-3951714Y-5769619D01*
X-3999333Y-5722000D01*
X-4094571Y-5674380D01*
%TD*%
M02*
